{
    "asset" : {
        "generator" : "Khronos glTF Blender I/O v1.8.19",
        "version" : "2.0"
    },
    "scene" : 0,
    "scenes" : [
        {
            "name" : "Scene",
            "nodes" : [
                0
            ]
        }
    ],
    "nodes" : [
        {
            "mesh" : 0,
            "name" : "AlienRuinCircle"
        }
    ],
    "materials" : [
        {
            "name" : "AlienRuinSecondary",
            "pbrMetallicRoughness" : {
                "baseColorFactor" : [
                    0.0933980718255043,
                    0.8000000715255737,
                    0.7546638250350952,
                    1
                ],
                "metallicFactor" : 0,
                "roughnessFactor" : 0.5
            }
        },
        {
            "name" : "AlienruinPrimary",
            "pbrMetallicRoughness" : {
                "baseColorFactor" : [
                    0.0032118642702698708,
                    0.42611414194107056,
                    0.8000000715255737,
                    1
                ],
                "metallicFactor" : 0,
                "roughnessFactor" : 0.4000000059604645
            }
        }
    ],
    "meshes" : [
        {
            "name" : "Circle",
            "primitives" : [
                {
                    "attributes" : {
                        "POSITION" : 0,
                        "NORMAL" : 1,
                        "TEXCOORD_0" : 2
                    },
                    "indices" : 3,
                    "material" : 0
                },
                {
                    "attributes" : {
                        "POSITION" : 4,
                        "NORMAL" : 5,
                        "TEXCOORD_0" : 6
                    },
                    "indices" : 7,
                    "material" : 1
                }
            ]
        }
    ],
    "accessors" : [
        {
            "bufferView" : 0,
            "componentType" : 5126,
            "count" : 124,
            "max" : [
                0.17867246270179749,
                1.0595061779022217,
                1.4910649061203003
            ],
            "min" : [
                -0.1511736810207367,
                -0.6925085783004761,
                -0.1629219651222229
            ],
            "type" : "VEC3"
        },
        {
            "bufferView" : 1,
            "componentType" : 5126,
            "count" : 124,
            "type" : "VEC3"
        },
        {
            "bufferView" : 2,
            "componentType" : 5126,
            "count" : 124,
            "type" : "VEC2"
        },
        {
            "bufferView" : 3,
            "componentType" : 5123,
            "count" : 312,
            "type" : "SCALAR"
        },
        {
            "bufferView" : 4,
            "componentType" : 5126,
            "count" : 116,
            "max" : [
                0.07904903590679169,
                1.0595061779022217,
                1.4910647869110107
            ],
            "min" : [
                -0.05155027285218239,
                -0.6925085783004761,
                -0.1629219502210617
            ],
            "type" : "VEC3"
        },
        {
            "bufferView" : 5,
            "componentType" : 5126,
            "count" : 116,
            "type" : "VEC3"
        },
        {
            "bufferView" : 6,
            "componentType" : 5126,
            "count" : 116,
            "type" : "VEC2"
        },
        {
            "bufferView" : 7,
            "componentType" : 5123,
            "count" : 324,
            "type" : "SCALAR"
        }
    ],
    "bufferViews" : [
        {
            "buffer" : 0,
            "byteLength" : 1488,
            "byteOffset" : 0
        },
        {
            "buffer" : 0,
            "byteLength" : 1488,
            "byteOffset" : 1488
        },
        {
            "buffer" : 0,
            "byteLength" : 992,
            "byteOffset" : 2976
        },
        {
            "buffer" : 0,
            "byteLength" : 624,
            "byteOffset" : 3968
        },
        {
            "buffer" : 0,
            "byteLength" : 1392,
            "byteOffset" : 4592
        },
        {
            "buffer" : 0,
            "byteLength" : 1392,
            "byteOffset" : 5984
        },
        {
            "buffer" : 0,
            "byteLength" : 928,
            "byteOffset" : 7376
        },
        {
            "buffer" : 0,
            "byteLength" : 648,
            "byteOffset" : 8304
        }
    ],
    "buffers" : [
        {
            "byteLength" : 8952,
            "uri" : "AlienRuinsCircle.bin"
        }
    ]
}
