{
    "asset" : {
        "generator" : "Khronos glTF Blender I/O v1.8.19",
        "version" : "2.0"
    },
    "scene" : 0,
    "scenes" : [
        {
            "name" : "Scene",
            "nodes" : [
                0
            ]
        }
    ],
    "nodes" : [
        {
            "mesh" : 0,
            "name" : "AlienRuinV"
        }
    ],
    "materials" : [
        {
            "name" : "AlienruinPrimary",
            "pbrMetallicRoughness" : {
                "baseColorFactor" : [
                    0.0032118642702698708,
                    0.42611414194107056,
                    0.8000000715255737,
                    1
                ],
                "metallicFactor" : 0,
                "roughnessFactor" : 0.4000000059604645
            }
        },
        {
            "name" : "AlienRuinSecondary",
            "pbrMetallicRoughness" : {
                "baseColorFactor" : [
                    0.0933980718255043,
                    0.8000000715255737,
                    0.7546638250350952,
                    1
                ],
                "metallicFactor" : 0,
                "roughnessFactor" : 0.5
            }
        }
    ],
    "meshes" : [
        {
            "name" : "Cube.002",
            "primitives" : [
                {
                    "attributes" : {
                        "POSITION" : 0,
                        "NORMAL" : 1,
                        "TEXCOORD_0" : 2
                    },
                    "indices" : 3,
                    "material" : 0
                },
                {
                    "attributes" : {
                        "POSITION" : 4,
                        "NORMAL" : 5,
                        "TEXCOORD_0" : 6
                    },
                    "indices" : 7,
                    "material" : 1
                }
            ]
        }
    ],
    "accessors" : [
        {
            "bufferView" : 0,
            "componentType" : 5126,
            "count" : 80,
            "max" : [
                0.15688185393810272,
                0.9563936591148376,
                0.7736672759056091
            ],
            "min" : [
                -0.15688185393810272,
                0,
                -0.7736672759056091
            ],
            "type" : "VEC3"
        },
        {
            "bufferView" : 1,
            "componentType" : 5126,
            "count" : 80,
            "type" : "VEC3"
        },
        {
            "bufferView" : 2,
            "componentType" : 5126,
            "count" : 80,
            "type" : "VEC2"
        },
        {
            "bufferView" : 3,
            "componentType" : 5123,
            "count" : 120,
            "type" : "SCALAR"
        },
        {
            "bufferView" : 4,
            "componentType" : 5126,
            "count" : 160,
            "max" : [
                0.2111569046974182,
                0.5755862593650818,
                0.6641671657562256
            ],
            "min" : [
                -0.18181422352790833,
                0.38128453493118286,
                -0.6641671657562256
            ],
            "type" : "VEC3"
        },
        {
            "bufferView" : 5,
            "componentType" : 5126,
            "count" : 160,
            "type" : "VEC3"
        },
        {
            "bufferView" : 6,
            "componentType" : 5126,
            "count" : 160,
            "type" : "VEC2"
        },
        {
            "bufferView" : 7,
            "componentType" : 5123,
            "count" : 240,
            "type" : "SCALAR"
        }
    ],
    "bufferViews" : [
        {
            "buffer" : 0,
            "byteLength" : 960,
            "byteOffset" : 0
        },
        {
            "buffer" : 0,
            "byteLength" : 960,
            "byteOffset" : 960
        },
        {
            "buffer" : 0,
            "byteLength" : 640,
            "byteOffset" : 1920
        },
        {
            "buffer" : 0,
            "byteLength" : 240,
            "byteOffset" : 2560
        },
        {
            "buffer" : 0,
            "byteLength" : 1920,
            "byteOffset" : 2800
        },
        {
            "buffer" : 0,
            "byteLength" : 1920,
            "byteOffset" : 4720
        },
        {
            "buffer" : 0,
            "byteLength" : 1280,
            "byteOffset" : 6640
        },
        {
            "buffer" : 0,
            "byteLength" : 480,
            "byteOffset" : 7920
        }
    ],
    "buffers" : [
        {
            "byteLength" : 8400,
            "uri" : "AlienRuinsV.bin"
        }
    ]
}
