{
    "asset" : {
        "generator" : "Khronos glTF Blender I/O v1.8.19",
        "version" : "2.0"
    },
    "scene" : 0,
    "scenes" : [
        {
            "name" : "Scene",
            "nodes" : [
                0,
                1
            ]
        }
    ],
    "nodes" : [
        {
            "mesh" : 0,
            "name" : "AlienRuinBP"
        },
        {
            "mesh" : 1,
            "name" : "AlienRuinCube"
        }
    ],
    "materials" : [
        {
            "name" : "AlienRuinSecondary",
            "pbrMetallicRoughness" : {
                "baseColorFactor" : [
                    0.0933980718255043,
                    0.8000000715255737,
                    0.7546638250350952,
                    1
                ],
                "metallicFactor" : 0,
                "roughnessFactor" : 0.5
            }
        },
        {
            "name" : "AlienruinPrimary",
            "pbrMetallicRoughness" : {
                "baseColorFactor" : [
                    0.0032118642702698708,
                    0.42611414194107056,
                    0.8000000715255737,
                    1
                ],
                "metallicFactor" : 0,
                "roughnessFactor" : 0.4000000059604645
            }
        }
    ],
    "meshes" : [
        {
            "name" : "Cube.001",
            "primitives" : [
                {
                    "attributes" : {
                        "POSITION" : 0,
                        "NORMAL" : 1,
                        "TEXCOORD_0" : 2
                    },
                    "indices" : 3,
                    "material" : 0
                },
                {
                    "attributes" : {
                        "POSITION" : 4,
                        "NORMAL" : 5,
                        "TEXCOORD_0" : 6
                    },
                    "indices" : 7,
                    "material" : 1
                }
            ]
        },
        {
            "name" : "Cube.003",
            "primitives" : [
                {
                    "attributes" : {
                        "POSITION" : 8,
                        "NORMAL" : 9,
                        "TEXCOORD_0" : 10
                    },
                    "indices" : 11,
                    "material" : 1
                }
            ]
        }
    ],
    "accessors" : [
        {
            "bufferView" : 0,
            "componentType" : 5126,
            "count" : 64,
            "max" : [
                0.3391517102718353,
                0.9544350504875183,
                0.36090025305747986
            ],
            "min" : [
                -0.3697924017906189,
                0.19889411330223083,
                -0.348043829202652
            ],
            "type" : "VEC3"
        },
        {
            "bufferView" : 1,
            "componentType" : 5126,
            "count" : 64,
            "type" : "VEC3"
        },
        {
            "bufferView" : 2,
            "componentType" : 5126,
            "count" : 64,
            "type" : "VEC2"
        },
        {
            "bufferView" : 3,
            "componentType" : 5123,
            "count" : 96,
            "type" : "SCALAR"
        },
        {
            "bufferView" : 4,
            "componentType" : 5126,
            "count" : 40,
            "max" : [
                0.3104645907878876,
                0.8873403668403625,
                0.25380653142929077
            ],
            "min" : [
                -0.34110528230667114,
                0.41413411498069763,
                -0.24095012247562408
            ],
            "type" : "VEC3"
        },
        {
            "bufferView" : 5,
            "componentType" : 5126,
            "count" : 40,
            "type" : "VEC3"
        },
        {
            "bufferView" : 6,
            "componentType" : 5126,
            "count" : 40,
            "type" : "VEC2"
        },
        {
            "bufferView" : 7,
            "componentType" : 5123,
            "count" : 60,
            "type" : "SCALAR"
        },
        {
            "bufferView" : 8,
            "componentType" : 5126,
            "count" : 56,
            "max" : [
                0.2340923696756363,
                0.140239417552948,
                0.2089599370956421
            ],
            "min" : [
                -0.2340923696756363,
                0,
                -0.2089599370956421
            ],
            "type" : "VEC3"
        },
        {
            "bufferView" : 9,
            "componentType" : 5126,
            "count" : 56,
            "type" : "VEC3"
        },
        {
            "bufferView" : 10,
            "componentType" : 5126,
            "count" : 56,
            "type" : "VEC2"
        },
        {
            "bufferView" : 11,
            "componentType" : 5123,
            "count" : 84,
            "type" : "SCALAR"
        }
    ],
    "bufferViews" : [
        {
            "buffer" : 0,
            "byteLength" : 768,
            "byteOffset" : 0
        },
        {
            "buffer" : 0,
            "byteLength" : 768,
            "byteOffset" : 768
        },
        {
            "buffer" : 0,
            "byteLength" : 512,
            "byteOffset" : 1536
        },
        {
            "buffer" : 0,
            "byteLength" : 192,
            "byteOffset" : 2048
        },
        {
            "buffer" : 0,
            "byteLength" : 480,
            "byteOffset" : 2240
        },
        {
            "buffer" : 0,
            "byteLength" : 480,
            "byteOffset" : 2720
        },
        {
            "buffer" : 0,
            "byteLength" : 320,
            "byteOffset" : 3200
        },
        {
            "buffer" : 0,
            "byteLength" : 120,
            "byteOffset" : 3520
        },
        {
            "buffer" : 0,
            "byteLength" : 672,
            "byteOffset" : 3640
        },
        {
            "buffer" : 0,
            "byteLength" : 672,
            "byteOffset" : 4312
        },
        {
            "buffer" : 0,
            "byteLength" : 448,
            "byteOffset" : 4984
        },
        {
            "buffer" : 0,
            "byteLength" : 168,
            "byteOffset" : 5432
        }
    ],
    "buffers" : [
        {
            "byteLength" : 5600,
            "uri" : "AlienRuinsBP.bin"
        }
    ]
}
