{
    "asset" : {
        "generator" : "Khronos glTF Blender I/O v1.8.19",
        "version" : "2.0"
    },
    "scene" : 0,
    "scenes" : [
        {
            "name" : "Scene",
            "nodes" : [
                0
            ]
        }
    ],
    "nodes" : [
        {
            "mesh" : 0,
            "name" : "AlienRuinPodest"
        }
    ],
    "materials" : [
        {
            "name" : "AlienRuinSecondary",
            "pbrMetallicRoughness" : {
                "baseColorFactor" : [
                    0.0933980718255043,
                    0.8000000715255737,
                    0.7546638250350952,
                    1
                ],
                "metallicFactor" : 0,
                "roughnessFactor" : 0.5
            }
        },
        {
            "name" : "AlienruinPrimary",
            "pbrMetallicRoughness" : {
                "baseColorFactor" : [
                    0.0032118642702698708,
                    0.42611414194107056,
                    0.8000000715255737,
                    1
                ],
                "metallicFactor" : 0,
                "roughnessFactor" : 0.4000000059604645
            }
        }
    ],
    "meshes" : [
        {
            "name" : "Sphere.001",
            "primitives" : [
                {
                    "attributes" : {
                        "POSITION" : 0,
                        "NORMAL" : 1,
                        "TEXCOORD_0" : 2
                    },
                    "indices" : 3,
                    "material" : 0
                },
                {
                    "attributes" : {
                        "POSITION" : 4,
                        "NORMAL" : 5,
                        "TEXCOORD_0" : 6
                    },
                    "indices" : 7,
                    "material" : 1
                }
            ]
        }
    ],
    "accessors" : [
        {
            "bufferView" : 0,
            "componentType" : 5126,
            "count" : 197,
            "max" : [
                1,
                0.9238795042037964,
                1.0000001192092896
            ],
            "min" : [
                -0.9999999403953552,
                -0.00515182688832283,
                -0.9999998211860657
            ],
            "type" : "VEC3"
        },
        {
            "bufferView" : 1,
            "componentType" : 5126,
            "count" : 197,
            "type" : "VEC3"
        },
        {
            "bufferView" : 2,
            "componentType" : 5126,
            "count" : 197,
            "type" : "VEC2"
        },
        {
            "bufferView" : 3,
            "componentType" : 5123,
            "count" : 558,
            "type" : "SCALAR"
        },
        {
            "bufferView" : 4,
            "componentType" : 5126,
            "count" : 334,
            "max" : [
                1.0624027252197266,
                0.9238795042037964,
                1.0698707103729248
            ],
            "min" : [
                -1.0509110689163208,
                0.2381574809551239,
                -1.0698703527450562
            ],
            "type" : "VEC3"
        },
        {
            "bufferView" : 5,
            "componentType" : 5126,
            "count" : 334,
            "type" : "VEC3"
        },
        {
            "bufferView" : 6,
            "componentType" : 5126,
            "count" : 334,
            "type" : "VEC2"
        },
        {
            "bufferView" : 7,
            "componentType" : 5123,
            "count" : 666,
            "type" : "SCALAR"
        }
    ],
    "bufferViews" : [
        {
            "buffer" : 0,
            "byteLength" : 2364,
            "byteOffset" : 0
        },
        {
            "buffer" : 0,
            "byteLength" : 2364,
            "byteOffset" : 2364
        },
        {
            "buffer" : 0,
            "byteLength" : 1576,
            "byteOffset" : 4728
        },
        {
            "buffer" : 0,
            "byteLength" : 1116,
            "byteOffset" : 6304
        },
        {
            "buffer" : 0,
            "byteLength" : 4008,
            "byteOffset" : 7420
        },
        {
            "buffer" : 0,
            "byteLength" : 4008,
            "byteOffset" : 11428
        },
        {
            "buffer" : 0,
            "byteLength" : 2672,
            "byteOffset" : 15436
        },
        {
            "buffer" : 0,
            "byteLength" : 1332,
            "byteOffset" : 18108
        }
    ],
    "buffers" : [
        {
            "byteLength" : 19440,
            "uri" : "AlienRuinsPodest.bin"
        }
    ]
}
