{
    "asset" : {
        "generator" : "Khronos glTF Blender I/O v1.8.19",
        "version" : "2.0"
    },
    "scene" : 0,
    "scenes" : [
        {
            "name" : "Scene",
            "nodes" : [
                0
            ]
        }
    ],
    "nodes" : [
        {
            "mesh" : 0,
            "name" : "Bucket"
        }
    ],
    "materials" : [
        {
            "doubleSided" : true,
            "name" : "ShovelBrown",
            "pbrMetallicRoughness" : {
                "baseColorFactor" : [
                    0.3931143581867218,
                    0.16078372299671173,
                    0.11262880265712738,
                    1
                ],
                "metallicFactor" : 0,
                "roughnessFactor" : 0.699999988079071
            }
        },
        {
            "doubleSided" : true,
            "name" : "SchovelMetal",
            "pbrMetallicRoughness" : {
                "baseColorFactor" : [
                    0.08353134244680405,
                    0.08353134244680405,
                    0.08353134244680405,
                    1
                ],
                "metallicFactor" : 0,
                "roughnessFactor" : 0.15354329347610474
            }
        }
    ],
    "meshes" : [
        {
            "name" : "Cube.001",
            "primitives" : [
                {
                    "attributes" : {
                        "POSITION" : 0,
                        "NORMAL" : 1,
                        "TEXCOORD_0" : 2
                    },
                    "indices" : 3,
                    "material" : 0
                },
                {
                    "attributes" : {
                        "POSITION" : 4,
                        "NORMAL" : 5,
                        "TEXCOORD_0" : 6
                    },
                    "indices" : 7,
                    "material" : 1
                }
            ]
        }
    ],
    "accessors" : [
        {
            "bufferView" : 0,
            "componentType" : 5126,
            "count" : 184,
            "max" : [
                0.28605780005455017,
                0.4890163540840149,
                0.27838119864463806
            ],
            "min" : [
                -0.2855875790119171,
                0,
                -0.24955421686172485
            ],
            "type" : "VEC3"
        },
        {
            "bufferView" : 1,
            "componentType" : 5126,
            "count" : 184,
            "type" : "VEC3"
        },
        {
            "bufferView" : 2,
            "componentType" : 5126,
            "count" : 184,
            "type" : "VEC2"
        },
        {
            "bufferView" : 3,
            "componentType" : 5123,
            "count" : 276,
            "type" : "SCALAR"
        },
        {
            "bufferView" : 4,
            "componentType" : 5126,
            "count" : 192,
            "max" : [
                0.3201459050178528,
                0.42696473002433777,
                0.2854622006416321
            ],
            "min" : [
                -0.3201459050178528,
                0.10530702769756317,
                -0.25686225295066833
            ],
            "type" : "VEC3"
        },
        {
            "bufferView" : 5,
            "componentType" : 5126,
            "count" : 192,
            "type" : "VEC3"
        },
        {
            "bufferView" : 6,
            "componentType" : 5126,
            "count" : 192,
            "type" : "VEC2"
        },
        {
            "bufferView" : 7,
            "componentType" : 5123,
            "count" : 288,
            "type" : "SCALAR"
        }
    ],
    "bufferViews" : [
        {
            "buffer" : 0,
            "byteLength" : 2208,
            "byteOffset" : 0
        },
        {
            "buffer" : 0,
            "byteLength" : 2208,
            "byteOffset" : 2208
        },
        {
            "buffer" : 0,
            "byteLength" : 1472,
            "byteOffset" : 4416
        },
        {
            "buffer" : 0,
            "byteLength" : 552,
            "byteOffset" : 5888
        },
        {
            "buffer" : 0,
            "byteLength" : 2304,
            "byteOffset" : 6440
        },
        {
            "buffer" : 0,
            "byteLength" : 2304,
            "byteOffset" : 8744
        },
        {
            "buffer" : 0,
            "byteLength" : 1536,
            "byteOffset" : 11048
        },
        {
            "buffer" : 0,
            "byteLength" : 576,
            "byteOffset" : 12584
        }
    ],
    "buffers" : [
        {
            "byteLength" : 13160,
            "uri" : "Bucket.bin"
        }
    ]
}
