{
    "asset" : {
        "generator" : "Khronos glTF Blender I/O v3.3.32",
        "version" : "2.0"
    },
    "scene" : 0,
    "scenes" : [
        {
            "name" : "Scene",
            "nodes" : [
                0,
                1,
                2,
                3
            ]
        }
    ],
    "nodes" : [
        {
            "mesh" : 0,
            "name" : "Scroll",
            "scale" : [
                0.7596502900123596,
                1.4611479043960571,
                1.4611479043960571
            ],
            "translation" : [
                -0.031472064554691315,
                -0.0005594030953943729,
                -0.002237687585875392
            ]
        },
        {
            "mesh" : 1,
            "name" : "Cylinder",
            "rotation" : [
                0,
                0,
                -0.7071068286895752,
                0.7071068286895752
            ]
        },
        {
            "mesh" : 2,
            "name" : "WindowBorder",
            "rotation" : [
                0,
                0,
                -0.7071068286895752,
                0.7071068286895752
            ]
        },
        {
            "mesh" : 3,
            "name" : "Screws"
        }
    ],
    "materials" : [
        {
            "doubleSided" : true,
            "name" : "CapsuleNotePaper",
            "pbrMetallicRoughness" : {
                "baseColorFactor" : [
                    0.7989514470100403,
                    0.8000000715255737,
                    0.16755585372447968,
                    1
                ],
                "metallicFactor" : 0
            }
        },
        {
            "doubleSided" : true,
            "name" : "CapsuleMetal",
            "pbrMetallicRoughness" : {
                "baseColorFactor" : [
                    0.22025397419929504,
                    0.22025397419929504,
                    0.22025397419929504,
                    1
                ],
                "metallicFactor" : 0,
                "roughnessFactor" : 0.24611398577690125
            }
        },
        {
            "doubleSided" : true,
            "name" : "CapsuleRed",
            "pbrMetallicRoughness" : {
                "baseColorFactor" : [
                    0.6266566514968872,
                    0.10431912541389465,
                    0.09214650094509125,
                    1
                ],
                "metallicFactor" : 0,
                "roughnessFactor" : 0.696891188621521
            }
        },
        {
            "doubleSided" : true,
            "name" : "CapsuleWindow",
            "pbrMetallicRoughness" : {
                "baseColorFactor" : [
                    0.800000011920929,
                    0.800000011920929,
                    0.800000011920929,
                    1
                ],
                "metallicFactor" : 0,
                "roughnessFactor" : 0.5
            }
        }
    ],
    "meshes" : [
        {
            "name" : "Plane.002",
            "primitives" : [
                {
                    "attributes" : {
                        "POSITION" : 0,
                        "NORMAL" : 1,
                        "TEXCOORD_0" : 2
                    },
                    "indices" : 3,
                    "material" : 0
                }
            ]
        },
        {
            "name" : "Cylinder",
            "primitives" : [
                {
                    "attributes" : {
                        "POSITION" : 4,
                        "NORMAL" : 5,
                        "TEXCOORD_0" : 6
                    },
                    "indices" : 7,
                    "material" : 1
                },
                {
                    "attributes" : {
                        "POSITION" : 8,
                        "NORMAL" : 9,
                        "TEXCOORD_0" : 10
                    },
                    "indices" : 11,
                    "material" : 2
                },
                {
                    "attributes" : {
                        "POSITION" : 12,
                        "NORMAL" : 13,
                        "TEXCOORD_0" : 14
                    },
                    "indices" : 15,
                    "material" : 3
                }
            ]
        },
        {
            "name" : "Cylinder.001",
            "primitives" : [
                {
                    "attributes" : {
                        "POSITION" : 16,
                        "NORMAL" : 17,
                        "TEXCOORD_0" : 18
                    },
                    "indices" : 19,
                    "material" : 1
                }
            ]
        },
        {
            "name" : "Sphere",
            "primitives" : [
                {
                    "attributes" : {
                        "POSITION" : 20,
                        "NORMAL" : 21,
                        "TEXCOORD_0" : 22
                    },
                    "indices" : 23,
                    "material" : 1
                }
            ]
        }
    ],
    "accessors" : [
        {
            "bufferView" : 0,
            "componentType" : 5126,
            "count" : 176,
            "max" : [
                0.316707968711853,
                0.0244905985891819,
                0.056721221655607224
            ],
            "min" : [
                -0.2165755331516266,
                -0.025182221084833145,
                -0.02490655519068241
            ],
            "type" : "VEC3"
        },
        {
            "bufferView" : 1,
            "componentType" : 5126,
            "count" : 176,
            "type" : "VEC3"
        },
        {
            "bufferView" : 2,
            "componentType" : 5126,
            "count" : 176,
            "type" : "VEC2"
        },
        {
            "bufferView" : 3,
            "componentType" : 5123,
            "count" : 876,
            "type" : "SCALAR"
        },
        {
            "bufferView" : 4,
            "componentType" : 5126,
            "count" : 956,
            "max" : [
                0.22989481687545776,
                0.4310508966445923,
                0.22989481687545776
            ],
            "min" : [
                -0.22989481687545776,
                -0.4310508966445923,
                -0.22989481687545776
            ],
            "type" : "VEC3"
        },
        {
            "bufferView" : 5,
            "componentType" : 5126,
            "count" : 956,
            "type" : "VEC3"
        },
        {
            "bufferView" : 6,
            "componentType" : 5126,
            "count" : 956,
            "type" : "VEC2"
        },
        {
            "bufferView" : 7,
            "componentType" : 5123,
            "count" : 2256,
            "type" : "SCALAR"
        },
        {
            "bufferView" : 8,
            "componentType" : 5126,
            "count" : 124,
            "max" : [
                0.16091471910476685,
                0.36073243618011475,
                0.16091471910476685
            ],
            "min" : [
                -0.16091471910476685,
                -0.36073243618011475,
                -0.16091471910476685
            ],
            "type" : "VEC3"
        },
        {
            "bufferView" : 9,
            "componentType" : 5126,
            "count" : 124,
            "type" : "VEC3"
        },
        {
            "bufferView" : 10,
            "componentType" : 5126,
            "count" : 124,
            "type" : "VEC2"
        },
        {
            "bufferView" : 11,
            "componentType" : 5123,
            "count" : 288,
            "type" : "SCALAR"
        },
        {
            "bufferView" : 12,
            "componentType" : 5126,
            "count" : 16,
            "max" : [
                -0.11378384381532669,
                0.17942723631858826,
                0.11378385126590729
            ],
            "min" : [
                -0.16091471910476685,
                -0.17942722141742706,
                -0.11378385126590729
            ],
            "type" : "VEC3"
        },
        {
            "bufferView" : 13,
            "componentType" : 5126,
            "count" : 16,
            "type" : "VEC3"
        },
        {
            "bufferView" : 14,
            "componentType" : 5126,
            "count" : 16,
            "type" : "VEC2"
        },
        {
            "bufferView" : 15,
            "componentType" : 5123,
            "count" : 36,
            "type" : "SCALAR"
        },
        {
            "bufferView" : 16,
            "componentType" : 5126,
            "count" : 184,
            "max" : [
                -0.11378384381532669,
                0.17942723631858826,
                0.11826123297214508
            ],
            "min" : [
                -0.16724669933319092,
                -0.17942722141742706,
                -0.11826123297214508
            ],
            "type" : "VEC3"
        },
        {
            "bufferView" : 17,
            "componentType" : 5126,
            "count" : 184,
            "type" : "VEC3"
        },
        {
            "bufferView" : 18,
            "componentType" : 5126,
            "count" : 184,
            "type" : "VEC2"
        },
        {
            "bufferView" : 19,
            "componentType" : 5123,
            "count" : 336,
            "type" : "SCALAR"
        },
        {
            "bufferView" : 20,
            "componentType" : 5126,
            "count" : 1056,
            "max" : [
                0.26884737610816956,
                0.20650768280029297,
                0.20650742948055267
            ],
            "min" : [
                -0.26884737610816956,
                -0.20650756359100342,
                -0.2065076380968094
            ],
            "type" : "VEC3"
        },
        {
            "bufferView" : 21,
            "componentType" : 5126,
            "count" : 1056,
            "type" : "VEC3"
        },
        {
            "bufferView" : 22,
            "componentType" : 5126,
            "count" : 1056,
            "type" : "VEC2"
        },
        {
            "bufferView" : 23,
            "componentType" : 5123,
            "count" : 2880,
            "type" : "SCALAR"
        }
    ],
    "bufferViews" : [
        {
            "buffer" : 0,
            "byteLength" : 2112,
            "byteOffset" : 0,
            "target" : 34962
        },
        {
            "buffer" : 0,
            "byteLength" : 2112,
            "byteOffset" : 2112,
            "target" : 34962
        },
        {
            "buffer" : 0,
            "byteLength" : 1408,
            "byteOffset" : 4224,
            "target" : 34962
        },
        {
            "buffer" : 0,
            "byteLength" : 1752,
            "byteOffset" : 5632,
            "target" : 34963
        },
        {
            "buffer" : 0,
            "byteLength" : 11472,
            "byteOffset" : 7384,
            "target" : 34962
        },
        {
            "buffer" : 0,
            "byteLength" : 11472,
            "byteOffset" : 18856,
            "target" : 34962
        },
        {
            "buffer" : 0,
            "byteLength" : 7648,
            "byteOffset" : 30328,
            "target" : 34962
        },
        {
            "buffer" : 0,
            "byteLength" : 4512,
            "byteOffset" : 37976,
            "target" : 34963
        },
        {
            "buffer" : 0,
            "byteLength" : 1488,
            "byteOffset" : 42488,
            "target" : 34962
        },
        {
            "buffer" : 0,
            "byteLength" : 1488,
            "byteOffset" : 43976,
            "target" : 34962
        },
        {
            "buffer" : 0,
            "byteLength" : 992,
            "byteOffset" : 45464,
            "target" : 34962
        },
        {
            "buffer" : 0,
            "byteLength" : 576,
            "byteOffset" : 46456,
            "target" : 34963
        },
        {
            "buffer" : 0,
            "byteLength" : 192,
            "byteOffset" : 47032,
            "target" : 34962
        },
        {
            "buffer" : 0,
            "byteLength" : 192,
            "byteOffset" : 47224,
            "target" : 34962
        },
        {
            "buffer" : 0,
            "byteLength" : 128,
            "byteOffset" : 47416,
            "target" : 34962
        },
        {
            "buffer" : 0,
            "byteLength" : 72,
            "byteOffset" : 47544,
            "target" : 34963
        },
        {
            "buffer" : 0,
            "byteLength" : 2208,
            "byteOffset" : 47616,
            "target" : 34962
        },
        {
            "buffer" : 0,
            "byteLength" : 2208,
            "byteOffset" : 49824,
            "target" : 34962
        },
        {
            "buffer" : 0,
            "byteLength" : 1472,
            "byteOffset" : 52032,
            "target" : 34962
        },
        {
            "buffer" : 0,
            "byteLength" : 672,
            "byteOffset" : 53504,
            "target" : 34963
        },
        {
            "buffer" : 0,
            "byteLength" : 12672,
            "byteOffset" : 54176,
            "target" : 34962
        },
        {
            "buffer" : 0,
            "byteLength" : 12672,
            "byteOffset" : 66848,
            "target" : 34962
        },
        {
            "buffer" : 0,
            "byteLength" : 8448,
            "byteOffset" : 79520,
            "target" : 34962
        },
        {
            "buffer" : 0,
            "byteLength" : 5760,
            "byteOffset" : 87968,
            "target" : 34963
        }
    ],
    "buffers" : [
        {
            "byteLength" : 93728,
            "uri" : "Capsule.bin"
        }
    ]
}
