{
    "asset" : {
        "generator" : "Khronos glTF Blender I/O v3.3.32",
        "version" : "2.0"
    },
    "scene" : 0,
    "scenes" : [
        {
            "name" : "Scene",
            "nodes" : [
                0
            ]
        }
    ],
    "nodes" : [
        {
            "mesh" : 0,
            "name" : "Wheel.001",
            "rotation" : [
                0.7071068286895752,
                0,
                0,
                0.7071068286895752
            ]
        }
    ],
    "materials" : [
        {
            "name" : "MultitoolMetal",
            "pbrMetallicRoughness" : {
                "baseColorFactor" : [
                    0.13758344948291779,
                    0.13758344948291779,
                    0.13758344948291779,
                    1
                ],
                "metallicFactor" : 0,
                "roughnessFactor" : 0.1683937907218933
            }
        }
    ],
    "meshes" : [
        {
            "name" : "Circle.004",
            "primitives" : [
                {
                    "attributes" : {
                        "POSITION" : 0,
                        "NORMAL" : 1,
                        "TEXCOORD_0" : 2
                    },
                    "indices" : 3,
                    "material" : 0
                }
            ]
        }
    ],
    "accessors" : [
        {
            "bufferView" : 0,
            "componentType" : 5126,
            "count" : 1055,
            "max" : [
                0.1805395483970642,
                0.022543909028172493,
                0.19018937647342682
            ],
            "min" : [
                -0.18053953349590302,
                -0.022543910890817642,
                -0.17386670410633087
            ],
            "type" : "VEC3"
        },
        {
            "bufferView" : 1,
            "componentType" : 5126,
            "count" : 1055,
            "type" : "VEC3"
        },
        {
            "bufferView" : 2,
            "componentType" : 5126,
            "count" : 1055,
            "type" : "VEC2"
        },
        {
            "bufferView" : 3,
            "componentType" : 5123,
            "count" : 2388,
            "type" : "SCALAR"
        }
    ],
    "bufferViews" : [
        {
            "buffer" : 0,
            "byteLength" : 12660,
            "byteOffset" : 0,
            "target" : 34962
        },
        {
            "buffer" : 0,
            "byteLength" : 12660,
            "byteOffset" : 12660,
            "target" : 34962
        },
        {
            "buffer" : 0,
            "byteLength" : 8440,
            "byteOffset" : 25320,
            "target" : 34962
        },
        {
            "buffer" : 0,
            "byteLength" : 4776,
            "byteOffset" : 33760,
            "target" : 34963
        }
    ],
    "buffers" : [
        {
            "byteLength" : 38536,
            "uri" : "Gear.bin"
        }
    ]
}
