{
    "asset" : {
        "generator" : "Khronos glTF Blender I/O v3.3.32",
        "version" : "2.0"
    },
    "scene" : 0,
    "scenes" : [
        {
            "name" : "Scene",
            "nodes" : [
                0
            ]
        }
    ],
    "nodes" : [
        {
            "mesh" : 0,
            "name" : "Ice"
        }
    ],
    "materials" : [
        {
            "doubleSided" : true,
            "name" : "IceMat",
            "pbrMetallicRoughness" : {
                "baseColorFactor" : [
                    0.3523695468902588,
                    0.8000000715255737,
                    0.7771388292312622,
                    1
                ],
                "metallicFactor" : 0,
                "roughnessFactor" : 0.05440413951873779
            }
        }
    ],
    "meshes" : [
        {
            "name" : "Icosphere",
            "primitives" : [
                {
                    "attributes" : {
                        "POSITION" : 0,
                        "NORMAL" : 1,
                        "TEXCOORD_0" : 2
                    },
                    "indices" : 3,
                    "material" : 0
                }
            ]
        }
    ],
    "accessors" : [
        {
            "bufferView" : 0,
            "componentType" : 5126,
            "count" : 516,
            "max" : [
                1.7491216659545898,
                3.6952593326568604,
                1.9851206541061401
            ],
            "min" : [
                -2.2054548263549805,
                -1.0948905944824219,
                -1.9764528274536133
            ],
            "type" : "VEC3"
        },
        {
            "bufferView" : 1,
            "componentType" : 5126,
            "count" : 516,
            "type" : "VEC3"
        },
        {
            "bufferView" : 2,
            "componentType" : 5126,
            "count" : 516,
            "type" : "VEC2"
        },
        {
            "bufferView" : 3,
            "componentType" : 5123,
            "count" : 516,
            "type" : "SCALAR"
        }
    ],
    "bufferViews" : [
        {
            "buffer" : 0,
            "byteLength" : 6192,
            "byteOffset" : 0,
            "target" : 34962
        },
        {
            "buffer" : 0,
            "byteLength" : 6192,
            "byteOffset" : 6192,
            "target" : 34962
        },
        {
            "buffer" : 0,
            "byteLength" : 4128,
            "byteOffset" : 12384,
            "target" : 34962
        },
        {
            "buffer" : 0,
            "byteLength" : 1032,
            "byteOffset" : 16512,
            "target" : 34963
        }
    ],
    "buffers" : [
        {
            "byteLength" : 17544,
            "uri" : "Ice.bin"
        }
    ]
}
