{
    "asset" : {
        "generator" : "Khronos glTF Blender I/O v1.8.19",
        "version" : "2.0"
    },
    "scene" : 0,
    "scenes" : [
        {
            "name" : "Scene",
            "nodes" : [
                0,
                1
            ]
        }
    ],
    "nodes" : [
        {
            "mesh" : 0,
            "name" : "Stick"
        },
        {
            "mesh" : 1,
            "name" : "Marshmallow",
            "translation" : [
                0,
                0,
                0.012124965898692608
            ]
        }
    ],
    "materials" : [
        {
            "doubleSided" : true,
            "name" : "MarshmallowStick",
            "pbrMetallicRoughness" : {
                "baseColorFactor" : [
                    0.42002421617507935,
                    0.1028822585940361,
                    0.05046534165740013,
                    1
                ],
                "metallicFactor" : 0,
                "roughnessFactor" : 0.5
            }
        },
        {
            "doubleSided" : true,
            "name" : "MarshmallowMarshmallow",
            "pbrMetallicRoughness" : {
                "baseColorFactor" : [
                    0.800000011920929,
                    0.800000011920929,
                    0.800000011920929,
                    1
                ],
                "metallicFactor" : 0,
                "roughnessFactor" : 0.4000000059604645
            }
        }
    ],
    "meshes" : [
        {
            "name" : "Cylinder",
            "primitives" : [
                {
                    "attributes" : {
                        "POSITION" : 0,
                        "NORMAL" : 1,
                        "TEXCOORD_0" : 2
                    },
                    "indices" : 3,
                    "material" : 0
                }
            ]
        },
        {
            "name" : "Cylinder.001",
            "primitives" : [
                {
                    "attributes" : {
                        "POSITION" : 4,
                        "NORMAL" : 5,
                        "TEXCOORD_0" : 6
                    },
                    "indices" : 7,
                    "material" : 1
                }
            ]
        }
    ],
    "accessors" : [
        {
            "bufferView" : 0,
            "componentType" : 5126,
            "count" : 85,
            "max" : [
                0.03295791521668434,
                0.7495004534721375,
                0.09915891289710999
            ],
            "min" : [
                -0.015540935099124908,
                0,
                -0.02494818903505802
            ],
            "type" : "VEC3"
        },
        {
            "bufferView" : 1,
            "componentType" : 5126,
            "count" : 85,
            "type" : "VEC3"
        },
        {
            "bufferView" : 2,
            "componentType" : 5126,
            "count" : 85,
            "type" : "VEC2"
        },
        {
            "bufferView" : 3,
            "componentType" : 5123,
            "count" : 252,
            "type" : "SCALAR"
        },
        {
            "bufferView" : 4,
            "componentType" : 5126,
            "count" : 43,
            "max" : [
                0.05539655685424805,
                0.7433611750602722,
                0.025591902434825897
            ],
            "min" : [
                -0.05539655312895775,
                0.5981689691543579,
                -0.10282891988754272
            ],
            "type" : "VEC3"
        },
        {
            "bufferView" : 5,
            "componentType" : 5126,
            "count" : 43,
            "type" : "VEC3"
        },
        {
            "bufferView" : 6,
            "componentType" : 5126,
            "count" : 43,
            "type" : "VEC2"
        },
        {
            "bufferView" : 7,
            "componentType" : 5123,
            "count" : 180,
            "type" : "SCALAR"
        }
    ],
    "bufferViews" : [
        {
            "buffer" : 0,
            "byteLength" : 1020,
            "byteOffset" : 0
        },
        {
            "buffer" : 0,
            "byteLength" : 1020,
            "byteOffset" : 1020
        },
        {
            "buffer" : 0,
            "byteLength" : 680,
            "byteOffset" : 2040
        },
        {
            "buffer" : 0,
            "byteLength" : 504,
            "byteOffset" : 2720
        },
        {
            "buffer" : 0,
            "byteLength" : 516,
            "byteOffset" : 3224
        },
        {
            "buffer" : 0,
            "byteLength" : 516,
            "byteOffset" : 3740
        },
        {
            "buffer" : 0,
            "byteLength" : 344,
            "byteOffset" : 4256
        },
        {
            "buffer" : 0,
            "byteLength" : 360,
            "byteOffset" : 4600
        }
    ],
    "buffers" : [
        {
            "byteLength" : 4960,
            "uri" : "MarshmelloStick.bin"
        }
    ]
}
