{
    "asset" : {
        "generator" : "Khronos glTF Blender I/O v3.3.32",
        "version" : "2.0"
    },
    "extensionsUsed" : [
        "KHR_materials_specular",
        "KHR_materials_ior"
    ],
    "scene" : 0,
    "scenes" : [
        {
            "name" : "Scene",
            "nodes" : [
                0,
                1,
                2,
                3,
                4
            ]
        }
    ],
    "nodes" : [
        {
            "mesh" : 0,
            "name" : "Retopo_Cylinder",
            "scale" : [
                0.2853734791278839,
                0.2853734791278839,
                0.2853734791278839
            ]
        },
        {
            "name" : "Empty",
            "translation" : [
                1.617936611175537,
                5.544188022613525,
                -0.2934684753417969
            ]
        },
        {
            "name" : "Empty.001",
            "translation" : [
                0.052600760012865067,
                2.4949777126312256,
                2.68996000289917
            ]
        },
        {
            "name" : "Empty.002",
            "translation" : [
                -2.2712717056274414,
                5.737722873687744,
                -2.0233101844787598
            ]
        },
        {
            "name" : "Empty.003",
            "translation" : [
                -2.590886116027832,
                3.3266632556915283,
                2.1505165100097656
            ]
        }
    ],
    "materials" : [
        {
            "doubleSided" : true,
            "extensions" : {
                "KHR_materials_specular" : {
                    "specularColorFactor" : [
                        1.1670067089239275,
                        1.1670067089239275,
                        1.1670067089239275
                    ]
                },
                "KHR_materials_ior" : {
                    "ior" : 1.4500000476837158
                }
            },
            "name" : "plant_02_moontree_stamm.002",
            "pbrMetallicRoughness" : {
                "baseColorFactor" : [
                    0.11493479460477829,
                    0.01771591044962406,
                    0.014747781679034233,
                    1
                ],
                "metallicFactor" : 0
            }
        }
    ],
    "meshes" : [
        {
            "name" : "Retopo_Cylinder_sm_1.001",
            "primitives" : [
                {
                    "attributes" : {
                        "POSITION" : 0,
                        "NORMAL" : 1
                    },
                    "indices" : 2,
                    "material" : 0
                }
            ]
        }
    ],
    "accessors" : [
        {
            "bufferView" : 0,
            "componentType" : 5126,
            "count" : 1888,
            "max" : [
                11.582134246826172,
                38.535118103027344,
                9.67833423614502
            ],
            "min" : [
                -14.58757209777832,
                -0.014321173541247845,
                -7.311742782592773
            ],
            "type" : "VEC3"
        },
        {
            "bufferView" : 1,
            "componentType" : 5126,
            "count" : 1888,
            "type" : "VEC3"
        },
        {
            "bufferView" : 2,
            "componentType" : 5123,
            "count" : 11304,
            "type" : "SCALAR"
        }
    ],
    "bufferViews" : [
        {
            "buffer" : 0,
            "byteLength" : 22656,
            "byteOffset" : 0,
            "target" : 34962
        },
        {
            "buffer" : 0,
            "byteLength" : 22656,
            "byteOffset" : 22656,
            "target" : 34962
        },
        {
            "buffer" : 0,
            "byteLength" : 22608,
            "byteOffset" : 45312,
            "target" : 34963
        }
    ],
    "buffers" : [
        {
            "byteLength" : 67920,
            "uri" : "MoonTreeState01.bin"
        }
    ]
}
