{
    "asset" : {
        "generator" : "Khronos glTF Blender I/O v3.3.32",
        "version" : "2.0"
    },
    "extensionsUsed" : [
        "KHR_materials_specular",
        "KHR_materials_ior"
    ],
    "scene" : 0,
    "scenes" : [
        {
            "name" : "Scene",
            "nodes" : [
                0,
                1,
                2,
                3,
                4,
                5
            ]
        }
    ],
    "nodes" : [
        {
            "mesh" : 0,
            "name" : "Moon",
            "scale" : [
                0.2853734791278839,
                0.2853734791278839,
                0.2853734791278839
            ],
            "translation" : [
                -1.7813072204589844,
                6.432212829589844,
                6.2318878173828125
            ]
        },
        {
            "name" : "Empty",
            "translation" : [
                1.5238995552062988,
                4.001075267791748,
                1.3110456466674805
            ]
        },
        {
            "name" : "Empty.001",
            "translation" : [
                0.07741117477416992,
                3.219745397567749,
                3.4352731704711914
            ]
        },
        {
            "name" : "Empty.002",
            "translation" : [
                2.069295644760132,
                3.8809518814086914,
                -2.6810741424560547
            ]
        },
        {
            "name" : "Empty.003",
            "translation" : [
                -3.322342872619629,
                4.307215213775635,
                2.647026538848877
            ]
        },
        {
            "mesh" : 1,
            "name" : "Retopo_Cylinder.001",
            "scale" : [
                0.2853734791278839,
                0.2853734791278839,
                0.2853734791278839
            ]
        }
    ],
    "materials" : [
        {
            "doubleSided" : true,
            "emissiveFactor" : [
                0.4292253851890564,
                0.4292253851890564,
                0.4292253851890564
            ],
            "name" : "plant_moontree_moonfruit_material",
            "pbrMetallicRoughness" : {
                "baseColorFactor" : [
                    0,
                    0,
                    0,
                    1
                ]
            }
        },
        {
            "doubleSided" : true,
            "extensions" : {
                "KHR_materials_specular" : {
                    "specularColorFactor" : [
                        1.1670067089239275,
                        1.1670067089239275,
                        1.1670067089239275
                    ]
                },
                "KHR_materials_ior" : {
                    "ior" : 1.4500000476837158
                }
            },
            "name" : "plant_02_moontree_stamm",
            "pbrMetallicRoughness" : {
                "baseColorFactor" : [
                    0.11493479460477829,
                    0.01771591044962406,
                    0.014747781679034233,
                    1
                ],
                "metallicFactor" : 0
            }
        }
    ],
    "meshes" : [
        {
            "name" : "Retopo_Cylinder_sm_6",
            "primitives" : [
                {
                    "attributes" : {
                        "POSITION" : 0,
                        "NORMAL" : 1
                    },
                    "indices" : 2,
                    "material" : 0
                }
            ]
        },
        {
            "name" : "Retopo_Cylinder.001_sm_8",
            "primitives" : [
                {
                    "attributes" : {
                        "POSITION" : 3,
                        "NORMAL" : 4
                    },
                    "indices" : 5,
                    "material" : 1
                }
            ]
        }
    ],
    "accessors" : [
        {
            "bufferView" : 0,
            "componentType" : 5126,
            "count" : 1564,
            "max" : [
                6.833632946014404,
                16.99565887451172,
                7.722580909729004
            ],
            "min" : [
                -7.47851037979126,
                -12.054603576660156,
                -12.500511169433594
            ],
            "type" : "VEC3"
        },
        {
            "bufferView" : 1,
            "componentType" : 5126,
            "count" : 1564,
            "type" : "VEC3"
        },
        {
            "bufferView" : 2,
            "componentType" : 5123,
            "count" : 9372,
            "type" : "SCALAR"
        },
        {
            "bufferView" : 3,
            "componentType" : 5126,
            "count" : 1886,
            "max" : [
                13.4019136428833,
                45.377079010009766,
                31.02735710144043
            ],
            "min" : [
                -19.050052642822266,
                0.056045208126306534,
                -9.503060340881348
            ],
            "type" : "VEC3"
        },
        {
            "bufferView" : 4,
            "componentType" : 5126,
            "count" : 1886,
            "type" : "VEC3"
        },
        {
            "bufferView" : 5,
            "componentType" : 5123,
            "count" : 11298,
            "type" : "SCALAR"
        }
    ],
    "bufferViews" : [
        {
            "buffer" : 0,
            "byteLength" : 18768,
            "byteOffset" : 0,
            "target" : 34962
        },
        {
            "buffer" : 0,
            "byteLength" : 18768,
            "byteOffset" : 18768,
            "target" : 34962
        },
        {
            "buffer" : 0,
            "byteLength" : 18744,
            "byteOffset" : 37536,
            "target" : 34963
        },
        {
            "buffer" : 0,
            "byteLength" : 22632,
            "byteOffset" : 56280,
            "target" : 34962
        },
        {
            "buffer" : 0,
            "byteLength" : 22632,
            "byteOffset" : 78912,
            "target" : 34962
        },
        {
            "buffer" : 0,
            "byteLength" : 22596,
            "byteOffset" : 101544,
            "target" : 34963
        }
    ],
    "buffers" : [
        {
            "byteLength" : 124140,
            "uri" : "MoonTreeState03.bin"
        }
    ]
}
