{
    "asset" : {
        "generator" : "Khronos glTF Blender I/O v1.8.19",
        "version" : "2.0"
    },
    "scene" : 0,
    "scenes" : [
        {
            "name" : "Scene",
            "nodes" : [
                0
            ]
        }
    ],
    "nodes" : [
        {
            "mesh" : 0,
            "name" : "Pickaxe"
        }
    ],
    "materials" : [
        {
            "doubleSided" : true,
            "name" : "SchovelMetal",
            "pbrMetallicRoughness" : {
                "baseColorFactor" : [
                    0.08353134244680405,
                    0.08353134244680405,
                    0.08353134244680405,
                    1
                ],
                "metallicFactor" : 0,
                "roughnessFactor" : 0.15354329347610474
            }
        },
        {
            "doubleSided" : true,
            "name" : "ShovelBrown",
            "pbrMetallicRoughness" : {
                "baseColorFactor" : [
                    0.3931143581867218,
                    0.16078372299671173,
                    0.11262880265712738,
                    1
                ],
                "metallicFactor" : 0,
                "roughnessFactor" : 0.699999988079071
            }
        }
    ],
    "meshes" : [
        {
            "name" : "Cube.002",
            "primitives" : [
                {
                    "attributes" : {
                        "POSITION" : 0,
                        "NORMAL" : 1,
                        "TEXCOORD_0" : 2
                    },
                    "indices" : 3,
                    "material" : 0
                },
                {
                    "attributes" : {
                        "POSITION" : 4,
                        "NORMAL" : 5,
                        "TEXCOORD_0" : 6
                    },
                    "indices" : 7,
                    "material" : 1
                }
            ]
        }
    ],
    "accessors" : [
        {
            "bufferView" : 0,
            "componentType" : 5126,
            "count" : 161,
            "max" : [
                0.25537723302841187,
                1.587694525718689,
                0.09308866411447525
            ],
            "min" : [
                -0.27147698402404785,
                1.3709874153137207,
                -0.09308866411447525
            ],
            "type" : "VEC3"
        },
        {
            "bufferView" : 1,
            "componentType" : 5126,
            "count" : 161,
            "type" : "VEC3"
        },
        {
            "bufferView" : 2,
            "componentType" : 5126,
            "count" : 161,
            "type" : "VEC2"
        },
        {
            "bufferView" : 3,
            "componentType" : 5123,
            "count" : 318,
            "type" : "SCALAR"
        },
        {
            "bufferView" : 4,
            "componentType" : 5126,
            "count" : 26,
            "max" : [
                0.033507607877254486,
                1.3709874153137207,
                0.033507589250802994
            ],
            "min" : [
                -0.033507607877254486,
                0,
                -0.03350762650370598
            ],
            "type" : "VEC3"
        },
        {
            "bufferView" : 5,
            "componentType" : 5126,
            "count" : 26,
            "type" : "VEC3"
        },
        {
            "bufferView" : 6,
            "componentType" : 5126,
            "count" : 26,
            "type" : "VEC2"
        },
        {
            "bufferView" : 7,
            "componentType" : 5123,
            "count" : 66,
            "type" : "SCALAR"
        }
    ],
    "bufferViews" : [
        {
            "buffer" : 0,
            "byteLength" : 1932,
            "byteOffset" : 0
        },
        {
            "buffer" : 0,
            "byteLength" : 1932,
            "byteOffset" : 1932
        },
        {
            "buffer" : 0,
            "byteLength" : 1288,
            "byteOffset" : 3864
        },
        {
            "buffer" : 0,
            "byteLength" : 636,
            "byteOffset" : 5152
        },
        {
            "buffer" : 0,
            "byteLength" : 312,
            "byteOffset" : 5788
        },
        {
            "buffer" : 0,
            "byteLength" : 312,
            "byteOffset" : 6100
        },
        {
            "buffer" : 0,
            "byteLength" : 208,
            "byteOffset" : 6412
        },
        {
            "buffer" : 0,
            "byteLength" : 132,
            "byteOffset" : 6620
        }
    ],
    "buffers" : [
        {
            "byteLength" : 6752,
            "uri" : "Pickaxe.bin"
        }
    ]
}
