{
    "asset" : {
        "generator" : "Khronos glTF Blender I/O v1.8.19",
        "version" : "2.0"
    },
    "scene" : 0,
    "scenes" : [
        {
            "name" : "Scene",
            "nodes" : [
                0
            ]
        }
    ],
    "nodes" : [
        {
            "mesh" : 0,
            "name" : "PillarBig"
        }
    ],
    "materials" : [
        {
            "doubleSided" : true,
            "name" : "PillarBaseMaterial",
            "pbrMetallicRoughness" : {
                "baseColorFactor" : [
                    0.8000000715255737,
                    0.5622997283935547,
                    0.293024480342865,
                    1
                ],
                "metallicFactor" : 0,
                "roughnessFactor" : 0.4000000059604645
            }
        }
    ],
    "meshes" : [
        {
            "name" : "Cube.001",
            "primitives" : [
                {
                    "attributes" : {
                        "POSITION" : 0,
                        "NORMAL" : 1,
                        "TEXCOORD_0" : 2
                    },
                    "indices" : 3,
                    "material" : 0
                }
            ]
        }
    ],
    "accessors" : [
        {
            "bufferView" : 0,
            "componentType" : 5126,
            "count" : 181,
            "max" : [
                0.29908281564712524,
                3,
                0.29908281564712524
            ],
            "min" : [
                -0.29908281564712524,
                0,
                -0.29908281564712524
            ],
            "type" : "VEC3"
        },
        {
            "bufferView" : 1,
            "componentType" : 5126,
            "count" : 181,
            "type" : "VEC3"
        },
        {
            "bufferView" : 2,
            "componentType" : 5126,
            "count" : 181,
            "type" : "VEC2"
        },
        {
            "bufferView" : 3,
            "componentType" : 5123,
            "count" : 516,
            "type" : "SCALAR"
        }
    ],
    "bufferViews" : [
        {
            "buffer" : 0,
            "byteLength" : 2172,
            "byteOffset" : 0
        },
        {
            "buffer" : 0,
            "byteLength" : 2172,
            "byteOffset" : 2172
        },
        {
            "buffer" : 0,
            "byteLength" : 1448,
            "byteOffset" : 4344
        },
        {
            "buffer" : 0,
            "byteLength" : 1032,
            "byteOffset" : 5792
        }
    ],
    "buffers" : [
        {
            "byteLength" : 6824,
            "uri" : "PillarBig.bin"
        }
    ]
}
