{
    "asset" : {
        "generator" : "Khronos glTF Blender I/O v3.3.32",
        "version" : "2.0"
    },
    "extensionsUsed" : [
        "KHR_materials_specular",
        "KHR_materials_ior"
    ],
    "scene" : 0,
    "scenes" : [
        {
            "name" : "Scene",
            "nodes" : [
                0,
                1,
                2,
                3,
                4,
                5
            ]
        }
    ],
    "nodes" : [
        {
            "mesh" : 0,
            "name" : "Retopo_Cylinder",
            "scale" : [
                0.2853734791278839,
                0.2853734791278839,
                0.2853734791278839
            ]
        },
        {
            "name" : "Empty",
            "translation" : [
                2.0614681243896484,
                2.8496339321136475,
                0.3650972843170166
            ]
        },
        {
            "name" : "Empty.001",
            "translation" : [
                0.10989093780517578,
                1.9356861114501953,
                1.718677043914795
            ]
        },
        {
            "name" : "Empty.002",
            "translation" : [
                -1.1628327369689941,
                3.2347090244293213,
                -0.3981947898864746
            ]
        },
        {
            "name" : "Empty.003",
            "translation" : [
                1.2492268085479736,
                1.960253357887268,
                -1.2288365364074707
            ]
        },
        {
            "mesh" : 0,
            "name" : "Retopo_Cylinder.001",
            "scale" : [
                0.2853734791278839,
                0.2853734791278839,
                0.2853734791278839
            ]
        }
    ],
    "materials" : [
        {
            "doubleSided" : true,
            "extensions" : {
                "KHR_materials_specular" : {
                    "specularColorFactor" : [
                        1.1670067089239275,
                        1.1670067089239275,
                        1.1670067089239275
                    ]
                },
                "KHR_materials_ior" : {
                    "ior" : 1.4500000476837158
                }
            },
            "name" : "plant_02_moontree_stamm",
            "pbrMetallicRoughness" : {
                "baseColorFactor" : [
                    0.11493479460477829,
                    0.01771591044962406,
                    0.014747781679034233,
                    1
                ],
                "metallicFactor" : 0
            }
        }
    ],
    "meshes" : [
        {
            "name" : "Retopo_Cylinder_sm_0",
            "primitives" : [
                {
                    "attributes" : {
                        "POSITION" : 0,
                        "NORMAL" : 1
                    },
                    "indices" : 2,
                    "material" : 0
                }
            ]
        }
    ],
    "accessors" : [
        {
            "bufferView" : 0,
            "componentType" : 5126,
            "count" : 6290,
            "max" : [
                7.2993011474609375,
                19.30443572998047,
                6.296411991119385
            ],
            "min" : [
                -6.187629699707031,
                -0.044830322265625,
                -4.350156784057617
            ],
            "type" : "VEC3"
        },
        {
            "bufferView" : 1,
            "componentType" : 5126,
            "count" : 6290,
            "type" : "VEC3"
        },
        {
            "bufferView" : 2,
            "componentType" : 5123,
            "count" : 37716,
            "type" : "SCALAR"
        }
    ],
    "bufferViews" : [
        {
            "buffer" : 0,
            "byteLength" : 75480,
            "byteOffset" : 0,
            "target" : 34962
        },
        {
            "buffer" : 0,
            "byteLength" : 75480,
            "byteOffset" : 75480,
            "target" : 34962
        },
        {
            "buffer" : 0,
            "byteLength" : 75432,
            "byteOffset" : 150960,
            "target" : 34963
        }
    ],
    "buffers" : [
        {
            "byteLength" : 226392,
            "uri" : "Plant_01_moontree _state00.bin"
        }
    ]
}
