{
    "asset" : {
        "generator" : "Khronos glTF Blender I/O v3.3.32",
        "version" : "2.0"
    },
    "extensionsUsed" : [
        "KHR_materials_emissive_strength",
        "KHR_materials_specular",
        "KHR_materials_ior"
    ],
    "scene" : 0,
    "scenes" : [
        {
            "name" : "Scene",
            "nodes" : [
                0,
                1,
                2,
                3,
                4,
                5
            ]
        }
    ],
    "nodes" : [
        {
            "mesh" : 0,
            "name" : "Cylinder.002",
            "translation" : [
                0.13973277807235718,
                27.556177139282227,
                3.8443431854248047
            ]
        },
        {
            "mesh" : 1,
            "name" : "Cylinder.001",
            "translation" : [
                0.5832326412200928,
                27.102426528930664,
                2.5408735275268555
            ]
        },
        {
            "mesh" : 2,
            "name" : "Cylinder.003",
            "translation" : [
                -0.06407597661018372,
                0.4316987991333008,
                0.6927032470703125
            ]
        },
        {
            "mesh" : 3,
            "name" : "NurbsPath.001",
            "rotation" : [
                -0.839514434337616,
                -0.4614076018333435,
                0.25143811106681824,
                0.13819339871406555
            ],
            "scale" : [
                4.084711074829102,
                4.084711074829102,
                4.084711074829102
            ],
            "translation" : [
                -0.3515958786010742,
                0.13259051740169525,
                -0.7275166511535645
            ]
        },
        {
            "name" : "Empty",
            "translation" : [
                8.130511283874512,
                7.208408355712891,
                -5.6501078605651855
            ]
        },
        {
            "name" : "Empty.001",
            "translation" : [
                -9.847604751586914,
                7.313819885253906,
                -0.5933353900909424
            ]
        }
    ],
    "materials" : [
        {
            "doubleSided" : true,
            "emissiveFactor" : [
                1,
                0.00227346527390182,
                0
            ],
            "extensions" : {
                "KHR_materials_emissive_strength" : {
                    "emissiveStrength" : 16.000003814697266
                }
            },
            "name" : "planet_textur",
            "pbrMetallicRoughness" : {
                "baseColorFactor" : [
                    0,
                    0,
                    0,
                    1
                ]
            }
        },
        {
            "doubleSided" : true,
            "name" : "schale_material",
            "pbrMetallicRoughness" : {
                "baseColorFactor" : [
                    0.054967835545539856,
                    0.0006332757766358554,
                    0,
                    1
                ],
                "metallicFactor" : 0.8503937125205994
            }
        },
        {
            "doubleSided" : true,
            "name" : "ring.001",
            "pbrMetallicRoughness" : {
                "baseColorFactor" : [
                    0.8000000715255737,
                    0.7901082038879395,
                    0,
                    1
                ],
                "metallicFactor" : 0.9370079040527344,
                "roughnessFactor" : 0.15354329347610474
            }
        },
        {
            "alphaCutoff" : 0.5,
            "alphaMode" : "MASK",
            "doubleSided" : true,
            "name" : "univers texture",
            "pbrMetallicRoughness" : {
                "baseColorTexture" : {
                    "index" : 0
                },
                "metallicFactor" : 0,
                "roughnessFactor" : 0.5
            }
        },
        {
            "doubleSided" : true,
            "extensions" : {
                "KHR_materials_specular" : {
                    "specularColorFactor" : [
                        1.7458420388116984,
                        1.7458420388116984,
                        1.7458420388116984
                    ]
                },
                "KHR_materials_ior" : {
                    "ior" : 1.4500000476837158
                }
            },
            "name" : "Material",
            "pbrMetallicRoughness" : {
                "baseColorFactor" : [
                    0.6408841609954834,
                    0.5340227484703064,
                    0.8549764752388,
                    1
                ],
                "metallicFactor" : 0.9133858680725098
            }
        }
    ],
    "meshes" : [
        {
            "name" : "Cylinder.002_sm_19",
            "primitives" : [
                {
                    "attributes" : {
                        "POSITION" : 0,
                        "NORMAL" : 1,
                        "TEXCOORD_0" : 2
                    },
                    "indices" : 3,
                    "material" : 0
                },
                {
                    "attributes" : {
                        "POSITION" : 4,
                        "NORMAL" : 5,
                        "TEXCOORD_0" : 6
                    },
                    "indices" : 7,
                    "material" : 1
                },
                {
                    "attributes" : {
                        "POSITION" : 8,
                        "NORMAL" : 9,
                        "TEXCOORD_0" : 10
                    },
                    "indices" : 11,
                    "material" : 2
                }
            ]
        },
        {
            "name" : "Cylinder.002_sm_19.001",
            "primitives" : [
                {
                    "attributes" : {
                        "POSITION" : 12,
                        "NORMAL" : 13,
                        "TEXCOORD_0" : 14
                    },
                    "indices" : 15,
                    "material" : 3
                }
            ]
        },
        {
            "name" : "Cylinder.002_sm_19.002",
            "primitives" : [
                {
                    "attributes" : {
                        "POSITION" : 16,
                        "NORMAL" : 17,
                        "TEXCOORD_0" : 18
                    },
                    "indices" : 19,
                    "material" : 4
                }
            ]
        },
        {
            "name" : "NurbsPath.001",
            "primitives" : [
                {
                    "attributes" : {
                        "POSITION" : 20,
                        "NORMAL" : 21,
                        "TEXCOORD_0" : 22
                    },
                    "indices" : 23
                }
            ]
        }
    ],
    "textures" : [
        {
            "sampler" : 0,
            "source" : 0
        }
    ],
    "images" : [
        {
            "mimeType" : "image/png",
            "name" : "jet",
            "uri" : "jet.png"
        }
    ],
    "accessors" : [
        {
            "bufferView" : 0,
            "componentType" : 5126,
            "count" : 168,
            "max" : [
                2.2915964126586914,
                2.0272979736328125,
                1.6361846923828125
            ],
            "min" : [
                -1.7805548906326294,
                -2.0450057983398438,
                -2.4049835205078125
            ],
            "type" : "VEC3"
        },
        {
            "bufferView" : 1,
            "componentType" : 5126,
            "count" : 168,
            "type" : "VEC3"
        },
        {
            "bufferView" : 2,
            "componentType" : 5126,
            "count" : 168,
            "type" : "VEC2"
        },
        {
            "bufferView" : 3,
            "componentType" : 5123,
            "count" : 768,
            "type" : "SCALAR"
        },
        {
            "bufferView" : 4,
            "componentType" : 5126,
            "count" : 336,
            "max" : [
                9.100187301635742,
                10.559732437133789,
                4.78026008605957
            ],
            "min" : [
                -9.931855201721191,
                -10.532930374145508,
                -3.9530868530273438
            ],
            "type" : "VEC3"
        },
        {
            "bufferView" : 5,
            "componentType" : 5126,
            "count" : 336,
            "type" : "VEC3"
        },
        {
            "bufferView" : 6,
            "componentType" : 5126,
            "count" : 336,
            "type" : "VEC2"
        },
        {
            "bufferView" : 7,
            "componentType" : 5123,
            "count" : 1536,
            "type" : "SCALAR"
        },
        {
            "bufferView" : 8,
            "componentType" : 5126,
            "count" : 223,
            "max" : [
                3.8984363079071045,
                2.9721546173095703,
                4.0462141036987305
            ],
            "min" : [
                -3.110492706298828,
                -2.7780933380126953,
                -4.949543476104736
            ],
            "type" : "VEC3"
        },
        {
            "bufferView" : 9,
            "componentType" : 5126,
            "count" : 223,
            "type" : "VEC3"
        },
        {
            "bufferView" : 10,
            "componentType" : 5126,
            "count" : 223,
            "type" : "VEC2"
        },
        {
            "bufferView" : 11,
            "componentType" : 5123,
            "count" : 1296,
            "type" : "SCALAR"
        },
        {
            "bufferView" : 12,
            "componentType" : 5126,
            "count" : 1028,
            "max" : [
                27.9725284576416,
                17.3300724029541,
                8.984823226928711
            ],
            "min" : [
                -26.653514862060547,
                -17.31526756286621,
                -8.99820613861084
            ],
            "type" : "VEC3"
        },
        {
            "bufferView" : 13,
            "componentType" : 5126,
            "count" : 1028,
            "type" : "VEC3"
        },
        {
            "bufferView" : 14,
            "componentType" : 5126,
            "count" : 1028,
            "type" : "VEC2"
        },
        {
            "bufferView" : 15,
            "componentType" : 5123,
            "count" : 5760,
            "type" : "SCALAR"
        },
        {
            "bufferView" : 16,
            "componentType" : 5126,
            "count" : 823,
            "max" : [
                5.493086814880371,
                22.530094146728516,
                7.31585168838501
            ],
            "min" : [
                -5.331755638122559,
                -0.9702625274658203,
                -3.674530506134033
            ],
            "type" : "VEC3"
        },
        {
            "bufferView" : 17,
            "componentType" : 5126,
            "count" : 823,
            "type" : "VEC3"
        },
        {
            "bufferView" : 18,
            "componentType" : 5126,
            "count" : 823,
            "type" : "VEC2"
        },
        {
            "bufferView" : 19,
            "componentType" : 5123,
            "count" : 4410,
            "type" : "SCALAR"
        },
        {
            "bufferView" : 20,
            "componentType" : 5126,
            "count" : 206,
            "max" : [
                2.8118643760681152,
                1.1138333082199097,
                1.2984029054641724
            ],
            "min" : [
                -0.23598909378051758,
                -2.6607861518859863,
                -0.2683858871459961
            ],
            "type" : "VEC3"
        },
        {
            "bufferView" : 21,
            "componentType" : 5126,
            "count" : 206,
            "type" : "VEC3"
        },
        {
            "bufferView" : 22,
            "componentType" : 5126,
            "count" : 206,
            "type" : "VEC2"
        },
        {
            "bufferView" : 23,
            "componentType" : 5123,
            "count" : 1176,
            "type" : "SCALAR"
        }
    ],
    "bufferViews" : [
        {
            "buffer" : 0,
            "byteLength" : 2016,
            "byteOffset" : 0,
            "target" : 34962
        },
        {
            "buffer" : 0,
            "byteLength" : 2016,
            "byteOffset" : 2016,
            "target" : 34962
        },
        {
            "buffer" : 0,
            "byteLength" : 1344,
            "byteOffset" : 4032,
            "target" : 34962
        },
        {
            "buffer" : 0,
            "byteLength" : 1536,
            "byteOffset" : 5376,
            "target" : 34963
        },
        {
            "buffer" : 0,
            "byteLength" : 4032,
            "byteOffset" : 6912,
            "target" : 34962
        },
        {
            "buffer" : 0,
            "byteLength" : 4032,
            "byteOffset" : 10944,
            "target" : 34962
        },
        {
            "buffer" : 0,
            "byteLength" : 2688,
            "byteOffset" : 14976,
            "target" : 34962
        },
        {
            "buffer" : 0,
            "byteLength" : 3072,
            "byteOffset" : 17664,
            "target" : 34963
        },
        {
            "buffer" : 0,
            "byteLength" : 2676,
            "byteOffset" : 20736,
            "target" : 34962
        },
        {
            "buffer" : 0,
            "byteLength" : 2676,
            "byteOffset" : 23412,
            "target" : 34962
        },
        {
            "buffer" : 0,
            "byteLength" : 1784,
            "byteOffset" : 26088,
            "target" : 34962
        },
        {
            "buffer" : 0,
            "byteLength" : 2592,
            "byteOffset" : 27872,
            "target" : 34963
        },
        {
            "buffer" : 0,
            "byteLength" : 12336,
            "byteOffset" : 30464,
            "target" : 34962
        },
        {
            "buffer" : 0,
            "byteLength" : 12336,
            "byteOffset" : 42800,
            "target" : 34962
        },
        {
            "buffer" : 0,
            "byteLength" : 8224,
            "byteOffset" : 55136,
            "target" : 34962
        },
        {
            "buffer" : 0,
            "byteLength" : 11520,
            "byteOffset" : 63360,
            "target" : 34963
        },
        {
            "buffer" : 0,
            "byteLength" : 9876,
            "byteOffset" : 74880,
            "target" : 34962
        },
        {
            "buffer" : 0,
            "byteLength" : 9876,
            "byteOffset" : 84756,
            "target" : 34962
        },
        {
            "buffer" : 0,
            "byteLength" : 6584,
            "byteOffset" : 94632,
            "target" : 34962
        },
        {
            "buffer" : 0,
            "byteLength" : 8820,
            "byteOffset" : 101216,
            "target" : 34963
        },
        {
            "buffer" : 0,
            "byteLength" : 2472,
            "byteOffset" : 110036,
            "target" : 34962
        },
        {
            "buffer" : 0,
            "byteLength" : 2472,
            "byteOffset" : 112508,
            "target" : 34962
        },
        {
            "buffer" : 0,
            "byteLength" : 1648,
            "byteOffset" : 114980,
            "target" : 34962
        },
        {
            "buffer" : 0,
            "byteLength" : 2352,
            "byteOffset" : 116628,
            "target" : 34963
        }
    ],
    "samplers" : [
        {
            "magFilter" : 9729,
            "minFilter" : 9987
        }
    ],
    "buffers" : [
        {
            "byteLength" : 118980,
            "uri" : "plant_03_universsun_state02.bin"
        }
    ]
}
