{
    "asset" : {
        "generator" : "Khronos glTF Blender I/O v3.3.32",
        "version" : "2.0"
    },
    "scene" : 0,
    "scenes" : [
        {
            "name" : "Scene",
            "nodes" : [
                0,
                1,
                2,
                3,
                4,
                5,
                7
            ]
        }
    ],
    "nodes" : [
        {
            "name" : "TurnPoint",
            "rotation" : [
                0,
                0.3031618893146515,
                0,
                0.9529391527175903
            ],
            "translation" : [
                0,
                -0.0849275290966034,
                0
            ]
        },
        {
            "name" : "Empty",
            "translation" : [
                0.11870240420103073,
                0.16275933384895325,
                -0.17545738816261292
            ]
        },
        {
            "name" : "Empty.001",
            "translation" : [
                -0.2284533679485321,
                0.16275933384895325,
                -0.0915939062833786
            ]
        },
        {
            "name" : "Empty.002",
            "translation" : [
                -0.12703707814216614,
                0.16275933384895325,
                0.1814499944448471
            ]
        },
        {
            "name" : "Empty.003",
            "translation" : [
                0.1694105565547943,
                0.16275933384895325,
                0.1814499944448471
            ]
        },
        {
            "mesh" : 0,
            "name" : "Pino4",
            "translation" : [
                0,
                -0.0849275290966034,
                0
            ]
        },
        {
            "mesh" : 1,
            "name" : "Flower.004",
            "translation" : [
                0,
                -0.04979848861694336,
                0
            ]
        },
        {
            "children" : [
                6
            ],
            "mesh" : 2,
            "name" : "FlowerBase.003",
            "translation" : [
                0,
                1.3306083679199219,
                0
            ]
        }
    ],
    "materials" : [
        {
            "doubleSided" : true,
            "name" : "PinoBark",
            "pbrMetallicRoughness" : {
                "baseColorFactor" : [
                    0.09083760529756546,
                    0.08889482915401459,
                    0.02242630533874035,
                    1
                ],
                "metallicFactor" : 0,
                "roughnessFactor" : 0.8471502661705017
            }
        },
        {
            "doubleSided" : true,
            "name" : "PinoFlowerPink",
            "pbrMetallicRoughness" : {
                "baseColorFactor" : [
                    0.8000000715255737,
                    0.016993418335914612,
                    0.12267304211854935,
                    1
                ],
                "metallicFactor" : 0,
                "roughnessFactor" : 0.5
            }
        },
        {
            "doubleSided" : true,
            "name" : "PinoPlantGreen",
            "pbrMetallicRoughness" : {
                "baseColorFactor" : [
                    0.015297474339604378,
                    0.052217476069927216,
                    0,
                    1
                ],
                "metallicFactor" : 0
            }
        }
    ],
    "meshes" : [
        {
            "name" : "Cylinder.007",
            "primitives" : [
                {
                    "attributes" : {
                        "POSITION" : 0,
                        "NORMAL" : 1,
                        "TEXCOORD_0" : 2
                    },
                    "indices" : 3,
                    "material" : 0
                }
            ]
        },
        {
            "name" : "Cube.006",
            "primitives" : [
                {
                    "attributes" : {
                        "POSITION" : 4,
                        "NORMAL" : 5
                    },
                    "indices" : 6,
                    "material" : 1
                }
            ]
        },
        {
            "name" : "Cylinder.008",
            "primitives" : [
                {
                    "attributes" : {
                        "POSITION" : 7,
                        "NORMAL" : 8,
                        "TEXCOORD_0" : 9
                    },
                    "indices" : 10,
                    "material" : 2
                }
            ]
        }
    ],
    "accessors" : [
        {
            "bufferView" : 0,
            "componentType" : 5126,
            "count" : 2147,
            "max" : [
                1.0397093296051025,
                1.231379747390747,
                0.9597446918487549
            ],
            "min" : [
                -0.9919646978378296,
                -0.06887364387512207,
                -1.0019570589065552
            ],
            "type" : "VEC3"
        },
        {
            "bufferView" : 1,
            "componentType" : 5126,
            "count" : 2147,
            "type" : "VEC3"
        },
        {
            "bufferView" : 2,
            "componentType" : 5126,
            "count" : 2147,
            "type" : "VEC2"
        },
        {
            "bufferView" : 3,
            "componentType" : 5123,
            "count" : 11202,
            "type" : "SCALAR"
        },
        {
            "bufferView" : 4,
            "componentType" : 5126,
            "count" : 3330,
            "max" : [
                0.4713559150695801,
                0.19438761472702026,
                0.46492132544517517
            ],
            "min" : [
                -0.4545596241950989,
                -0.004985652398318052,
                -0.44050031900405884
            ],
            "type" : "VEC3"
        },
        {
            "bufferView" : 5,
            "componentType" : 5126,
            "count" : 3330,
            "type" : "VEC3"
        },
        {
            "bufferView" : 6,
            "componentType" : 5123,
            "count" : 17100,
            "type" : "SCALAR"
        },
        {
            "bufferView" : 7,
            "componentType" : 5126,
            "count" : 110,
            "max" : [
                0.10574240237474442,
                0.024246152490377426,
                0.11118413507938385
            ],
            "min" : [
                -0.10574240237474442,
                -0.08608172088861465,
                -0.11118412017822266
            ],
            "type" : "VEC3"
        },
        {
            "bufferView" : 8,
            "componentType" : 5126,
            "count" : 110,
            "type" : "VEC3"
        },
        {
            "bufferView" : 9,
            "componentType" : 5126,
            "count" : 110,
            "type" : "VEC2"
        },
        {
            "bufferView" : 10,
            "componentType" : 5123,
            "count" : 264,
            "type" : "SCALAR"
        }
    ],
    "bufferViews" : [
        {
            "buffer" : 0,
            "byteLength" : 25764,
            "byteOffset" : 0,
            "target" : 34962
        },
        {
            "buffer" : 0,
            "byteLength" : 25764,
            "byteOffset" : 25764,
            "target" : 34962
        },
        {
            "buffer" : 0,
            "byteLength" : 17176,
            "byteOffset" : 51528,
            "target" : 34962
        },
        {
            "buffer" : 0,
            "byteLength" : 22404,
            "byteOffset" : 68704,
            "target" : 34963
        },
        {
            "buffer" : 0,
            "byteLength" : 39960,
            "byteOffset" : 91108,
            "target" : 34962
        },
        {
            "buffer" : 0,
            "byteLength" : 39960,
            "byteOffset" : 131068,
            "target" : 34962
        },
        {
            "buffer" : 0,
            "byteLength" : 34200,
            "byteOffset" : 171028,
            "target" : 34963
        },
        {
            "buffer" : 0,
            "byteLength" : 1320,
            "byteOffset" : 205228,
            "target" : 34962
        },
        {
            "buffer" : 0,
            "byteLength" : 1320,
            "byteOffset" : 206548,
            "target" : 34962
        },
        {
            "buffer" : 0,
            "byteLength" : 880,
            "byteOffset" : 207868,
            "target" : 34962
        },
        {
            "buffer" : 0,
            "byteLength" : 528,
            "byteOffset" : 208748,
            "target" : 34963
        }
    ],
    "buffers" : [
        {
            "byteLength" : 209276,
            "uri" : "PlantPinoState03.bin"
        }
    ]
}
