{
    "asset" : {
        "generator" : "Khronos glTF Blender I/O v3.3.32",
        "version" : "2.0"
    },
    "scene" : 0,
    "scenes" : [
        {
            "name" : "Scene",
            "nodes" : [
                0,
                1,
                2,
                3
            ]
        }
    ],
    "nodes" : [
        {
            "name" : "Empty",
            "translation" : [
                -0.16389381885528564,
                0.6371244192123413,
                -0.46718835830688477
            ]
        },
        {
            "name" : "Empty.001",
            "translation" : [
                0.49900785088539124,
                0.6365110874176025,
                0.21631969511508942
            ]
        },
        {
            "name" : "Empty.002",
            "translation" : [
                -0.44135889410972595,
                0.6368289589881897,
                0.2592898905277252
            ]
        },
        {
            "mesh" : 0,
            "name" : "NurbsPath.002",
            "translation" : [
                0,
                0.027998900040984154,
                0
            ]
        }
    ],
    "animations" : [
        {
            "channels" : [
                {
                    "sampler" : 0,
                    "target" : {
                        "node" : 0,
                        "path" : "translation"
                    }
                },
                {
                    "sampler" : 1,
                    "target" : {
                        "node" : 0,
                        "path" : "rotation"
                    }
                },
                {
                    "sampler" : 2,
                    "target" : {
                        "node" : 0,
                        "path" : "scale"
                    }
                }
            ],
            "name" : "EmptyAction",
            "samplers" : [
                {
                    "input" : 12,
                    "interpolation" : "STEP",
                    "output" : 13
                },
                {
                    "input" : 12,
                    "interpolation" : "STEP",
                    "output" : 14
                },
                {
                    "input" : 12,
                    "interpolation" : "STEP",
                    "output" : 15
                }
            ]
        },
        {
            "channels" : [
                {
                    "sampler" : 0,
                    "target" : {
                        "node" : 1,
                        "path" : "translation"
                    }
                },
                {
                    "sampler" : 1,
                    "target" : {
                        "node" : 1,
                        "path" : "rotation"
                    }
                },
                {
                    "sampler" : 2,
                    "target" : {
                        "node" : 1,
                        "path" : "scale"
                    }
                }
            ],
            "name" : "Empty.001",
            "samplers" : [
                {
                    "input" : 16,
                    "interpolation" : "LINEAR",
                    "output" : 17
                },
                {
                    "input" : 16,
                    "interpolation" : "LINEAR",
                    "output" : 18
                },
                {
                    "input" : 16,
                    "interpolation" : "LINEAR",
                    "output" : 19
                }
            ]
        },
        {
            "channels" : [
                {
                    "sampler" : 0,
                    "target" : {
                        "node" : 2,
                        "path" : "translation"
                    }
                },
                {
                    "sampler" : 1,
                    "target" : {
                        "node" : 2,
                        "path" : "rotation"
                    }
                },
                {
                    "sampler" : 2,
                    "target" : {
                        "node" : 2,
                        "path" : "scale"
                    }
                }
            ],
            "name" : "Empty.002",
            "samplers" : [
                {
                    "input" : 16,
                    "interpolation" : "LINEAR",
                    "output" : 20
                },
                {
                    "input" : 16,
                    "interpolation" : "LINEAR",
                    "output" : 21
                },
                {
                    "input" : 16,
                    "interpolation" : "LINEAR",
                    "output" : 22
                }
            ]
        },
        {
            "channels" : [
                {
                    "sampler" : 0,
                    "target" : {
                        "node" : 3,
                        "path" : "translation"
                    }
                },
                {
                    "sampler" : 1,
                    "target" : {
                        "node" : 3,
                        "path" : "rotation"
                    }
                },
                {
                    "sampler" : 2,
                    "target" : {
                        "node" : 3,
                        "path" : "scale"
                    }
                }
            ],
            "name" : "NurbsPath.002Action",
            "samplers" : [
                {
                    "input" : 12,
                    "interpolation" : "STEP",
                    "output" : 23
                },
                {
                    "input" : 12,
                    "interpolation" : "STEP",
                    "output" : 24
                },
                {
                    "input" : 12,
                    "interpolation" : "STEP",
                    "output" : 25
                }
            ]
        }
    ],
    "materials" : [
        {
            "doubleSided" : true,
            "emissiveFactor" : [
                0.12370995432138443,
                0.00020415592007339,
                0
            ],
            "name" : "plant_01_rank",
            "pbrMetallicRoughness" : {
                "baseColorFactor" : [
                    0,
                    0,
                    0,
                    1
                ]
            }
        },
        {
            "doubleSided" : true,
            "emissiveFactor" : [
                1,
                0,
                0.25575751066207886
            ],
            "name" : "Material.004",
            "pbrMetallicRoughness" : {
                "baseColorFactor" : [
                    0,
                    0,
                    0,
                    1
                ]
            }
        },
        {
            "doubleSided" : true,
            "emissiveFactor" : [
                0.04026598483324051,
                1,
                0
            ],
            "name" : "Material.006",
            "pbrMetallicRoughness" : {
                "baseColorFactor" : [
                    0,
                    0,
                    0,
                    1
                ]
            }
        }
    ],
    "meshes" : [
        {
            "name" : "NurbsPath.002",
            "primitives" : [
                {
                    "attributes" : {
                        "POSITION" : 0,
                        "NORMAL" : 1,
                        "TEXCOORD_0" : 2
                    },
                    "indices" : 3,
                    "material" : 0
                },
                {
                    "attributes" : {
                        "POSITION" : 4,
                        "NORMAL" : 5,
                        "TEXCOORD_0" : 6
                    },
                    "indices" : 7,
                    "material" : 1
                },
                {
                    "attributes" : {
                        "POSITION" : 8,
                        "NORMAL" : 9,
                        "TEXCOORD_0" : 10
                    },
                    "indices" : 11,
                    "material" : 2
                }
            ]
        }
    ],
    "accessors" : [
        {
            "bufferView" : 0,
            "componentType" : 5126,
            "count" : 705,
            "max" : [
                0.4475812017917633,
                0.10429508984088898,
                0.48920488357543945
            ],
            "min" : [
                -0.44831621646881104,
                -0.05773010104894638,
                -0.4525938034057617
            ],
            "type" : "VEC3"
        },
        {
            "bufferView" : 1,
            "componentType" : 5126,
            "count" : 705,
            "type" : "VEC3"
        },
        {
            "bufferView" : 2,
            "componentType" : 5126,
            "count" : 705,
            "type" : "VEC2"
        },
        {
            "bufferView" : 3,
            "componentType" : 5123,
            "count" : 2880,
            "type" : "SCALAR"
        },
        {
            "bufferView" : 4,
            "componentType" : 5126,
            "count" : 885,
            "max" : [
                0.5068472027778625,
                0.6139001846313477,
                0.2687957286834717
            ],
            "min" : [
                -0.4497584104537964,
                0.031941235065460205,
                -0.4760760962963104
            ],
            "type" : "VEC3"
        },
        {
            "bufferView" : 5,
            "componentType" : 5126,
            "count" : 885,
            "type" : "VEC3"
        },
        {
            "bufferView" : 6,
            "componentType" : 5126,
            "count" : 885,
            "type" : "VEC2"
        },
        {
            "bufferView" : 7,
            "componentType" : 5123,
            "count" : 3996,
            "type" : "SCALAR"
        },
        {
            "bufferView" : 8,
            "componentType" : 5126,
            "count" : 601,
            "max" : [
                0.16175039112567902,
                0.17420721054077148,
                0.18057917058467865
            ],
            "min" : [
                -0.16771453619003296,
                0.05345422774553299,
                -0.14874997735023499
            ],
            "type" : "VEC3"
        },
        {
            "bufferView" : 9,
            "componentType" : 5126,
            "count" : 601,
            "type" : "VEC3"
        },
        {
            "bufferView" : 10,
            "componentType" : 5126,
            "count" : 601,
            "type" : "VEC2"
        },
        {
            "bufferView" : 11,
            "componentType" : 5123,
            "count" : 3564,
            "type" : "SCALAR"
        },
        {
            "bufferView" : 12,
            "componentType" : 5126,
            "count" : 1,
            "max" : [
                0.03333333333333333
            ],
            "min" : [
                0.03333333333333333
            ],
            "type" : "SCALAR"
        },
        {
            "bufferView" : 13,
            "componentType" : 5126,
            "count" : 1,
            "type" : "VEC3"
        },
        {
            "bufferView" : 14,
            "componentType" : 5126,
            "count" : 1,
            "type" : "VEC4"
        },
        {
            "bufferView" : 15,
            "componentType" : 5126,
            "count" : 1,
            "type" : "VEC3"
        },
        {
            "bufferView" : 16,
            "componentType" : 5126,
            "count" : 2,
            "max" : [
                0.06666666666666667
            ],
            "min" : [
                0.03333333333333333
            ],
            "type" : "SCALAR"
        },
        {
            "bufferView" : 17,
            "componentType" : 5126,
            "count" : 2,
            "type" : "VEC3"
        },
        {
            "bufferView" : 18,
            "componentType" : 5126,
            "count" : 2,
            "type" : "VEC4"
        },
        {
            "bufferView" : 19,
            "componentType" : 5126,
            "count" : 2,
            "type" : "VEC3"
        },
        {
            "bufferView" : 20,
            "componentType" : 5126,
            "count" : 2,
            "type" : "VEC3"
        },
        {
            "bufferView" : 21,
            "componentType" : 5126,
            "count" : 2,
            "type" : "VEC4"
        },
        {
            "bufferView" : 22,
            "componentType" : 5126,
            "count" : 2,
            "type" : "VEC3"
        },
        {
            "bufferView" : 23,
            "componentType" : 5126,
            "count" : 1,
            "type" : "VEC3"
        },
        {
            "bufferView" : 24,
            "componentType" : 5126,
            "count" : 1,
            "type" : "VEC4"
        },
        {
            "bufferView" : 25,
            "componentType" : 5126,
            "count" : 1,
            "type" : "VEC3"
        }
    ],
    "bufferViews" : [
        {
            "buffer" : 0,
            "byteLength" : 8460,
            "byteOffset" : 0,
            "target" : 34962
        },
        {
            "buffer" : 0,
            "byteLength" : 8460,
            "byteOffset" : 8460,
            "target" : 34962
        },
        {
            "buffer" : 0,
            "byteLength" : 5640,
            "byteOffset" : 16920,
            "target" : 34962
        },
        {
            "buffer" : 0,
            "byteLength" : 5760,
            "byteOffset" : 22560,
            "target" : 34963
        },
        {
            "buffer" : 0,
            "byteLength" : 10620,
            "byteOffset" : 28320,
            "target" : 34962
        },
        {
            "buffer" : 0,
            "byteLength" : 10620,
            "byteOffset" : 38940,
            "target" : 34962
        },
        {
            "buffer" : 0,
            "byteLength" : 7080,
            "byteOffset" : 49560,
            "target" : 34962
        },
        {
            "buffer" : 0,
            "byteLength" : 7992,
            "byteOffset" : 56640,
            "target" : 34963
        },
        {
            "buffer" : 0,
            "byteLength" : 7212,
            "byteOffset" : 64632,
            "target" : 34962
        },
        {
            "buffer" : 0,
            "byteLength" : 7212,
            "byteOffset" : 71844,
            "target" : 34962
        },
        {
            "buffer" : 0,
            "byteLength" : 4808,
            "byteOffset" : 79056,
            "target" : 34962
        },
        {
            "buffer" : 0,
            "byteLength" : 7128,
            "byteOffset" : 83864,
            "target" : 34963
        },
        {
            "buffer" : 0,
            "byteLength" : 4,
            "byteOffset" : 90992
        },
        {
            "buffer" : 0,
            "byteLength" : 12,
            "byteOffset" : 90996
        },
        {
            "buffer" : 0,
            "byteLength" : 16,
            "byteOffset" : 91008
        },
        {
            "buffer" : 0,
            "byteLength" : 12,
            "byteOffset" : 91024
        },
        {
            "buffer" : 0,
            "byteLength" : 8,
            "byteOffset" : 91036
        },
        {
            "buffer" : 0,
            "byteLength" : 24,
            "byteOffset" : 91044
        },
        {
            "buffer" : 0,
            "byteLength" : 32,
            "byteOffset" : 91068
        },
        {
            "buffer" : 0,
            "byteLength" : 24,
            "byteOffset" : 91100
        },
        {
            "buffer" : 0,
            "byteLength" : 24,
            "byteOffset" : 91124
        },
        {
            "buffer" : 0,
            "byteLength" : 32,
            "byteOffset" : 91148
        },
        {
            "buffer" : 0,
            "byteLength" : 24,
            "byteOffset" : 91180
        },
        {
            "buffer" : 0,
            "byteLength" : 12,
            "byteOffset" : 91204
        },
        {
            "buffer" : 0,
            "byteLength" : 16,
            "byteOffset" : 91216
        },
        {
            "buffer" : 0,
            "byteLength" : 12,
            "byteOffset" : 91232
        }
    ],
    "buffers" : [
        {
            "byteLength" : 91244,
            "uri" : "Plant_01_ranke_state00.bin"
        }
    ]
}
