{
    "asset" : {
        "generator" : "Khronos glTF Blender I/O v3.3.32",
        "version" : "2.0"
    },
    "extensionsUsed" : [
        "KHR_materials_unlit"
    ],
    "scene" : 0,
    "scenes" : [
        {
            "name" : "Scene",
            "nodes" : [
                0,
                1,
                2,
                3,
                4
            ]
        }
    ],
    "nodes" : [
        {
            "mesh" : 0,
            "name" : "Cube",
            "translation" : [
                0.015658855438232422,
                0.008630000054836273,
                -0.025265701115131378
            ]
        },
        {
            "name" : "Empty",
            "translation" : [
                -1.3974281549453735,
                1.2847646474838257,
                -0.7861829996109009
            ]
        },
        {
            "name" : "Empty.001",
            "translation" : [
                0.6435832977294922,
                0.8912062644958496,
                -2.258929491043091
            ]
        },
        {
            "name" : "Empty.002",
            "translation" : [
                -1.090287208557129,
                0.9802265167236328,
                1.9633350372314453
            ]
        },
        {
            "mesh" : 1,
            "name" : "Cube.003",
            "scale" : [
                0.7973782420158386,
                0.7973782420158386,
                0.7973782420158386
            ],
            "translation" : [
                0.015658855438232422,
                0.008630037307739258,
                -0.02526569366455078
            ]
        }
    ],
    "materials" : [
        {
            "doubleSided" : true,
            "extensions" : {
                "KHR_materials_unlit" : {}
            },
            "name" : "pflante_06_Rosenmaterial",
            "pbrMetallicRoughness" : {
                "metallicFactor" : 0,
                "roughnessFactor" : 0.9
            }
        },
        {
            "doubleSided" : true,
            "extensions" : {
                "KHR_materials_unlit" : {}
            },
            "name" : "downpart",
            "pbrMetallicRoughness" : {
                "metallicFactor" : 0,
                "roughnessFactor" : 0.9
            }
        },
        {
            "doubleSided" : true,
            "extensions" : {
                "KHR_materials_unlit" : {}
            },
            "name" : "pflante_06_Rosenmaterial.002",
            "pbrMetallicRoughness" : {
                "metallicFactor" : 0,
                "roughnessFactor" : 0.9
            }
        },
        {
            "doubleSided" : true,
            "name" : "rose_inner_color",
            "pbrMetallicRoughness" : {}
        },
        {
            "doubleSided" : true,
            "name" : "Material.001",
            "pbrMetallicRoughness" : {}
        }
    ],
    "meshes" : [
        {
            "name" : "Cube_sm_18",
            "primitives" : [
                {
                    "attributes" : {
                        "POSITION" : 0,
                        "NORMAL" : 1,
                        "TEXCOORD_0" : 2
                    },
                    "indices" : 3,
                    "material" : 0
                },
                {
                    "attributes" : {
                        "POSITION" : 4,
                        "NORMAL" : 5,
                        "TEXCOORD_0" : 6
                    },
                    "indices" : 7,
                    "material" : 1
                },
                {
                    "attributes" : {
                        "POSITION" : 8,
                        "NORMAL" : 9,
                        "TEXCOORD_0" : 10
                    },
                    "indices" : 11,
                    "material" : 2
                },
                {
                    "attributes" : {
                        "POSITION" : 12,
                        "NORMAL" : 13,
                        "TEXCOORD_0" : 14
                    },
                    "indices" : 15,
                    "material" : 3
                }
            ]
        },
        {
            "name" : "Cube.003_sm_14",
            "primitives" : [
                {
                    "attributes" : {
                        "POSITION" : 16,
                        "NORMAL" : 17,
                        "TEXCOORD_0" : 18
                    },
                    "indices" : 19,
                    "material" : 4
                }
            ]
        }
    ],
    "accessors" : [
        {
            "bufferView" : 0,
            "componentType" : 5126,
            "count" : 440,
            "max" : [
                2.2722630500793457,
                3.449237108230591,
                1.6940441131591797
            ],
            "min" : [
                -1.6737924814224243,
                1.9699150323867798,
                -1.8318281173706055
            ],
            "type" : "VEC3"
        },
        {
            "bufferView" : 1,
            "componentType" : 5126,
            "count" : 440,
            "type" : "VEC3"
        },
        {
            "bufferView" : 2,
            "componentType" : 5126,
            "count" : 440,
            "type" : "VEC2"
        },
        {
            "bufferView" : 3,
            "componentType" : 5123,
            "count" : 1962,
            "type" : "SCALAR"
        },
        {
            "bufferView" : 4,
            "componentType" : 5126,
            "count" : 144,
            "max" : [
                0.9746556282043457,
                2.152386426925659,
                0.7265045046806335
            ],
            "min" : [
                -0.7434254884719849,
                -0.09293960779905319,
                -0.9705572128295898
            ],
            "type" : "VEC3"
        },
        {
            "bufferView" : 5,
            "componentType" : 5126,
            "count" : 144,
            "type" : "VEC3"
        },
        {
            "bufferView" : 6,
            "componentType" : 5126,
            "count" : 144,
            "type" : "VEC2"
        },
        {
            "bufferView" : 7,
            "componentType" : 5123,
            "count" : 810,
            "type" : "SCALAR"
        },
        {
            "bufferView" : 8,
            "componentType" : 5126,
            "count" : 213,
            "max" : [
                1.2651724815368652,
                2.4564287662506104,
                1.0628770589828491
            ],
            "min" : [
                -1.2174475193023682,
                1.6754090785980225,
                -1.3959102630615234
            ],
            "type" : "VEC3"
        },
        {
            "bufferView" : 9,
            "componentType" : 5126,
            "count" : 213,
            "type" : "VEC3"
        },
        {
            "bufferView" : 10,
            "componentType" : 5126,
            "count" : 213,
            "type" : "VEC2"
        },
        {
            "bufferView" : 11,
            "componentType" : 5123,
            "count" : 876,
            "type" : "SCALAR"
        },
        {
            "bufferView" : 12,
            "componentType" : 5126,
            "count" : 135,
            "max" : [
                1.6382657289505005,
                4.163429260253906,
                1.4839439392089844
            ],
            "min" : [
                -1.3464829921722412,
                2.0285472869873047,
                -1.4881258010864258
            ],
            "type" : "VEC3"
        },
        {
            "bufferView" : 13,
            "componentType" : 5126,
            "count" : 135,
            "type" : "VEC3"
        },
        {
            "bufferView" : 14,
            "componentType" : 5126,
            "count" : 135,
            "type" : "VEC2"
        },
        {
            "bufferView" : 15,
            "componentType" : 5123,
            "count" : 738,
            "type" : "SCALAR"
        },
        {
            "bufferView" : 16,
            "componentType" : 5126,
            "count" : 84,
            "max" : [
                0.8625694513320923,
                1.6214885711669922,
                2.6547114849090576
            ],
            "min" : [
                -1.8048391342163086,
                -0.06343328952789307,
                -2.8477566242218018
            ],
            "type" : "VEC3"
        },
        {
            "bufferView" : 17,
            "componentType" : 5126,
            "count" : 84,
            "type" : "VEC3"
        },
        {
            "bufferView" : 18,
            "componentType" : 5126,
            "count" : 84,
            "type" : "VEC2"
        },
        {
            "bufferView" : 19,
            "componentType" : 5123,
            "count" : 108,
            "type" : "SCALAR"
        }
    ],
    "bufferViews" : [
        {
            "buffer" : 0,
            "byteLength" : 5280,
            "byteOffset" : 0,
            "target" : 34962
        },
        {
            "buffer" : 0,
            "byteLength" : 5280,
            "byteOffset" : 5280,
            "target" : 34962
        },
        {
            "buffer" : 0,
            "byteLength" : 3520,
            "byteOffset" : 10560,
            "target" : 34962
        },
        {
            "buffer" : 0,
            "byteLength" : 3924,
            "byteOffset" : 14080,
            "target" : 34963
        },
        {
            "buffer" : 0,
            "byteLength" : 1728,
            "byteOffset" : 18004,
            "target" : 34962
        },
        {
            "buffer" : 0,
            "byteLength" : 1728,
            "byteOffset" : 19732,
            "target" : 34962
        },
        {
            "buffer" : 0,
            "byteLength" : 1152,
            "byteOffset" : 21460,
            "target" : 34962
        },
        {
            "buffer" : 0,
            "byteLength" : 1620,
            "byteOffset" : 22612,
            "target" : 34963
        },
        {
            "buffer" : 0,
            "byteLength" : 2556,
            "byteOffset" : 24232,
            "target" : 34962
        },
        {
            "buffer" : 0,
            "byteLength" : 2556,
            "byteOffset" : 26788,
            "target" : 34962
        },
        {
            "buffer" : 0,
            "byteLength" : 1704,
            "byteOffset" : 29344,
            "target" : 34962
        },
        {
            "buffer" : 0,
            "byteLength" : 1752,
            "byteOffset" : 31048,
            "target" : 34963
        },
        {
            "buffer" : 0,
            "byteLength" : 1620,
            "byteOffset" : 32800,
            "target" : 34962
        },
        {
            "buffer" : 0,
            "byteLength" : 1620,
            "byteOffset" : 34420,
            "target" : 34962
        },
        {
            "buffer" : 0,
            "byteLength" : 1080,
            "byteOffset" : 36040,
            "target" : 34962
        },
        {
            "buffer" : 0,
            "byteLength" : 1476,
            "byteOffset" : 37120,
            "target" : 34963
        },
        {
            "buffer" : 0,
            "byteLength" : 1008,
            "byteOffset" : 38596,
            "target" : 34962
        },
        {
            "buffer" : 0,
            "byteLength" : 1008,
            "byteOffset" : 39604,
            "target" : 34962
        },
        {
            "buffer" : 0,
            "byteLength" : 672,
            "byteOffset" : 40612,
            "target" : 34962
        },
        {
            "buffer" : 0,
            "byteLength" : 216,
            "byteOffset" : 41284,
            "target" : 34963
        }
    ],
    "buffers" : [
        {
            "byteLength" : 41500,
            "uri" : "plant_06_fractalrose_state03.bin"
        }
    ]
}
