{
    "asset" : {
        "generator" : "Khronos glTF Blender I/O v3.3.32",
        "version" : "2.0"
    },
    "scene" : 0,
    "scenes" : [
        {
            "name" : "Scene",
            "nodes" : [
                0,
                1,
                2,
                3,
                4,
                5,
                6,
                8
            ]
        }
    ],
    "nodes" : [
        {
            "name" : "TurnPoint",
            "rotation" : [
                0,
                0.3031618893146515,
                0,
                0.9529391527175903
            ],
            "translation" : [
                0,
                -0.0849275290966034,
                0
            ]
        },
        {
            "name" : "Empty",
            "translation" : [
                -0.0034211575984954834,
                0.3088562786579132,
                -0.5727947950363159
            ]
        },
        {
            "name" : "Empty.001",
            "translation" : [
                -0.29726582765579224,
                0.3088562786579132,
                0.49133315682411194
            ]
        },
        {
            "name" : "Empty.002",
            "translation" : [
                0.5501269102096558,
                0.3088562786579132,
                0.15378248691558838
            ]
        },
        {
            "mesh" : 0,
            "name" : "Stem",
            "translation" : [
                0,
                -0.08492755889892578,
                0
            ]
        },
        {
            "name" : "TurnPoint.001",
            "rotation" : [
                0,
                0.7984974384307861,
                0,
                0.6019982695579529
            ],
            "translation" : [
                0,
                -0.0849275290966034,
                0
            ]
        },
        {
            "mesh" : 1,
            "name" : "Pino4",
            "translation" : [
                0,
                -0.0849275290966034,
                0
            ]
        },
        {
            "mesh" : 2,
            "name" : "Flower.004",
            "translation" : [
                0,
                -0.04979848861694336,
                0
            ]
        },
        {
            "children" : [
                7
            ],
            "mesh" : 3,
            "name" : "FlowerBase.003",
            "translation" : [
                0,
                1.3306083679199219,
                0
            ]
        }
    ],
    "materials" : [
        {
            "doubleSided" : true,
            "name" : "PinoBark",
            "pbrMetallicRoughness" : {
                "baseColorFactor" : [
                    0.09083760529756546,
                    0.08889482915401459,
                    0.02242630533874035,
                    1
                ],
                "metallicFactor" : 0,
                "roughnessFactor" : 0.8471502661705017
            }
        },
        {
            "doubleSided" : true,
            "name" : "PinoFlowerPink",
            "pbrMetallicRoughness" : {
                "baseColorFactor" : [
                    0.8000000715255737,
                    0.016993418335914612,
                    0.12267304211854935,
                    1
                ],
                "metallicFactor" : 0,
                "roughnessFactor" : 0.5
            }
        },
        {
            "doubleSided" : true,
            "name" : "PinoPlantGreen",
            "pbrMetallicRoughness" : {
                "baseColorFactor" : [
                    0.015297474339604378,
                    0.052217476069927216,
                    0,
                    1
                ],
                "metallicFactor" : 0
            }
        }
    ],
    "meshes" : [
        {
            "name" : "Cylinder.006",
            "primitives" : [
                {
                    "attributes" : {
                        "POSITION" : 0,
                        "NORMAL" : 1,
                        "TEXCOORD_0" : 2
                    },
                    "indices" : 3,
                    "material" : 0
                }
            ]
        },
        {
            "name" : "Cylinder.007",
            "primitives" : [
                {
                    "attributes" : {
                        "POSITION" : 4,
                        "NORMAL" : 5,
                        "TEXCOORD_0" : 6
                    },
                    "indices" : 7,
                    "material" : 0
                }
            ]
        },
        {
            "name" : "Cube.006",
            "primitives" : [
                {
                    "attributes" : {
                        "POSITION" : 8,
                        "NORMAL" : 9
                    },
                    "indices" : 10,
                    "material" : 1
                }
            ]
        },
        {
            "name" : "Cylinder.008",
            "primitives" : [
                {
                    "attributes" : {
                        "POSITION" : 11,
                        "NORMAL" : 12,
                        "TEXCOORD_0" : 13
                    },
                    "indices" : 14,
                    "material" : 2
                }
            ]
        }
    ],
    "accessors" : [
        {
            "bufferView" : 0,
            "componentType" : 5126,
            "count" : 243,
            "max" : [
                0.529278576374054,
                0.43646615743637085,
                0.4760133922100067
            ],
            "min" : [
                -0.30953508615493774,
                -0.1268685758113861,
                -0.5435165166854858
            ],
            "type" : "VEC3"
        },
        {
            "bufferView" : 1,
            "componentType" : 5126,
            "count" : 243,
            "type" : "VEC3"
        },
        {
            "bufferView" : 2,
            "componentType" : 5126,
            "count" : 243,
            "type" : "VEC2"
        },
        {
            "bufferView" : 3,
            "componentType" : 5123,
            "count" : 1422,
            "type" : "SCALAR"
        },
        {
            "bufferView" : 4,
            "componentType" : 5126,
            "count" : 2225,
            "max" : [
                1.130170226097107,
                1.231379747390747,
                1.1003620624542236
            ],
            "min" : [
                -1.086661458015442,
                -0.18707028031349182,
                -1.1294856071472168
            ],
            "type" : "VEC3"
        },
        {
            "bufferView" : 5,
            "componentType" : 5126,
            "count" : 2225,
            "type" : "VEC3"
        },
        {
            "bufferView" : 6,
            "componentType" : 5126,
            "count" : 2225,
            "type" : "VEC2"
        },
        {
            "bufferView" : 7,
            "componentType" : 5123,
            "count" : 11604,
            "type" : "SCALAR"
        },
        {
            "bufferView" : 8,
            "componentType" : 5126,
            "count" : 3330,
            "max" : [
                0.4713559150695801,
                0.19438761472702026,
                0.46492132544517517
            ],
            "min" : [
                -0.4545596241950989,
                -0.004985652398318052,
                -0.44050031900405884
            ],
            "type" : "VEC3"
        },
        {
            "bufferView" : 9,
            "componentType" : 5126,
            "count" : 3330,
            "type" : "VEC3"
        },
        {
            "bufferView" : 10,
            "componentType" : 5123,
            "count" : 17100,
            "type" : "SCALAR"
        },
        {
            "bufferView" : 11,
            "componentType" : 5126,
            "count" : 110,
            "max" : [
                0.10574240237474442,
                0.024246152490377426,
                0.11118413507938385
            ],
            "min" : [
                -0.10574240237474442,
                -0.08608172088861465,
                -0.11118412017822266
            ],
            "type" : "VEC3"
        },
        {
            "bufferView" : 12,
            "componentType" : 5126,
            "count" : 110,
            "type" : "VEC3"
        },
        {
            "bufferView" : 13,
            "componentType" : 5126,
            "count" : 110,
            "type" : "VEC2"
        },
        {
            "bufferView" : 14,
            "componentType" : 5123,
            "count" : 264,
            "type" : "SCALAR"
        }
    ],
    "bufferViews" : [
        {
            "buffer" : 0,
            "byteLength" : 2916,
            "byteOffset" : 0,
            "target" : 34962
        },
        {
            "buffer" : 0,
            "byteLength" : 2916,
            "byteOffset" : 2916,
            "target" : 34962
        },
        {
            "buffer" : 0,
            "byteLength" : 1944,
            "byteOffset" : 5832,
            "target" : 34962
        },
        {
            "buffer" : 0,
            "byteLength" : 2844,
            "byteOffset" : 7776,
            "target" : 34963
        },
        {
            "buffer" : 0,
            "byteLength" : 26700,
            "byteOffset" : 10620,
            "target" : 34962
        },
        {
            "buffer" : 0,
            "byteLength" : 26700,
            "byteOffset" : 37320,
            "target" : 34962
        },
        {
            "buffer" : 0,
            "byteLength" : 17800,
            "byteOffset" : 64020,
            "target" : 34962
        },
        {
            "buffer" : 0,
            "byteLength" : 23208,
            "byteOffset" : 81820,
            "target" : 34963
        },
        {
            "buffer" : 0,
            "byteLength" : 39960,
            "byteOffset" : 105028,
            "target" : 34962
        },
        {
            "buffer" : 0,
            "byteLength" : 39960,
            "byteOffset" : 144988,
            "target" : 34962
        },
        {
            "buffer" : 0,
            "byteLength" : 34200,
            "byteOffset" : 184948,
            "target" : 34963
        },
        {
            "buffer" : 0,
            "byteLength" : 1320,
            "byteOffset" : 219148,
            "target" : 34962
        },
        {
            "buffer" : 0,
            "byteLength" : 1320,
            "byteOffset" : 220468,
            "target" : 34962
        },
        {
            "buffer" : 0,
            "byteLength" : 880,
            "byteOffset" : 221788,
            "target" : 34962
        },
        {
            "buffer" : 0,
            "byteLength" : 528,
            "byteOffset" : 222668,
            "target" : 34963
        }
    ],
    "buffers" : [
        {
            "byteLength" : 223196,
            "uri" : "PlantPinoState03.bin"
        }
    ]
}
