{
    "asset" : {
        "generator" : "Khronos glTF Blender I/O v3.3.32",
        "version" : "2.0"
    },
    "scene" : 0,
    "scenes" : [
        {
            "name" : "Scene",
            "nodes" : [
                0,
                1,
                2,
                3,
                4,
                6,
                7
            ]
        }
    ],
    "nodes" : [
        {
            "name" : "TurnPoint",
            "rotation" : [
                0,
                0.3031618893146515,
                0,
                0.9529391527175903
            ],
            "translation" : [
                0,
                -0.0849275290966034,
                0
            ]
        },
        {
            "name" : "Empty",
            "translation" : [
                0.11870240420103073,
                0.16275933384895325,
                -0.17545738816261292
            ]
        },
        {
            "name" : "Empty.001",
            "translation" : [
                -0.2284533679485321,
                0.16275933384895325,
                -0.0915939062833786
            ]
        },
        {
            "name" : "Empty.002",
            "translation" : [
                -0.12703707814216614,
                0.16275933384895325,
                0.1814499944448471
            ]
        },
        {
            "name" : "Empty.003",
            "translation" : [
                0.1694105565547943,
                0.16275933384895325,
                0.1814499944448471
            ]
        },
        {
            "mesh" : 0,
            "name" : "Flower.002",
            "translation" : [
                0,
                -0.026359081268310547,
                0
            ]
        },
        {
            "children" : [
                5
            ],
            "mesh" : 1,
            "name" : "FlowerBase.002",
            "translation" : [
                0,
                1.2316380739212036,
                0
            ]
        },
        {
            "mesh" : 2,
            "name" : "Pino3",
            "translation" : [
                0,
                -0.0849275290966034,
                0
            ]
        }
    ],
    "materials" : [
        {
            "doubleSided" : true,
            "name" : "PinoFlowerPink",
            "pbrMetallicRoughness" : {
                "baseColorFactor" : [
                    0.8000000715255737,
                    0.016993418335914612,
                    0.12267304211854935,
                    1
                ],
                "metallicFactor" : 0,
                "roughnessFactor" : 0.5
            }
        },
        {
            "doubleSided" : true,
            "name" : "PinoPlantGreen",
            "pbrMetallicRoughness" : {
                "baseColorFactor" : [
                    0.015297474339604378,
                    0.052217476069927216,
                    0,
                    1
                ],
                "metallicFactor" : 0
            }
        },
        {
            "doubleSided" : true,
            "name" : "PinoBark",
            "pbrMetallicRoughness" : {
                "baseColorFactor" : [
                    0.09083760529756546,
                    0.08889482915401459,
                    0.02242630533874035,
                    1
                ],
                "metallicFactor" : 0,
                "roughnessFactor" : 0.8471502661705017
            }
        }
    ],
    "meshes" : [
        {
            "name" : "Cube.002",
            "primitives" : [
                {
                    "attributes" : {
                        "POSITION" : 0,
                        "NORMAL" : 1
                    },
                    "indices" : 2,
                    "material" : 0
                }
            ]
        },
        {
            "name" : "Cylinder.005",
            "primitives" : [
                {
                    "attributes" : {
                        "POSITION" : 3,
                        "NORMAL" : 4,
                        "TEXCOORD_0" : 5
                    },
                    "indices" : 6,
                    "material" : 1
                }
            ]
        },
        {
            "name" : "Cylinder.002",
            "primitives" : [
                {
                    "attributes" : {
                        "POSITION" : 7,
                        "NORMAL" : 8,
                        "TEXCOORD_0" : 9
                    },
                    "indices" : 10,
                    "material" : 2
                }
            ]
        }
    ],
    "accessors" : [
        {
            "bufferView" : 0,
            "componentType" : 5126,
            "count" : 2453,
            "max" : [
                0.24949578940868378,
                0.10289229452610016,
                0.2460898607969284
            ],
            "min" : [
                -0.24060526490211487,
                -0.0026389809790998697,
                -0.23316346108913422
            ],
            "type" : "VEC3"
        },
        {
            "bufferView" : 1,
            "componentType" : 5126,
            "count" : 2453,
            "type" : "VEC3"
        },
        {
            "bufferView" : 2,
            "componentType" : 5123,
            "count" : 12198,
            "type" : "SCALAR"
        },
        {
            "bufferView" : 3,
            "componentType" : 5126,
            "count" : 124,
            "max" : [
                0.05597104877233505,
                0.012539966031908989,
                0.058851439505815506
            ],
            "min" : [
                -0.05597104877233505,
                -0.04517972841858864,
                -0.05885143205523491
            ],
            "type" : "VEC3"
        },
        {
            "bufferView" : 4,
            "componentType" : 5126,
            "count" : 124,
            "type" : "VEC3"
        },
        {
            "bufferView" : 5,
            "componentType" : 5126,
            "count" : 124,
            "type" : "VEC2"
        },
        {
            "bufferView" : 6,
            "componentType" : 5123,
            "count" : 348,
            "type" : "SCALAR"
        },
        {
            "bufferView" : 7,
            "componentType" : 5126,
            "count" : 2147,
            "max" : [
                1.0397093296051025,
                1.231379747390747,
                0.9597446918487549
            ],
            "min" : [
                -0.9919646978378296,
                -0.06887364387512207,
                -1.0019570589065552
            ],
            "type" : "VEC3"
        },
        {
            "bufferView" : 8,
            "componentType" : 5126,
            "count" : 2147,
            "type" : "VEC3"
        },
        {
            "bufferView" : 9,
            "componentType" : 5126,
            "count" : 2147,
            "type" : "VEC2"
        },
        {
            "bufferView" : 10,
            "componentType" : 5123,
            "count" : 11202,
            "type" : "SCALAR"
        }
    ],
    "bufferViews" : [
        {
            "buffer" : 0,
            "byteLength" : 29436,
            "byteOffset" : 0,
            "target" : 34962
        },
        {
            "buffer" : 0,
            "byteLength" : 29436,
            "byteOffset" : 29436,
            "target" : 34962
        },
        {
            "buffer" : 0,
            "byteLength" : 24396,
            "byteOffset" : 58872,
            "target" : 34963
        },
        {
            "buffer" : 0,
            "byteLength" : 1488,
            "byteOffset" : 83268,
            "target" : 34962
        },
        {
            "buffer" : 0,
            "byteLength" : 1488,
            "byteOffset" : 84756,
            "target" : 34962
        },
        {
            "buffer" : 0,
            "byteLength" : 992,
            "byteOffset" : 86244,
            "target" : 34962
        },
        {
            "buffer" : 0,
            "byteLength" : 696,
            "byteOffset" : 87236,
            "target" : 34963
        },
        {
            "buffer" : 0,
            "byteLength" : 25764,
            "byteOffset" : 87932,
            "target" : 34962
        },
        {
            "buffer" : 0,
            "byteLength" : 25764,
            "byteOffset" : 113696,
            "target" : 34962
        },
        {
            "buffer" : 0,
            "byteLength" : 17176,
            "byteOffset" : 139460,
            "target" : 34962
        },
        {
            "buffer" : 0,
            "byteLength" : 22404,
            "byteOffset" : 156636,
            "target" : 34963
        }
    ],
    "buffers" : [
        {
            "byteLength" : 179040,
            "uri" : "PlantPinoState02.bin"
        }
    ]
}
