{
    "asset" : {
        "generator" : "Khronos glTF Blender I/O v3.3.32",
        "version" : "2.0"
    },
    "scene" : 0,
    "scenes" : [
        {
            "name" : "Scene",
            "nodes" : [
                0,
                1,
                2,
                3,
                4,
                5,
                7,
                8
            ]
        }
    ],
    "nodes" : [
        {
            "name" : "TurnPoint",
            "rotation" : [
                0,
                0.3031618893146515,
                0,
                0.9529391527175903
            ],
            "translation" : [
                0,
                -0.0849275290966034,
                0
            ]
        },
        {
            "name" : "Empty",
            "translation" : [
                -0.0034211575984954834,
                0.3088562786579132,
                -0.5727947950363159
            ]
        },
        {
            "name" : "Empty.001",
            "translation" : [
                -0.29726582765579224,
                0.3088562786579132,
                0.49133315682411194
            ]
        },
        {
            "name" : "Empty.002",
            "translation" : [
                0.5501269102096558,
                0.3088562786579132,
                0.15378248691558838
            ]
        },
        {
            "mesh" : 0,
            "name" : "Stem",
            "translation" : [
                0,
                -0.08492755889892578,
                0
            ]
        },
        {
            "name" : "TurnPoint.001",
            "rotation" : [
                0,
                0.7984974384307861,
                0,
                0.6019982695579529
            ],
            "translation" : [
                0,
                -0.0849275290966034,
                0
            ]
        },
        {
            "mesh" : 1,
            "name" : "Flower.001",
            "scale" : [
                1.1041312217712402,
                2.7004175186157227,
                1.1041312217712402
            ],
            "translation" : [
                0,
                -0.0748131275177002,
                0
            ]
        },
        {
            "children" : [
                6
            ],
            "mesh" : 2,
            "name" : "FlowerBase.001",
            "scale" : [
                0.9056894779205322,
                0.3703131377696991,
                0.9056894779205322
            ],
            "translation" : [
                0,
                0.9167925119400024,
                0
            ]
        },
        {
            "mesh" : 3,
            "name" : "Pino2",
            "translation" : [
                0,
                -0.0849275290966034,
                0
            ]
        }
    ],
    "materials" : [
        {
            "doubleSided" : true,
            "name" : "PinoBark",
            "pbrMetallicRoughness" : {
                "baseColorFactor" : [
                    0.09083760529756546,
                    0.08889482915401459,
                    0.02242630533874035,
                    1
                ],
                "metallicFactor" : 0,
                "roughnessFactor" : 0.8471502661705017
            }
        },
        {
            "doubleSided" : true,
            "name" : "PinoFlowerPink",
            "pbrMetallicRoughness" : {
                "baseColorFactor" : [
                    0.8000000715255737,
                    0.016993418335914612,
                    0.12267304211854935,
                    1
                ],
                "metallicFactor" : 0,
                "roughnessFactor" : 0.5
            }
        },
        {
            "doubleSided" : true,
            "name" : "PinoPlantGreen",
            "pbrMetallicRoughness" : {
                "baseColorFactor" : [
                    0.015297474339604378,
                    0.052217476069927216,
                    0,
                    1
                ],
                "metallicFactor" : 0
            }
        }
    ],
    "meshes" : [
        {
            "name" : "Cylinder.006",
            "primitives" : [
                {
                    "attributes" : {
                        "POSITION" : 0,
                        "NORMAL" : 1,
                        "TEXCOORD_0" : 2
                    },
                    "indices" : 3,
                    "material" : 0
                }
            ]
        },
        {
            "name" : "Cube.003",
            "primitives" : [
                {
                    "attributes" : {
                        "POSITION" : 4,
                        "NORMAL" : 5
                    },
                    "indices" : 6,
                    "material" : 1
                }
            ]
        },
        {
            "name" : "Cylinder.004",
            "primitives" : [
                {
                    "attributes" : {
                        "POSITION" : 7,
                        "NORMAL" : 8,
                        "TEXCOORD_0" : 9
                    },
                    "indices" : 10,
                    "material" : 2
                }
            ]
        },
        {
            "name" : "Cylinder",
            "primitives" : [
                {
                    "attributes" : {
                        "POSITION" : 11,
                        "NORMAL" : 12,
                        "TEXCOORD_0" : 13
                    },
                    "indices" : 14,
                    "material" : 0
                }
            ]
        }
    ],
    "accessors" : [
        {
            "bufferView" : 0,
            "componentType" : 5126,
            "count" : 243,
            "max" : [
                0.529278576374054,
                0.43646615743637085,
                0.4760133922100067
            ],
            "min" : [
                -0.30953508615493774,
                -0.1268685758113861,
                -0.5435165166854858
            ],
            "type" : "VEC3"
        },
        {
            "bufferView" : 1,
            "componentType" : 5126,
            "count" : 243,
            "type" : "VEC3"
        },
        {
            "bufferView" : 2,
            "componentType" : 5126,
            "count" : 243,
            "type" : "VEC2"
        },
        {
            "bufferView" : 3,
            "componentType" : 5123,
            "count" : 1422,
            "type" : "SCALAR"
        },
        {
            "bufferView" : 4,
            "componentType" : 5126,
            "count" : 2169,
            "max" : [
                0.1374223381280899,
                0.16082867980003357,
                0.13206492364406586
            ],
            "min" : [
                -0.12926752865314484,
                -0.0005235862918198109,
                -0.1216917335987091
            ],
            "type" : "VEC3"
        },
        {
            "bufferView" : 5,
            "componentType" : 5126,
            "count" : 2169,
            "type" : "VEC3"
        },
        {
            "bufferView" : 6,
            "componentType" : 5123,
            "count" : 10674,
            "type" : "SCALAR"
        },
        {
            "bufferView" : 7,
            "componentType" : 5126,
            "count" : 124,
            "max" : [
                0.05460473895072937,
                0.02992081642150879,
                0.05741481855511665
            ],
            "min" : [
                -0.05460473895072937,
                -0.10780047625303268,
                -0.057414811104536057
            ],
            "type" : "VEC3"
        },
        {
            "bufferView" : 8,
            "componentType" : 5126,
            "count" : 124,
            "type" : "VEC3"
        },
        {
            "bufferView" : 9,
            "componentType" : 5126,
            "count" : 124,
            "type" : "VEC2"
        },
        {
            "bufferView" : 10,
            "componentType" : 5123,
            "count" : 348,
            "type" : "SCALAR"
        },
        {
            "bufferView" : 11,
            "componentType" : 5126,
            "count" : 2221,
            "max" : [
                1.0845513343811035,
                1.301308035850525,
                1.038621425628662
            ],
            "min" : [
                -1.0492994785308838,
                -0.1637462079524994,
                -1.088660717010498
            ],
            "type" : "VEC3"
        },
        {
            "bufferView" : 12,
            "componentType" : 5126,
            "count" : 2221,
            "type" : "VEC3"
        },
        {
            "bufferView" : 13,
            "componentType" : 5126,
            "count" : 2221,
            "type" : "VEC2"
        },
        {
            "bufferView" : 14,
            "componentType" : 5123,
            "count" : 11604,
            "type" : "SCALAR"
        }
    ],
    "bufferViews" : [
        {
            "buffer" : 0,
            "byteLength" : 2916,
            "byteOffset" : 0,
            "target" : 34962
        },
        {
            "buffer" : 0,
            "byteLength" : 2916,
            "byteOffset" : 2916,
            "target" : 34962
        },
        {
            "buffer" : 0,
            "byteLength" : 1944,
            "byteOffset" : 5832,
            "target" : 34962
        },
        {
            "buffer" : 0,
            "byteLength" : 2844,
            "byteOffset" : 7776,
            "target" : 34963
        },
        {
            "buffer" : 0,
            "byteLength" : 26028,
            "byteOffset" : 10620,
            "target" : 34962
        },
        {
            "buffer" : 0,
            "byteLength" : 26028,
            "byteOffset" : 36648,
            "target" : 34962
        },
        {
            "buffer" : 0,
            "byteLength" : 21348,
            "byteOffset" : 62676,
            "target" : 34963
        },
        {
            "buffer" : 0,
            "byteLength" : 1488,
            "byteOffset" : 84024,
            "target" : 34962
        },
        {
            "buffer" : 0,
            "byteLength" : 1488,
            "byteOffset" : 85512,
            "target" : 34962
        },
        {
            "buffer" : 0,
            "byteLength" : 992,
            "byteOffset" : 87000,
            "target" : 34962
        },
        {
            "buffer" : 0,
            "byteLength" : 696,
            "byteOffset" : 87992,
            "target" : 34963
        },
        {
            "buffer" : 0,
            "byteLength" : 26652,
            "byteOffset" : 88688,
            "target" : 34962
        },
        {
            "buffer" : 0,
            "byteLength" : 26652,
            "byteOffset" : 115340,
            "target" : 34962
        },
        {
            "buffer" : 0,
            "byteLength" : 17768,
            "byteOffset" : 141992,
            "target" : 34962
        },
        {
            "buffer" : 0,
            "byteLength" : 23208,
            "byteOffset" : 159760,
            "target" : 34963
        }
    ],
    "buffers" : [
        {
            "byteLength" : 182968,
            "uri" : "PlantPinoState01.bin"
        }
    ]
}
