{
    "asset" : {
        "generator" : "Khronos glTF Blender I/O v3.3.32",
        "version" : "2.0"
    },
    "scene" : 0,
    "scenes" : [
        {
            "name" : "Scene",
            "nodes" : [
                0,
                1,
                2,
                3,
                4,
                5,
                6,
                7,
                8
            ]
        }
    ],
    "nodes" : [
        {
            "mesh" : 0,
            "name" : "Cylinder.003",
            "scale" : [
                0.05037970095872879,
                0.5956084132194519,
                0.05037970095872879
            ],
            "translation" : [
                0,
                0.6002300977706909,
                -0.359918475151062
            ]
        },
        {
            "name" : "Empty",
            "translation" : [
                12.323400497436523,
                11.541740417480469,
                -8.981457710266113
            ]
        },
        {
            "name" : "Empty.001",
            "translation" : [
                0.5919318199157715,
                0.5259613990783691,
                -0.45767951011657715
            ]
        },
        {
            "name" : "Empty.002",
            "translation" : [
                -0.5916509628295898,
                0.5260924100875854,
                -0.45646342635154724
            ]
        },
        {
            "name" : "Empty.003",
            "translation" : [
                -0.3502531051635742,
                0.5638842582702637,
                -0.7366330623626709
            ]
        },
        {
            "mesh" : 1,
            "name" : "Cylinder.005",
            "scale" : [
                0.05037970095872879,
                0.5956084132194519,
                0.05037970095872879
            ],
            "translation" : [
                0.00419674813747406,
                0.0037271976470947266,
                -0.0020713284611701965
            ]
        },
        {
            "mesh" : 2,
            "name" : "Cylinder.006",
            "scale" : [
                0.05037970095872879,
                0.5956084132194519,
                0.05037970095872879
            ],
            "translation" : [
                0.013753204606473446,
                0.757133960723877,
                0.6751536726951599
            ]
        },
        {
            "mesh" : 3,
            "name" : "Cylinder.009",
            "scale" : [
                0.05037970095872879,
                0.5956084132194519,
                0.05037970095872879
            ],
            "translation" : [
                0,
                0.6027159690856934,
                -0.3498351573944092
            ]
        },
        {
            "mesh" : 4,
            "name" : "Cylinder.012",
            "scale" : [
                0.05037970095872879,
                0.5956084132194519,
                0.05037970095872879
            ],
            "translation" : [
                -0.005084616132080555,
                0.721490740776062,
                0.3320196866989136
            ]
        }
    ],
    "materials" : [
        {
            "doubleSided" : true,
            "name" : "Material.001",
            "pbrMetallicRoughness" : {
                "baseColorFactor" : [
                    0.001581143238581717,
                    0.8000000715255737,
                    0,
                    1
                ],
                "metallicFactor" : 0
            }
        },
        {
            "doubleSided" : true,
            "name" : "plant_03_stiel",
            "pbrMetallicRoughness" : {
                "baseColorFactor" : [
                    0.08713869005441666,
                    0,
                    0.06591149419546127,
                    1
                ],
                "metallicFactor" : 0
            }
        },
        {
            "doubleSided" : true,
            "name" : "plant_03_innersphere",
            "pbrMetallicRoughness" : {
                "baseColorFactor" : [
                    0,
                    0.0067456625401973724,
                    0.8000000715255737,
                    1
                ],
                "metallicFactor" : 0
            }
        },
        {
            "doubleSided" : true,
            "name" : "plant_03_sunring",
            "pbrMetallicRoughness" : {
                "baseColorFactor" : [
                    0.6646797060966492,
                    0.8000000715255737,
                    0,
                    1
                ],
                "metallicFactor" : 0
            }
        },
        {
            "doubleSided" : true,
            "name" : "plant_03_schale",
            "pbrMetallicRoughness" : {
                "baseColorFactor" : [
                    0,
                    0.8000000715255737,
                    0.6156022548675537,
                    1
                ],
                "metallicFactor" : 0
            }
        },
        {
            "doubleSided" : true,
            "name" : "plant_03_schale.001",
            "pbrMetallicRoughness" : {
                "baseColorFactor" : [
                    0,
                    0.09850286692380905,
                    0.07757680118083954,
                    1
                ],
                "metallicFactor" : 0
            }
        }
    ],
    "meshes" : [
        {
            "name" : "Cylinder",
            "primitives" : [
                {
                    "attributes" : {
                        "POSITION" : 0,
                        "NORMAL" : 1,
                        "TEXCOORD_0" : 2
                    },
                    "indices" : 3,
                    "material" : 0
                }
            ]
        },
        {
            "name" : "Cylinder.004",
            "primitives" : [
                {
                    "attributes" : {
                        "POSITION" : 4,
                        "NORMAL" : 5,
                        "TEXCOORD_0" : 6
                    },
                    "indices" : 7,
                    "material" : 1
                }
            ]
        },
        {
            "name" : "Cylinder.005",
            "primitives" : [
                {
                    "attributes" : {
                        "POSITION" : 8,
                        "NORMAL" : 9,
                        "TEXCOORD_0" : 10
                    },
                    "indices" : 11,
                    "material" : 2
                },
                {
                    "attributes" : {
                        "POSITION" : 12,
                        "NORMAL" : 13,
                        "TEXCOORD_0" : 14
                    },
                    "indices" : 15,
                    "material" : 3
                }
            ]
        },
        {
            "name" : "Cylinder.008",
            "primitives" : [
                {
                    "attributes" : {
                        "POSITION" : 16,
                        "NORMAL" : 17,
                        "TEXCOORD_0" : 18
                    },
                    "indices" : 19,
                    "material" : 4
                },
                {
                    "attributes" : {
                        "POSITION" : 20,
                        "NORMAL" : 21,
                        "TEXCOORD_0" : 22
                    },
                    "indices" : 23,
                    "material" : 5
                }
            ]
        },
        {
            "name" : "Cylinder.011",
            "primitives" : [
                {
                    "attributes" : {
                        "POSITION" : 24,
                        "NORMAL" : 25,
                        "TEXCOORD_0" : 26
                    },
                    "indices" : 27,
                    "material" : 4
                },
                {
                    "attributes" : {
                        "POSITION" : 28,
                        "NORMAL" : 29,
                        "TEXCOORD_0" : 30
                    },
                    "indices" : 31,
                    "material" : 5
                }
            ]
        }
    ],
    "accessors" : [
        {
            "bufferView" : 0,
            "componentType" : 5126,
            "count" : 970,
            "max" : [
                12.510260581970215,
                0.2207041233778,
                7.728582859039307
            ],
            "min" : [
                -12.510266304016113,
                -0.2889224588871002,
                -8.24168872833252
            ],
            "type" : "VEC3"
        },
        {
            "bufferView" : 1,
            "componentType" : 5126,
            "count" : 970,
            "type" : "VEC3"
        },
        {
            "bufferView" : 2,
            "componentType" : 5126,
            "count" : 970,
            "type" : "VEC2"
        },
        {
            "bufferView" : 3,
            "componentType" : 5123,
            "count" : 4956,
            "type" : "SCALAR"
        },
        {
            "bufferView" : 4,
            "componentType" : 5126,
            "count" : 790,
            "max" : [
                9.271246910095215,
                1.0508077144622803,
                9.674178123474121
            ],
            "min" : [
                -9.703085899353027,
                -0.10433688759803772,
                -5.5146803855896
            ],
            "type" : "VEC3"
        },
        {
            "bufferView" : 5,
            "componentType" : 5126,
            "count" : 790,
            "type" : "VEC3"
        },
        {
            "bufferView" : 6,
            "componentType" : 5126,
            "count" : 790,
            "type" : "VEC2"
        },
        {
            "bufferView" : 7,
            "componentType" : 5123,
            "count" : 4218,
            "type" : "SCALAR"
        },
        {
            "bufferView" : 8,
            "componentType" : 5126,
            "count" : 203,
            "max" : [
                1.5452167987823486,
                0.13352477550506592,
                1.6356449127197266
            ],
            "min" : [
                -1.6893398761749268,
                -0.13879133760929108,
                -1.5837841033935547
            ],
            "type" : "VEC3"
        },
        {
            "bufferView" : 9,
            "componentType" : 5126,
            "count" : 203,
            "type" : "VEC3"
        },
        {
            "bufferView" : 10,
            "componentType" : 5126,
            "count" : 203,
            "type" : "VEC2"
        },
        {
            "bufferView" : 11,
            "componentType" : 5123,
            "count" : 972,
            "type" : "SCALAR"
        },
        {
            "bufferView" : 12,
            "componentType" : 5126,
            "count" : 608,
            "max" : [
                3.411837100982666,
                0.11299043893814087,
                3.4848709106445312
            ],
            "min" : [
                -3.3062551021575928,
                -0.10878486186265945,
                -3.5281057357788086
            ],
            "type" : "VEC3"
        },
        {
            "bufferView" : 13,
            "componentType" : 5126,
            "count" : 608,
            "type" : "VEC3"
        },
        {
            "bufferView" : 14,
            "componentType" : 5126,
            "count" : 608,
            "type" : "VEC2"
        },
        {
            "bufferView" : 15,
            "componentType" : 5123,
            "count" : 2928,
            "type" : "SCALAR"
        },
        {
            "bufferView" : 16,
            "componentType" : 5126,
            "count" : 245,
            "max" : [
                5.522758960723877,
                -0.029146850109100342,
                20.018442153930664
            ],
            "min" : [
                -0.4736652374267578,
                -0.3444492816925049,
                13.350122451782227
            ],
            "type" : "VEC3"
        },
        {
            "bufferView" : 17,
            "componentType" : 5126,
            "count" : 245,
            "type" : "VEC3"
        },
        {
            "bufferView" : 18,
            "componentType" : 5126,
            "count" : 245,
            "type" : "VEC2"
        },
        {
            "bufferView" : 19,
            "componentType" : 5123,
            "count" : 876,
            "type" : "SCALAR"
        },
        {
            "bufferView" : 20,
            "componentType" : 5126,
            "count" : 209,
            "max" : [
                4.771903991699219,
                -0.0294969379901886,
                19.82049560546875
            ],
            "min" : [
                -0.4736652374267578,
                -0.3444492816925049,
                13.350122451782227
            ],
            "type" : "VEC3"
        },
        {
            "bufferView" : 21,
            "componentType" : 5126,
            "count" : 209,
            "type" : "VEC3"
        },
        {
            "bufferView" : 22,
            "componentType" : 5126,
            "count" : 209,
            "type" : "VEC2"
        },
        {
            "bufferView" : 23,
            "componentType" : 5123,
            "count" : 840,
            "type" : "SCALAR"
        },
        {
            "bufferView" : 24,
            "componentType" : 5126,
            "count" : 1274,
            "max" : [
                5.037095069885254,
                0.5606268644332886,
                7.115886688232422
            ],
            "min" : [
                -5.286787509918213,
                -0.4977818727493286,
                -5.9771623611450195
            ],
            "type" : "VEC3"
        },
        {
            "bufferView" : 25,
            "componentType" : 5126,
            "count" : 1274,
            "type" : "VEC3"
        },
        {
            "bufferView" : 26,
            "componentType" : 5126,
            "count" : 1274,
            "type" : "VEC2"
        },
        {
            "bufferView" : 27,
            "componentType" : 5123,
            "count" : 4977,
            "type" : "SCALAR"
        },
        {
            "bufferView" : 28,
            "componentType" : 5126,
            "count" : 901,
            "max" : [
                5.037095069885254,
                0.5377828478813171,
                7.115886688232422
            ],
            "min" : [
                -5.232454776763916,
                -0.4977818727493286,
                -5.9771623611450195
            ],
            "type" : "VEC3"
        },
        {
            "bufferView" : 29,
            "componentType" : 5126,
            "count" : 901,
            "type" : "VEC3"
        },
        {
            "bufferView" : 30,
            "componentType" : 5126,
            "count" : 901,
            "type" : "VEC2"
        },
        {
            "bufferView" : 31,
            "componentType" : 5123,
            "count" : 3267,
            "type" : "SCALAR"
        }
    ],
    "bufferViews" : [
        {
            "buffer" : 0,
            "byteLength" : 11640,
            "byteOffset" : 0,
            "target" : 34962
        },
        {
            "buffer" : 0,
            "byteLength" : 11640,
            "byteOffset" : 11640,
            "target" : 34962
        },
        {
            "buffer" : 0,
            "byteLength" : 7760,
            "byteOffset" : 23280,
            "target" : 34962
        },
        {
            "buffer" : 0,
            "byteLength" : 9912,
            "byteOffset" : 31040,
            "target" : 34963
        },
        {
            "buffer" : 0,
            "byteLength" : 9480,
            "byteOffset" : 40952,
            "target" : 34962
        },
        {
            "buffer" : 0,
            "byteLength" : 9480,
            "byteOffset" : 50432,
            "target" : 34962
        },
        {
            "buffer" : 0,
            "byteLength" : 6320,
            "byteOffset" : 59912,
            "target" : 34962
        },
        {
            "buffer" : 0,
            "byteLength" : 8436,
            "byteOffset" : 66232,
            "target" : 34963
        },
        {
            "buffer" : 0,
            "byteLength" : 2436,
            "byteOffset" : 74668,
            "target" : 34962
        },
        {
            "buffer" : 0,
            "byteLength" : 2436,
            "byteOffset" : 77104,
            "target" : 34962
        },
        {
            "buffer" : 0,
            "byteLength" : 1624,
            "byteOffset" : 79540,
            "target" : 34962
        },
        {
            "buffer" : 0,
            "byteLength" : 1944,
            "byteOffset" : 81164,
            "target" : 34963
        },
        {
            "buffer" : 0,
            "byteLength" : 7296,
            "byteOffset" : 83108,
            "target" : 34962
        },
        {
            "buffer" : 0,
            "byteLength" : 7296,
            "byteOffset" : 90404,
            "target" : 34962
        },
        {
            "buffer" : 0,
            "byteLength" : 4864,
            "byteOffset" : 97700,
            "target" : 34962
        },
        {
            "buffer" : 0,
            "byteLength" : 5856,
            "byteOffset" : 102564,
            "target" : 34963
        },
        {
            "buffer" : 0,
            "byteLength" : 2940,
            "byteOffset" : 108420,
            "target" : 34962
        },
        {
            "buffer" : 0,
            "byteLength" : 2940,
            "byteOffset" : 111360,
            "target" : 34962
        },
        {
            "buffer" : 0,
            "byteLength" : 1960,
            "byteOffset" : 114300,
            "target" : 34962
        },
        {
            "buffer" : 0,
            "byteLength" : 1752,
            "byteOffset" : 116260,
            "target" : 34963
        },
        {
            "buffer" : 0,
            "byteLength" : 2508,
            "byteOffset" : 118012,
            "target" : 34962
        },
        {
            "buffer" : 0,
            "byteLength" : 2508,
            "byteOffset" : 120520,
            "target" : 34962
        },
        {
            "buffer" : 0,
            "byteLength" : 1672,
            "byteOffset" : 123028,
            "target" : 34962
        },
        {
            "buffer" : 0,
            "byteLength" : 1680,
            "byteOffset" : 124700,
            "target" : 34963
        },
        {
            "buffer" : 0,
            "byteLength" : 15288,
            "byteOffset" : 126380,
            "target" : 34962
        },
        {
            "buffer" : 0,
            "byteLength" : 15288,
            "byteOffset" : 141668,
            "target" : 34962
        },
        {
            "buffer" : 0,
            "byteLength" : 10192,
            "byteOffset" : 156956,
            "target" : 34962
        },
        {
            "buffer" : 0,
            "byteLength" : 9954,
            "byteOffset" : 167148,
            "target" : 34963
        },
        {
            "buffer" : 0,
            "byteLength" : 10812,
            "byteOffset" : 177104,
            "target" : 34962
        },
        {
            "buffer" : 0,
            "byteLength" : 10812,
            "byteOffset" : 187916,
            "target" : 34962
        },
        {
            "buffer" : 0,
            "byteLength" : 7208,
            "byteOffset" : 198728,
            "target" : 34962
        },
        {
            "buffer" : 0,
            "byteLength" : 6534,
            "byteOffset" : 205936,
            "target" : 34963
        }
    ],
    "buffers" : [
        {
            "byteLength" : 212472,
            "uri" : "plant_03_universsun_state01.bin"
        }
    ]
}
