{
    "asset" : {
        "generator" : "Khronos glTF Blender I/O v3.3.32",
        "version" : "2.0"
    },
    "scene" : 0,
    "scenes" : [
        {
            "name" : "Scene",
            "nodes" : [
                0
            ]
        }
    ],
    "nodes" : [
        {
            "mesh" : 0,
            "name" : "Sphere"
        }
    ],
    "materials" : [
        {
            "doubleSided" : true,
            "name" : "PinoSeed",
            "pbrMetallicRoughness" : {
                "baseColorFactor" : [
                    0.0549483597278595,
                    0.028015224263072014,
                    0.010497580282390118,
                    1
                ],
                "metallicFactor" : 0,
                "roughnessFactor" : 0.8471502661705017
            }
        }
    ],
    "meshes" : [
        {
            "name" : "Sphere.001",
            "primitives" : [
                {
                    "attributes" : {
                        "POSITION" : 0,
                        "NORMAL" : 1,
                        "TEXCOORD_0" : 2
                    },
                    "indices" : 3,
                    "material" : 0
                }
            ]
        }
    ],
    "accessors" : [
        {
            "bufferView" : 0,
            "componentType" : 5126,
            "count" : 766,
            "max" : [
                0.07433507591485977,
                0.07252050191164017,
                0.0744328647851944
            ],
            "min" : [
                -0.07414890825748444,
                -0.06773939728736877,
                -0.07423164695501328
            ],
            "type" : "VEC3"
        },
        {
            "bufferView" : 1,
            "componentType" : 5126,
            "count" : 766,
            "type" : "VEC3"
        },
        {
            "bufferView" : 2,
            "componentType" : 5126,
            "count" : 766,
            "type" : "VEC2"
        },
        {
            "bufferView" : 3,
            "componentType" : 5123,
            "count" : 1662,
            "type" : "SCALAR"
        }
    ],
    "bufferViews" : [
        {
            "buffer" : 0,
            "byteLength" : 9192,
            "byteOffset" : 0,
            "target" : 34962
        },
        {
            "buffer" : 0,
            "byteLength" : 9192,
            "byteOffset" : 9192,
            "target" : 34962
        },
        {
            "buffer" : 0,
            "byteLength" : 6128,
            "byteOffset" : 18384,
            "target" : 34962
        },
        {
            "buffer" : 0,
            "byteLength" : 3324,
            "byteOffset" : 24512,
            "target" : 34963
        }
    ],
    "buffers" : [
        {
            "byteLength" : 27836,
            "uri" : "PlantPinoSeed.bin"
        }
    ]
}
