{
    "asset" : {
        "generator" : "Khronos glTF Blender I/O v1.8.19",
        "version" : "2.0"
    },
    "scene" : 0,
    "scenes" : [
        {
            "name" : "Scene",
            "nodes" : [
                0
            ]
        }
    ],
    "nodes" : [
        {
            "mesh" : 0,
            "name" : "Shovel"
        }
    ],
    "materials" : [
        {
            "doubleSided" : true,
            "name" : "SchovelMetal",
            "pbrMetallicRoughness" : {
                "baseColorFactor" : [
                    0.08353134244680405,
                    0.08353134244680405,
                    0.08353134244680405,
                    1
                ],
                "metallicFactor" : 0,
                "roughnessFactor" : 0.15354329347610474
            }
        },
        {
            "doubleSided" : true,
            "name" : "ShovelBrown",
            "pbrMetallicRoughness" : {
                "baseColorFactor" : [
                    0.3931143581867218,
                    0.16078372299671173,
                    0.11262880265712738,
                    1
                ],
                "metallicFactor" : 0,
                "roughnessFactor" : 0.699999988079071
            }
        }
    ],
    "meshes" : [
        {
            "name" : "Cube.011",
            "primitives" : [
                {
                    "attributes" : {
                        "POSITION" : 0,
                        "NORMAL" : 1,
                        "TEXCOORD_0" : 2
                    },
                    "indices" : 3,
                    "material" : 0
                },
                {
                    "attributes" : {
                        "POSITION" : 4,
                        "NORMAL" : 5,
                        "TEXCOORD_0" : 6
                    },
                    "indices" : 7,
                    "material" : 1
                }
            ]
        }
    ],
    "accessors" : [
        {
            "bufferView" : 0,
            "componentType" : 5126,
            "count" : 150,
            "max" : [
                0.19925519824028015,
                1.9350696802139282,
                0.04115938022732735
            ],
            "min" : [
                -0.19925519824028015,
                1.3709874153137207,
                -0.04115942120552063
            ],
            "type" : "VEC3"
        },
        {
            "bufferView" : 1,
            "componentType" : 5126,
            "count" : 150,
            "type" : "VEC3"
        },
        {
            "bufferView" : 2,
            "componentType" : 5126,
            "count" : 150,
            "type" : "VEC2"
        },
        {
            "bufferView" : 3,
            "componentType" : 5123,
            "count" : 558,
            "type" : "SCALAR"
        },
        {
            "bufferView" : 4,
            "componentType" : 5126,
            "count" : 34,
            "max" : [
                0.033507607877254486,
                1.546502947807312,
                0.033507589250802994
            ],
            "min" : [
                -0.033507607877254486,
                0,
                -0.03350762650370598
            ],
            "type" : "VEC3"
        },
        {
            "bufferView" : 5,
            "componentType" : 5126,
            "count" : 34,
            "type" : "VEC3"
        },
        {
            "bufferView" : 6,
            "componentType" : 5126,
            "count" : 34,
            "type" : "VEC2"
        },
        {
            "bufferView" : 7,
            "componentType" : 5123,
            "count" : 84,
            "type" : "SCALAR"
        }
    ],
    "bufferViews" : [
        {
            "buffer" : 0,
            "byteLength" : 1800,
            "byteOffset" : 0
        },
        {
            "buffer" : 0,
            "byteLength" : 1800,
            "byteOffset" : 1800
        },
        {
            "buffer" : 0,
            "byteLength" : 1200,
            "byteOffset" : 3600
        },
        {
            "buffer" : 0,
            "byteLength" : 1116,
            "byteOffset" : 4800
        },
        {
            "buffer" : 0,
            "byteLength" : 408,
            "byteOffset" : 5916
        },
        {
            "buffer" : 0,
            "byteLength" : 408,
            "byteOffset" : 6324
        },
        {
            "buffer" : 0,
            "byteLength" : 272,
            "byteOffset" : 6732
        },
        {
            "buffer" : 0,
            "byteLength" : 168,
            "byteOffset" : 7004
        }
    ],
    "buffers" : [
        {
            "byteLength" : 7172,
            "uri" : "Shovel.bin"
        }
    ]
}
