{
    "asset" : {
        "generator" : "Khronos glTF Blender I/O v1.8.19",
        "version" : "2.0"
    },
    "scene" : 0,
    "scenes" : [
        {
            "name" : "Scene",
            "nodes" : [
                0,
                1,
                2,
                3,
                4,
                5,
                6
            ]
        }
    ],
    "nodes" : [
        {
            "mesh" : 0,
            "name" : "ShroomPlantV1BlossomMiddle"
        },
        {
            "mesh" : 1,
            "name" : "ShroomPlantV1BlossomLeft"
        },
        {
            "mesh" : 2,
            "name" : "ShroomPlantV1BlossomRight"
        },
        {
            "mesh" : 3,
            "name" : "SchroomPlantV1Stem"
        },
        {
            "name" : "Empty",
            "translation" : [
                -0.15819188952445984,
                0.06035957857966423,
                0.03996933251619339
            ]
        },
        {
            "name" : "Empty.001",
            "translation" : [
                0,
                0.2702561020851135,
                0
            ]
        },
        {
            "name" : "Empty.002",
            "translation" : [
                0.21000711619853973,
                0.13211138546466827,
                -0.007890719920396805
            ]
        }
    ],
    "materials" : [
        {
            "doubleSided" : true,
            "name" : "ShroomPlantTexture",
            "pbrMetallicRoughness" : {
                "baseColorTexture" : {
                    "index" : 0
                },
                "metallicFactor" : 0,
                "roughnessFactor" : 0.5
            }
        }
    ],
    "meshes" : [
        {
            "name" : "Sphere",
            "primitives" : [
                {
                    "attributes" : {
                        "POSITION" : 0,
                        "NORMAL" : 1,
                        "TEXCOORD_0" : 2
                    },
                    "indices" : 3,
                    "material" : 0
                }
            ]
        },
        {
            "name" : "Sphere.001",
            "primitives" : [
                {
                    "attributes" : {
                        "POSITION" : 4,
                        "NORMAL" : 5,
                        "TEXCOORD_0" : 6
                    },
                    "indices" : 7,
                    "material" : 0
                }
            ]
        },
        {
            "name" : "Sphere.002",
            "primitives" : [
                {
                    "attributes" : {
                        "POSITION" : 8,
                        "NORMAL" : 9,
                        "TEXCOORD_0" : 10
                    },
                    "indices" : 11,
                    "material" : 0
                }
            ]
        },
        {
            "name" : "Cylinder",
            "primitives" : [
                {
                    "attributes" : {
                        "POSITION" : 12,
                        "NORMAL" : 13,
                        "TEXCOORD_0" : 14
                    },
                    "indices" : 15,
                    "material" : 0
                }
            ]
        }
    ],
    "textures" : [
        {
            "sampler" : 0,
            "source" : 0
        }
    ],
    "images" : [
        {
            "mimeType" : "image/png",
            "name" : "ShroomPlantTexture",
            "uri" : "ShroomPlantTexture.png"
        }
    ],
    "accessors" : [
        {
            "bufferView" : 0,
            "componentType" : 5126,
            "count" : 60,
            "max" : [
                0.09575653821229935,
                0.2842918336391449,
                0.09575671702623367
            ],
            "min" : [
                -0.09575662761926651,
                0.09277860820293427,
                -0.09575651586055756
            ],
            "type" : "VEC3"
        },
        {
            "bufferView" : 1,
            "componentType" : 5126,
            "count" : 60,
            "type" : "VEC3"
        },
        {
            "bufferView" : 2,
            "componentType" : 5126,
            "count" : 60,
            "type" : "VEC2"
        },
        {
            "bufferView" : 3,
            "componentType" : 5123,
            "count" : 144,
            "type" : "SCALAR"
        },
        {
            "bufferView" : 4,
            "componentType" : 5126,
            "count" : 66,
            "max" : [
                -0.03355724364519119,
                0.14587102830410004,
                0.14165258407592773
            ],
            "min" : [
                -0.15849733352661133,
                0.02504684589803219,
                0.020317425951361656
            ],
            "type" : "VEC3"
        },
        {
            "bufferView" : 5,
            "componentType" : 5126,
            "count" : 66,
            "type" : "VEC3"
        },
        {
            "bufferView" : 6,
            "componentType" : 5126,
            "count" : 66,
            "type" : "VEC2"
        },
        {
            "bufferView" : 7,
            "componentType" : 5123,
            "count" : 144,
            "type" : "SCALAR"
        },
        {
            "bufferView" : 8,
            "componentType" : 5126,
            "count" : 66,
            "max" : [
                0.21872244775295258,
                0.1736636608839035,
                0.06923668831586838
            ],
            "min" : [
                0.056871604174375534,
                0.011812741868197918,
                -0.09828945249319077
            ],
            "type" : "VEC3"
        },
        {
            "bufferView" : 9,
            "componentType" : 5126,
            "count" : 66,
            "type" : "VEC3"
        },
        {
            "bufferView" : 10,
            "componentType" : 5126,
            "count" : 66,
            "type" : "VEC2"
        },
        {
            "bufferView" : 11,
            "componentType" : 5123,
            "count" : 144,
            "type" : "SCALAR"
        },
        {
            "bufferView" : 12,
            "componentType" : 5126,
            "count" : 129,
            "max" : [
                0.0938665121793747,
                0.10697893798351288,
                0.09256469458341599
            ],
            "min" : [
                -0.07522568106651306,
                -0.009661947377026081,
                -0.013407601043581963
            ],
            "type" : "VEC3"
        },
        {
            "bufferView" : 13,
            "componentType" : 5126,
            "count" : 129,
            "type" : "VEC3"
        },
        {
            "bufferView" : 14,
            "componentType" : 5126,
            "count" : 129,
            "type" : "VEC2"
        },
        {
            "bufferView" : 15,
            "componentType" : 5123,
            "count" : 288,
            "type" : "SCALAR"
        }
    ],
    "bufferViews" : [
        {
            "buffer" : 0,
            "byteLength" : 720,
            "byteOffset" : 0
        },
        {
            "buffer" : 0,
            "byteLength" : 720,
            "byteOffset" : 720
        },
        {
            "buffer" : 0,
            "byteLength" : 480,
            "byteOffset" : 1440
        },
        {
            "buffer" : 0,
            "byteLength" : 288,
            "byteOffset" : 1920
        },
        {
            "buffer" : 0,
            "byteLength" : 792,
            "byteOffset" : 2208
        },
        {
            "buffer" : 0,
            "byteLength" : 792,
            "byteOffset" : 3000
        },
        {
            "buffer" : 0,
            "byteLength" : 528,
            "byteOffset" : 3792
        },
        {
            "buffer" : 0,
            "byteLength" : 288,
            "byteOffset" : 4320
        },
        {
            "buffer" : 0,
            "byteLength" : 792,
            "byteOffset" : 4608
        },
        {
            "buffer" : 0,
            "byteLength" : 792,
            "byteOffset" : 5400
        },
        {
            "buffer" : 0,
            "byteLength" : 528,
            "byteOffset" : 6192
        },
        {
            "buffer" : 0,
            "byteLength" : 288,
            "byteOffset" : 6720
        },
        {
            "buffer" : 0,
            "byteLength" : 1548,
            "byteOffset" : 7008
        },
        {
            "buffer" : 0,
            "byteLength" : 1548,
            "byteOffset" : 8556
        },
        {
            "buffer" : 0,
            "byteLength" : 1032,
            "byteOffset" : 10104
        },
        {
            "buffer" : 0,
            "byteLength" : 576,
            "byteOffset" : 11136
        }
    ],
    "samplers" : [
        {
            "magFilter" : 9729,
            "minFilter" : 9987
        }
    ],
    "buffers" : [
        {
            "byteLength" : 11712,
            "uri" : "ShroomPlantState00.bin"
        }
    ]
}
