{
    "asset" : {
        "generator" : "Khronos glTF Blender I/O v1.8.19",
        "version" : "2.0"
    },
    "scene" : 0,
    "scenes" : [
        {
            "name" : "Scene",
            "nodes" : [
                0,
                1,
                2,
                3,
                4
            ]
        }
    ],
    "nodes" : [
        {
            "mesh" : 0,
            "name" : "ShroomPlantV4Stem"
        },
        {
            "mesh" : 1,
            "name" : "ShroomPlantV4Blossom"
        },
        {
            "name" : "Empty.009",
            "translation" : [
                -0.4068331718444824,
                0.9935110211372375,
                0
            ]
        },
        {
            "name" : "Empty.010",
            "translation" : [
                -0.005289554595947266,
                1.146522045135498,
                0
            ]
        },
        {
            "name" : "Empty.011",
            "translation" : [
                0.5058116912841797,
                1.0232791900634766,
                0
            ]
        }
    ],
    "materials" : [
        {
            "doubleSided" : true,
            "name" : "ShroomPlantTexture",
            "pbrMetallicRoughness" : {
                "baseColorTexture" : {
                    "index" : 0
                },
                "metallicFactor" : 0,
                "roughnessFactor" : 0.5
            }
        }
    ],
    "meshes" : [
        {
            "name" : "Cylinder.003",
            "primitives" : [
                {
                    "attributes" : {
                        "POSITION" : 0,
                        "NORMAL" : 1,
                        "TEXCOORD_0" : 2
                    },
                    "indices" : 3,
                    "material" : 0
                }
            ]
        },
        {
            "name" : "Sphere.008",
            "primitives" : [
                {
                    "attributes" : {
                        "POSITION" : 4,
                        "NORMAL" : 5,
                        "TEXCOORD_0" : 6
                    },
                    "indices" : 7,
                    "material" : 0
                }
            ]
        }
    ],
    "textures" : [
        {
            "sampler" : 0,
            "source" : 0
        }
    ],
    "images" : [
        {
            "mimeType" : "image/png",
            "name" : "ShroomPlantTexture",
            "uri" : "ShroomPlantTexture.png"
        }
    ],
    "accessors" : [
        {
            "bufferView" : 0,
            "componentType" : 5126,
            "count" : 107,
            "max" : [
                0.4755001366138458,
                1.0297088623046875,
                0.16382837295532227
            ],
            "min" : [
                -0.531050443649292,
                0,
                -0.11182491481304169
            ],
            "type" : "VEC3"
        },
        {
            "bufferView" : 1,
            "componentType" : 5126,
            "count" : 107,
            "type" : "VEC3"
        },
        {
            "bufferView" : 2,
            "componentType" : 5126,
            "count" : 107,
            "type" : "VEC2"
        },
        {
            "bufferView" : 3,
            "componentType" : 5123,
            "count" : 216,
            "type" : "SCALAR"
        },
        {
            "bufferView" : 4,
            "componentType" : 5126,
            "count" : 142,
            "max" : [
                0.6330284476280212,
                1.1665911674499512,
                0.379821240901947
            ],
            "min" : [
                -0.6461389660835266,
                0.7903857827186584,
                -0.3728586435317993
            ],
            "type" : "VEC3"
        },
        {
            "bufferView" : 5,
            "componentType" : 5126,
            "count" : 142,
            "type" : "VEC3"
        },
        {
            "bufferView" : 6,
            "componentType" : 5126,
            "count" : 142,
            "type" : "VEC2"
        },
        {
            "bufferView" : 7,
            "componentType" : 5123,
            "count" : 462,
            "type" : "SCALAR"
        }
    ],
    "bufferViews" : [
        {
            "buffer" : 0,
            "byteLength" : 1284,
            "byteOffset" : 0
        },
        {
            "buffer" : 0,
            "byteLength" : 1284,
            "byteOffset" : 1284
        },
        {
            "buffer" : 0,
            "byteLength" : 856,
            "byteOffset" : 2568
        },
        {
            "buffer" : 0,
            "byteLength" : 432,
            "byteOffset" : 3424
        },
        {
            "buffer" : 0,
            "byteLength" : 1704,
            "byteOffset" : 3856
        },
        {
            "buffer" : 0,
            "byteLength" : 1704,
            "byteOffset" : 5560
        },
        {
            "buffer" : 0,
            "byteLength" : 1136,
            "byteOffset" : 7264
        },
        {
            "buffer" : 0,
            "byteLength" : 924,
            "byteOffset" : 8400
        }
    ],
    "samplers" : [
        {
            "magFilter" : 9729,
            "minFilter" : 9987
        }
    ],
    "buffers" : [
        {
            "byteLength" : 9324,
            "uri" : "ShroomPlantState03.bin"
        }
    ]
}
