{
    "asset" : {
        "generator" : "Khronos glTF Blender I/O v3.3.32",
        "version" : "2.0"
    },
    "scene" : 0,
    "scenes" : [
        {
            "name" : "Scene",
            "nodes" : [
                0
            ]
        }
    ],
    "nodes" : [
        {
            "mesh" : 0,
            "name" : "Icosphere",
            "scale" : [
                0.07746906578540802,
                0.07746906578540802,
                0.07746906578540802
            ]
        }
    ],
    "materials" : [
        {
            "doubleSided" : true,
            "name" : "ShroomPlantSeed",
            "pbrMetallicRoughness" : {
                "baseColorFactor" : [
                    0.16764239966869354,
                    0.022723006084561348,
                    0.25979822874069214,
                    1
                ],
                "metallicFactor" : 0,
                "roughnessFactor" : 0.5
            }
        }
    ],
    "meshes" : [
        {
            "name" : "Icosphere",
            "primitives" : [
                {
                    "attributes" : {
                        "POSITION" : 0,
                        "NORMAL" : 1,
                        "TEXCOORD_0" : 2
                    },
                    "indices" : 3,
                    "material" : 0
                }
            ]
        }
    ],
    "accessors" : [
        {
            "bufferView" : 0,
            "componentType" : 5126,
            "count" : 383,
            "max" : [
                1.2055442333221436,
                1.2814241647720337,
                1.2731318473815918
            ],
            "min" : [
                -1.3386188745498657,
                -1.2813822031021118,
                -1.3492239713668823
            ],
            "type" : "VEC3"
        },
        {
            "bufferView" : 1,
            "componentType" : 5126,
            "count" : 383,
            "type" : "VEC3"
        },
        {
            "bufferView" : 2,
            "componentType" : 5126,
            "count" : 383,
            "type" : "VEC2"
        },
        {
            "bufferView" : 3,
            "componentType" : 5123,
            "count" : 1902,
            "type" : "SCALAR"
        }
    ],
    "bufferViews" : [
        {
            "buffer" : 0,
            "byteLength" : 4596,
            "byteOffset" : 0,
            "target" : 34962
        },
        {
            "buffer" : 0,
            "byteLength" : 4596,
            "byteOffset" : 4596,
            "target" : 34962
        },
        {
            "buffer" : 0,
            "byteLength" : 3064,
            "byteOffset" : 9192,
            "target" : 34962
        },
        {
            "buffer" : 0,
            "byteLength" : 3804,
            "byteOffset" : 12256,
            "target" : 34963
        }
    ],
    "buffers" : [
        {
            "byteLength" : 16060,
            "uri" : "ShroomPlantSamen.bin"
        }
    ]
}
