{
    "asset" : {
        "generator" : "Khronos glTF Blender I/O v1.8.19",
        "version" : "2.0"
    },
    "scene" : 0,
    "scenes" : [
        {
            "name" : "Scene",
            "nodes" : [
                0,
                1,
                2,
                3,
                4,
                5,
                6
            ]
        }
    ],
    "nodes" : [
        {
            "mesh" : 0,
            "name" : "ShroomPlantV2BlossomMiddle"
        },
        {
            "mesh" : 1,
            "name" : "ShroomPlantV2BlossomLeft"
        },
        {
            "mesh" : 2,
            "name" : "ShroomPlantV2BlossomRight"
        },
        {
            "mesh" : 3,
            "name" : "SchroomPlantV2Stem"
        },
        {
            "name" : "Empty.003",
            "translation" : [
                0.0038390159606933594,
                0.5827887058258057,
                0
            ]
        },
        {
            "name" : "Empty.004",
            "translation" : [
                -0.17718112468719482,
                0.3374616801738739,
                0.09663420915603638
            ]
        },
        {
            "name" : "Empty.005",
            "translation" : [
                0.23964548110961914,
                0.3600260019302368,
                -0.015150483697652817
            ]
        }
    ],
    "materials" : [
        {
            "doubleSided" : true,
            "name" : "ShroomPlantTexture",
            "pbrMetallicRoughness" : {
                "baseColorTexture" : {
                    "index" : 0
                },
                "metallicFactor" : 0,
                "roughnessFactor" : 0.5
            }
        }
    ],
    "meshes" : [
        {
            "name" : "Sphere.003",
            "primitives" : [
                {
                    "attributes" : {
                        "POSITION" : 0,
                        "NORMAL" : 1,
                        "TEXCOORD_0" : 2
                    },
                    "indices" : 3,
                    "material" : 0
                }
            ]
        },
        {
            "name" : "Sphere.004",
            "primitives" : [
                {
                    "attributes" : {
                        "POSITION" : 4,
                        "NORMAL" : 5,
                        "TEXCOORD_0" : 6
                    },
                    "indices" : 7,
                    "material" : 0
                }
            ]
        },
        {
            "name" : "Sphere.005",
            "primitives" : [
                {
                    "attributes" : {
                        "POSITION" : 8,
                        "NORMAL" : 9,
                        "TEXCOORD_0" : 10
                    },
                    "indices" : 11,
                    "material" : 0
                }
            ]
        },
        {
            "name" : "Cylinder.006",
            "primitives" : [
                {
                    "attributes" : {
                        "POSITION" : 12,
                        "NORMAL" : 13,
                        "TEXCOORD_0" : 14
                    },
                    "indices" : 15,
                    "material" : 0
                }
            ]
        }
    ],
    "textures" : [
        {
            "sampler" : 0,
            "source" : 0
        }
    ],
    "images" : [
        {
            "mimeType" : "image/png",
            "name" : "ShroomPlantTexture",
            "uri" : "ShroomPlantTexture.png"
        }
    ],
    "accessors" : [
        {
            "bufferView" : 0,
            "componentType" : 5126,
            "count" : 57,
            "max" : [
                0.13881243765354156,
                0.5863614082336426,
                0.14287634193897247
            ],
            "min" : [
                -0.13592150807380676,
                0.35156700015068054,
                -0.1318577229976654
            ],
            "type" : "VEC3"
        },
        {
            "bufferView" : 1,
            "componentType" : 5126,
            "count" : 57,
            "type" : "VEC3"
        },
        {
            "bufferView" : 2,
            "componentType" : 5126,
            "count" : 57,
            "type" : "VEC2"
        },
        {
            "bufferView" : 3,
            "componentType" : 5123,
            "count" : 144,
            "type" : "SCALAR"
        },
        {
            "bufferView" : 4,
            "componentType" : 5126,
            "count" : 66,
            "max" : [
                -0.07843650132417679,
                0.353193461894989,
                0.15553230047225952
            ],
            "min" : [
                -0.21675239503383636,
                0.2373221516609192,
                0.021207302808761597
            ],
            "type" : "VEC3"
        },
        {
            "bufferView" : 5,
            "componentType" : 5126,
            "count" : 66,
            "type" : "VEC3"
        },
        {
            "bufferView" : 6,
            "componentType" : 5126,
            "count" : 66,
            "type" : "VEC2"
        },
        {
            "bufferView" : 7,
            "componentType" : 5123,
            "count" : 144,
            "type" : "SCALAR"
        },
        {
            "bufferView" : 8,
            "componentType" : 5126,
            "count" : 47,
            "max" : [
                0.3107214570045471,
                0.3748471140861511,
                0.082158163189888
            ],
            "min" : [
                0.13154327869415283,
                0.24910512566566467,
                -0.10330287367105484
            ],
            "type" : "VEC3"
        },
        {
            "bufferView" : 9,
            "componentType" : 5126,
            "count" : 47,
            "type" : "VEC3"
        },
        {
            "bufferView" : 10,
            "componentType" : 5126,
            "count" : 47,
            "type" : "VEC2"
        },
        {
            "bufferView" : 11,
            "componentType" : 5123,
            "count" : 144,
            "type" : "SCALAR"
        },
        {
            "bufferView" : 12,
            "componentType" : 5126,
            "count" : 111,
            "max" : [
                0.18369722366333008,
                0.3978014588356018,
                0.06856964528560638
            ],
            "min" : [
                -0.15132737159729004,
                0,
                -0.04320058971643448
            ],
            "type" : "VEC3"
        },
        {
            "bufferView" : 13,
            "componentType" : 5126,
            "count" : 111,
            "type" : "VEC3"
        },
        {
            "bufferView" : 14,
            "componentType" : 5126,
            "count" : 111,
            "type" : "VEC2"
        },
        {
            "bufferView" : 15,
            "componentType" : 5123,
            "count" : 216,
            "type" : "SCALAR"
        }
    ],
    "bufferViews" : [
        {
            "buffer" : 0,
            "byteLength" : 684,
            "byteOffset" : 0
        },
        {
            "buffer" : 0,
            "byteLength" : 684,
            "byteOffset" : 684
        },
        {
            "buffer" : 0,
            "byteLength" : 456,
            "byteOffset" : 1368
        },
        {
            "buffer" : 0,
            "byteLength" : 288,
            "byteOffset" : 1824
        },
        {
            "buffer" : 0,
            "byteLength" : 792,
            "byteOffset" : 2112
        },
        {
            "buffer" : 0,
            "byteLength" : 792,
            "byteOffset" : 2904
        },
        {
            "buffer" : 0,
            "byteLength" : 528,
            "byteOffset" : 3696
        },
        {
            "buffer" : 0,
            "byteLength" : 288,
            "byteOffset" : 4224
        },
        {
            "buffer" : 0,
            "byteLength" : 564,
            "byteOffset" : 4512
        },
        {
            "buffer" : 0,
            "byteLength" : 564,
            "byteOffset" : 5076
        },
        {
            "buffer" : 0,
            "byteLength" : 376,
            "byteOffset" : 5640
        },
        {
            "buffer" : 0,
            "byteLength" : 288,
            "byteOffset" : 6016
        },
        {
            "buffer" : 0,
            "byteLength" : 1332,
            "byteOffset" : 6304
        },
        {
            "buffer" : 0,
            "byteLength" : 1332,
            "byteOffset" : 7636
        },
        {
            "buffer" : 0,
            "byteLength" : 888,
            "byteOffset" : 8968
        },
        {
            "buffer" : 0,
            "byteLength" : 432,
            "byteOffset" : 9856
        }
    ],
    "samplers" : [
        {
            "magFilter" : 9729,
            "minFilter" : 9987
        }
    ],
    "buffers" : [
        {
            "byteLength" : 10288,
            "uri" : "ShroomPlantState01.bin"
        }
    ]
}
