{
    "asset" : {
        "generator" : "Khronos glTF Blender I/O v1.8.19",
        "version" : "2.0"
    },
    "scene" : 0,
    "scenes" : [
        {
            "name" : "Scene",
            "nodes" : [
                0,
                1,
                2,
                3,
                4,
                5,
                6
            ]
        }
    ],
    "nodes" : [
        {
            "mesh" : 0,
            "name" : "ShroomPlantV3Stem"
        },
        {
            "mesh" : 1,
            "name" : "ShroomPlantV3BlossomMiddle"
        },
        {
            "mesh" : 2,
            "name" : "ShroomPlantV3BlossomLeft"
        },
        {
            "mesh" : 3,
            "name" : "ShroomPlantV3BlossomRight"
        },
        {
            "name" : "Empty.006",
            "translation" : [
                -0.39740586280822754,
                0.8660127520561218,
                0.15726391971111298
            ]
        },
        {
            "name" : "Empty.007",
            "translation" : [
                0.03657960891723633,
                1.147950530052185,
                -0.03767368197441101
            ]
        },
        {
            "name" : "Empty.008",
            "translation" : [
                0.581449031829834,
                0.9246248006820679,
                -0.03767368197441101
            ]
        }
    ],
    "materials" : [
        {
            "doubleSided" : true,
            "name" : "ShroomPlantTexture",
            "pbrMetallicRoughness" : {
                "baseColorTexture" : {
                    "index" : 0
                },
                "metallicFactor" : 0,
                "roughnessFactor" : 0.5
            }
        }
    ],
    "meshes" : [
        {
            "name" : "Cylinder.007",
            "primitives" : [
                {
                    "attributes" : {
                        "POSITION" : 0,
                        "NORMAL" : 1,
                        "TEXCOORD_0" : 2
                    },
                    "indices" : 3,
                    "material" : 0
                }
            ]
        },
        {
            "name" : "Sphere.006",
            "primitives" : [
                {
                    "attributes" : {
                        "POSITION" : 4,
                        "NORMAL" : 5,
                        "TEXCOORD_0" : 6
                    },
                    "indices" : 7,
                    "material" : 0
                }
            ]
        },
        {
            "name" : "Sphere.007",
            "primitives" : [
                {
                    "attributes" : {
                        "POSITION" : 8,
                        "NORMAL" : 9,
                        "TEXCOORD_0" : 10
                    },
                    "indices" : 11,
                    "material" : 0
                }
            ]
        },
        {
            "name" : "Sphere.009",
            "primitives" : [
                {
                    "attributes" : {
                        "POSITION" : 12,
                        "NORMAL" : 13,
                        "TEXCOORD_0" : 14
                    },
                    "indices" : 15,
                    "material" : 0
                }
            ]
        }
    ],
    "textures" : [
        {
            "sampler" : 0,
            "source" : 0
        }
    ],
    "images" : [
        {
            "mimeType" : "image/png",
            "name" : "ShroomPlantTexture",
            "uri" : "ShroomPlantTexture.png"
        }
    ],
    "accessors" : [
        {
            "bufferView" : 0,
            "componentType" : 5126,
            "count" : 108,
            "max" : [
                0.4755001366138458,
                1.0297088623046875,
                0.17749224603176117
            ],
            "min" : [
                -0.3917107880115509,
                0,
                -0.11182491481304169
            ],
            "type" : "VEC3"
        },
        {
            "bufferView" : 1,
            "componentType" : 5126,
            "count" : 108,
            "type" : "VEC3"
        },
        {
            "bufferView" : 2,
            "componentType" : 5126,
            "count" : 108,
            "type" : "VEC2"
        },
        {
            "bufferView" : 3,
            "componentType" : 5123,
            "count" : 216,
            "type" : "SCALAR"
        },
        {
            "bufferView" : 4,
            "componentType" : 5126,
            "count" : 56,
            "max" : [
                0.45940348505973816,
                1.1586377620697021,
                0.39900457859039307
            ],
            "min" : [
                -0.4565119743347168,
                0.9666141867637634,
                -0.3879860043525696
            ],
            "type" : "VEC3"
        },
        {
            "bufferView" : 5,
            "componentType" : 5126,
            "count" : 56,
            "type" : "VEC3"
        },
        {
            "bufferView" : 6,
            "componentType" : 5126,
            "count" : 56,
            "type" : "VEC2"
        },
        {
            "bufferView" : 7,
            "componentType" : 5123,
            "count" : 192,
            "type" : "SCALAR"
        },
        {
            "bufferView" : 8,
            "componentType" : 5126,
            "count" : 59,
            "max" : [
                -0.1782708764076233,
                0.9863307476043701,
                0.4793888032436371
            ],
            "min" : [
                -0.6817424893379211,
                0.7167707085609436,
                -0.05461132153868675
            ],
            "type" : "VEC3"
        },
        {
            "bufferView" : 9,
            "componentType" : 5126,
            "count" : 59,
            "type" : "VEC3"
        },
        {
            "bufferView" : 10,
            "componentType" : 5126,
            "count" : 59,
            "type" : "VEC2"
        },
        {
            "bufferView" : 11,
            "componentType" : 5123,
            "count" : 192,
            "type" : "SCALAR"
        },
        {
            "bufferView" : 12,
            "componentType" : 5126,
            "count" : 63,
            "max" : [
                0.7032457590103149,
                1.1026946306228638,
                0.10474767535924911
            ],
            "min" : [
                0.42093944549560547,
                0.7608954906463623,
                -0.30079084634780884
            ],
            "type" : "VEC3"
        },
        {
            "bufferView" : 13,
            "componentType" : 5126,
            "count" : 63,
            "type" : "VEC3"
        },
        {
            "bufferView" : 14,
            "componentType" : 5126,
            "count" : 63,
            "type" : "VEC2"
        },
        {
            "bufferView" : 15,
            "componentType" : 5123,
            "count" : 192,
            "type" : "SCALAR"
        }
    ],
    "bufferViews" : [
        {
            "buffer" : 0,
            "byteLength" : 1296,
            "byteOffset" : 0
        },
        {
            "buffer" : 0,
            "byteLength" : 1296,
            "byteOffset" : 1296
        },
        {
            "buffer" : 0,
            "byteLength" : 864,
            "byteOffset" : 2592
        },
        {
            "buffer" : 0,
            "byteLength" : 432,
            "byteOffset" : 3456
        },
        {
            "buffer" : 0,
            "byteLength" : 672,
            "byteOffset" : 3888
        },
        {
            "buffer" : 0,
            "byteLength" : 672,
            "byteOffset" : 4560
        },
        {
            "buffer" : 0,
            "byteLength" : 448,
            "byteOffset" : 5232
        },
        {
            "buffer" : 0,
            "byteLength" : 384,
            "byteOffset" : 5680
        },
        {
            "buffer" : 0,
            "byteLength" : 708,
            "byteOffset" : 6064
        },
        {
            "buffer" : 0,
            "byteLength" : 708,
            "byteOffset" : 6772
        },
        {
            "buffer" : 0,
            "byteLength" : 472,
            "byteOffset" : 7480
        },
        {
            "buffer" : 0,
            "byteLength" : 384,
            "byteOffset" : 7952
        },
        {
            "buffer" : 0,
            "byteLength" : 756,
            "byteOffset" : 8336
        },
        {
            "buffer" : 0,
            "byteLength" : 756,
            "byteOffset" : 9092
        },
        {
            "buffer" : 0,
            "byteLength" : 504,
            "byteOffset" : 9848
        },
        {
            "buffer" : 0,
            "byteLength" : 384,
            "byteOffset" : 10352
        }
    ],
    "samplers" : [
        {
            "magFilter" : 9729,
            "minFilter" : 9987
        }
    ],
    "buffers" : [
        {
            "byteLength" : 10736,
            "uri" : "ShroomPlantState02.bin"
        }
    ]
}
