{
    "asset" : {
        "generator" : "Khronos glTF Blender I/O v3.3.32",
        "version" : "2.0"
    },
    "scene" : 0,
    "scenes" : [
        {
            "name" : "Scene",
            "nodes" : [
                0,
                1,
                2,
                3
            ]
        }
    ],
    "nodes" : [
        {
            "mesh" : 0,
            "name" : "Cone.002",
            "translation" : [
                0,
                0.004555709660053253,
                0
            ]
        },
        {
            "name" : "Empty",
            "translation" : [
                0.13672202825546265,
                0.09144256263971329,
                -0.00677757803350687
            ]
        },
        {
            "name" : "Empty.001",
            "translation" : [
                0.016630494967103004,
                0.052384212613105774,
                -0.13727763295173645
            ]
        },
        {
            "name" : "Empty.002",
            "translation" : [
                -0.13791300356388092,
                0.10600389540195465,
                0.10227933526039124
            ]
        }
    ],
    "materials" : [
        {
            "doubleSided" : true,
            "emissiveFactor" : [
                0.02692275680601597,
                1,
                0
            ],
            "name" : "Ranke_Material",
            "pbrMetallicRoughness" : {
                "baseColorFactor" : [
                    0,
                    0,
                    0,
                    1
                ]
            }
        },
        {
            "doubleSided" : true,
            "emissiveFactor" : [
                1,
                0,
                0.012186091393232346
            ],
            "name" : "Material.002",
            "pbrMetallicRoughness" : {
                "baseColorFactor" : [
                    0,
                    0,
                    0,
                    1
                ]
            }
        },
        {
            "doubleSided" : true,
            "emissiveFactor" : [
                1,
                0.4914323687553406,
                0
            ],
            "name" : "Ranken_Stamm_Material",
            "pbrMetallicRoughness" : {
                "baseColorFactor" : [
                    0,
                    0,
                    0,
                    1
                ]
            }
        },
        {
            "doubleSided" : true,
            "emissiveFactor" : [
                0.12370995432138443,
                0.00020415592007339,
                0
            ],
            "name" : "plant_01_rank",
            "pbrMetallicRoughness" : {
                "baseColorFactor" : [
                    0,
                    0,
                    0,
                    1
                ]
            }
        },
        {
            "doubleSided" : true,
            "name" : "Material.003",
            "pbrMetallicRoughness" : {
                "baseColorFactor" : [
                    0.06997758895158768,
                    0.06997758895158768,
                    0.06997758895158768,
                    1
                ],
                "metallicFactor" : 0,
                "roughnessFactor" : 0.5
            }
        }
    ],
    "meshes" : [
        {
            "name" : "Cone.002",
            "primitives" : [
                {
                    "attributes" : {
                        "POSITION" : 0,
                        "NORMAL" : 1,
                        "TEXCOORD_0" : 2
                    },
                    "indices" : 3,
                    "material" : 0
                },
                {
                    "attributes" : {
                        "POSITION" : 4,
                        "NORMAL" : 5,
                        "TEXCOORD_0" : 6
                    },
                    "indices" : 7,
                    "material" : 1
                },
                {
                    "attributes" : {
                        "POSITION" : 8,
                        "NORMAL" : 9,
                        "TEXCOORD_0" : 10
                    },
                    "indices" : 11,
                    "material" : 2
                },
                {
                    "attributes" : {
                        "POSITION" : 12,
                        "NORMAL" : 13,
                        "TEXCOORD_0" : 14
                    },
                    "indices" : 15,
                    "material" : 3
                },
                {
                    "attributes" : {
                        "POSITION" : 16,
                        "NORMAL" : 17,
                        "TEXCOORD_0" : 18
                    },
                    "indices" : 19,
                    "material" : 4
                }
            ]
        }
    ],
    "accessors" : [
        {
            "bufferView" : 0,
            "componentType" : 5126,
            "count" : 130,
            "max" : [
                0.07821306586265564,
                0.10841261595487595,
                0.08908691257238388
            ],
            "min" : [
                -0.08748334646224976,
                0.010401908308267593,
                -0.07648471742868423
            ],
            "type" : "VEC3"
        },
        {
            "bufferView" : 1,
            "componentType" : 5126,
            "count" : 130,
            "type" : "VEC3"
        },
        {
            "bufferView" : 2,
            "componentType" : 5126,
            "count" : 130,
            "type" : "VEC2"
        },
        {
            "bufferView" : 3,
            "componentType" : 5123,
            "count" : 372,
            "type" : "SCALAR"
        },
        {
            "bufferView" : 4,
            "componentType" : 5126,
            "count" : 1040,
            "max" : [
                0.07286956906318665,
                0.09170184284448624,
                0.08226987719535828
            ],
            "min" : [
                -0.08667789399623871,
                0.020012419670820236,
                -0.07617926597595215
            ],
            "type" : "VEC3"
        },
        {
            "bufferView" : 5,
            "componentType" : 5126,
            "count" : 1040,
            "type" : "VEC3"
        },
        {
            "bufferView" : 6,
            "componentType" : 5126,
            "count" : 1040,
            "type" : "VEC2"
        },
        {
            "bufferView" : 7,
            "componentType" : 5123,
            "count" : 2976,
            "type" : "SCALAR"
        },
        {
            "bufferView" : 8,
            "componentType" : 5126,
            "count" : 830,
            "max" : [
                0.024033742025494576,
                0.14314934611320496,
                0.04386930912733078
            ],
            "min" : [
                -0.037641242146492004,
                0.015568751841783524,
                -0.022097863256931305
            ],
            "type" : "VEC3"
        },
        {
            "bufferView" : 9,
            "componentType" : 5126,
            "count" : 830,
            "type" : "VEC3"
        },
        {
            "bufferView" : 10,
            "componentType" : 5126,
            "count" : 830,
            "type" : "VEC2"
        },
        {
            "bufferView" : 11,
            "componentType" : 5123,
            "count" : 4392,
            "type" : "SCALAR"
        },
        {
            "bufferView" : 12,
            "componentType" : 5126,
            "count" : 2141,
            "max" : [
                0.19613981246948242,
                0.03485593944787979,
                0.18980194628238678
            ],
            "min" : [
                -0.19135728478431702,
                -0.0784386396408081,
                -0.17793230712413788
            ],
            "type" : "VEC3"
        },
        {
            "bufferView" : 13,
            "componentType" : 5126,
            "count" : 2141,
            "type" : "VEC3"
        },
        {
            "bufferView" : 14,
            "componentType" : 5126,
            "count" : 2141,
            "type" : "VEC2"
        },
        {
            "bufferView" : 15,
            "componentType" : 5123,
            "count" : 11904,
            "type" : "SCALAR"
        },
        {
            "bufferView" : 16,
            "componentType" : 5126,
            "count" : 393,
            "max" : [
                0.13672202825546265,
                0.10563010722398758,
                0.10227933526039124
            ],
            "min" : [
                -0.13791300356388092,
                0.022172611206769943,
                -0.13727763295173645
            ],
            "type" : "VEC3"
        },
        {
            "bufferView" : 17,
            "componentType" : 5126,
            "count" : 393,
            "type" : "VEC3"
        },
        {
            "bufferView" : 18,
            "componentType" : 5126,
            "count" : 393,
            "type" : "VEC2"
        },
        {
            "bufferView" : 19,
            "componentType" : 5123,
            "count" : 1872,
            "type" : "SCALAR"
        }
    ],
    "bufferViews" : [
        {
            "buffer" : 0,
            "byteLength" : 1560,
            "byteOffset" : 0,
            "target" : 34962
        },
        {
            "buffer" : 0,
            "byteLength" : 1560,
            "byteOffset" : 1560,
            "target" : 34962
        },
        {
            "buffer" : 0,
            "byteLength" : 1040,
            "byteOffset" : 3120,
            "target" : 34962
        },
        {
            "buffer" : 0,
            "byteLength" : 744,
            "byteOffset" : 4160,
            "target" : 34963
        },
        {
            "buffer" : 0,
            "byteLength" : 12480,
            "byteOffset" : 4904,
            "target" : 34962
        },
        {
            "buffer" : 0,
            "byteLength" : 12480,
            "byteOffset" : 17384,
            "target" : 34962
        },
        {
            "buffer" : 0,
            "byteLength" : 8320,
            "byteOffset" : 29864,
            "target" : 34962
        },
        {
            "buffer" : 0,
            "byteLength" : 5952,
            "byteOffset" : 38184,
            "target" : 34963
        },
        {
            "buffer" : 0,
            "byteLength" : 9960,
            "byteOffset" : 44136,
            "target" : 34962
        },
        {
            "buffer" : 0,
            "byteLength" : 9960,
            "byteOffset" : 54096,
            "target" : 34962
        },
        {
            "buffer" : 0,
            "byteLength" : 6640,
            "byteOffset" : 64056,
            "target" : 34962
        },
        {
            "buffer" : 0,
            "byteLength" : 8784,
            "byteOffset" : 70696,
            "target" : 34963
        },
        {
            "buffer" : 0,
            "byteLength" : 25692,
            "byteOffset" : 79480,
            "target" : 34962
        },
        {
            "buffer" : 0,
            "byteLength" : 25692,
            "byteOffset" : 105172,
            "target" : 34962
        },
        {
            "buffer" : 0,
            "byteLength" : 17128,
            "byteOffset" : 130864,
            "target" : 34962
        },
        {
            "buffer" : 0,
            "byteLength" : 23808,
            "byteOffset" : 147992,
            "target" : 34963
        },
        {
            "buffer" : 0,
            "byteLength" : 4716,
            "byteOffset" : 171800,
            "target" : 34962
        },
        {
            "buffer" : 0,
            "byteLength" : 4716,
            "byteOffset" : 176516,
            "target" : 34962
        },
        {
            "buffer" : 0,
            "byteLength" : 3144,
            "byteOffset" : 181232,
            "target" : 34962
        },
        {
            "buffer" : 0,
            "byteLength" : 3744,
            "byteOffset" : 184376,
            "target" : 34963
        }
    ],
    "buffers" : [
        {
            "byteLength" : 188120,
            "uri" : "Plant_01_ranke_stage01.bin"
        }
    ]
}
