{
    "asset" : {
        "generator" : "Khronos glTF Blender I/O v3.3.32",
        "version" : "2.0"
    },
    "scene" : 0,
    "scenes" : [
        {
            "name" : "Scene",
            "nodes" : [
                0,
                1,
                2,
                3
            ]
        }
    ],
    "nodes" : [
        {
            "name" : "Empty",
            "translation" : [
                -0.16389381885528564,
                0.6371244192123413,
                -0.46718835830688477
            ]
        },
        {
            "name" : "Empty.001",
            "translation" : [
                0.49900785088539124,
                0.6365110874176025,
                0.21631969511508942
            ]
        },
        {
            "name" : "Empty.002",
            "translation" : [
                -0.44135889410972595,
                0.6368289589881897,
                0.2592898905277252
            ]
        },
        {
            "mesh" : 0,
            "name" : "NurbsPath.002",
            "translation" : [
                0,
                0.027998900040984154,
                0
            ]
        }
    ],
    "materials" : [
        {
            "doubleSided" : true,
            "emissiveFactor" : [
                0.12370995432138443,
                0.00020415592007339,
                0
            ],
            "name" : "plant_01_rank",
            "pbrMetallicRoughness" : {
                "baseColorFactor" : [
                    0,
                    0,
                    0,
                    1
                ]
            }
        },
        {
            "doubleSided" : true,
            "emissiveFactor" : [
                1,
                0,
                0.25575751066207886
            ],
            "name" : "Material.004",
            "pbrMetallicRoughness" : {
                "baseColorFactor" : [
                    0,
                    0,
                    0,
                    1
                ]
            }
        },
        {
            "doubleSided" : true,
            "emissiveFactor" : [
                0.04026598483324051,
                1,
                0
            ],
            "name" : "Material.006",
            "pbrMetallicRoughness" : {
                "baseColorFactor" : [
                    0,
                    0,
                    0,
                    1
                ]
            }
        }
    ],
    "meshes" : [
        {
            "name" : "NurbsPath.002",
            "primitives" : [
                {
                    "attributes" : {
                        "POSITION" : 0,
                        "NORMAL" : 1,
                        "TEXCOORD_0" : 2
                    },
                    "indices" : 3,
                    "material" : 0
                },
                {
                    "attributes" : {
                        "POSITION" : 4,
                        "NORMAL" : 5,
                        "TEXCOORD_0" : 6
                    },
                    "indices" : 7,
                    "material" : 1
                },
                {
                    "attributes" : {
                        "POSITION" : 8,
                        "NORMAL" : 9,
                        "TEXCOORD_0" : 10
                    },
                    "indices" : 11,
                    "material" : 2
                }
            ]
        }
    ],
    "accessors" : [
        {
            "bufferView" : 0,
            "componentType" : 5126,
            "count" : 2383,
            "max" : [
                0.5715488195419312,
                0.10429508984088898,
                0.6282851099967957
            ],
            "min" : [
                -0.5936257839202881,
                -0.3974529504776001,
                -0.5838654041290283
            ],
            "type" : "VEC3"
        },
        {
            "bufferView" : 1,
            "componentType" : 5126,
            "count" : 2383,
            "type" : "VEC3"
        },
        {
            "bufferView" : 2,
            "componentType" : 5126,
            "count" : 2383,
            "type" : "VEC2"
        },
        {
            "bufferView" : 3,
            "componentType" : 5123,
            "count" : 6462,
            "type" : "SCALAR"
        },
        {
            "bufferView" : 4,
            "componentType" : 5126,
            "count" : 885,
            "max" : [
                0.5068472027778625,
                0.6139001846313477,
                0.2687957286834717
            ],
            "min" : [
                -0.4497584104537964,
                0.031941235065460205,
                -0.4760760962963104
            ],
            "type" : "VEC3"
        },
        {
            "bufferView" : 5,
            "componentType" : 5126,
            "count" : 885,
            "type" : "VEC3"
        },
        {
            "bufferView" : 6,
            "componentType" : 5126,
            "count" : 885,
            "type" : "VEC2"
        },
        {
            "bufferView" : 7,
            "componentType" : 5123,
            "count" : 3996,
            "type" : "SCALAR"
        },
        {
            "bufferView" : 8,
            "componentType" : 5126,
            "count" : 603,
            "max" : [
                0.16175039112567902,
                0.17420721054077148,
                0.18057917058467865
            ],
            "min" : [
                -0.16771453619003296,
                0.05345422774553299,
                -0.14874997735023499
            ],
            "type" : "VEC3"
        },
        {
            "bufferView" : 9,
            "componentType" : 5126,
            "count" : 603,
            "type" : "VEC3"
        },
        {
            "bufferView" : 10,
            "componentType" : 5126,
            "count" : 603,
            "type" : "VEC2"
        },
        {
            "bufferView" : 11,
            "componentType" : 5123,
            "count" : 3564,
            "type" : "SCALAR"
        }
    ],
    "bufferViews" : [
        {
            "buffer" : 0,
            "byteLength" : 28596,
            "byteOffset" : 0,
            "target" : 34962
        },
        {
            "buffer" : 0,
            "byteLength" : 28596,
            "byteOffset" : 28596,
            "target" : 34962
        },
        {
            "buffer" : 0,
            "byteLength" : 19064,
            "byteOffset" : 57192,
            "target" : 34962
        },
        {
            "buffer" : 0,
            "byteLength" : 12924,
            "byteOffset" : 76256,
            "target" : 34963
        },
        {
            "buffer" : 0,
            "byteLength" : 10620,
            "byteOffset" : 89180,
            "target" : 34962
        },
        {
            "buffer" : 0,
            "byteLength" : 10620,
            "byteOffset" : 99800,
            "target" : 34962
        },
        {
            "buffer" : 0,
            "byteLength" : 7080,
            "byteOffset" : 110420,
            "target" : 34962
        },
        {
            "buffer" : 0,
            "byteLength" : 7992,
            "byteOffset" : 117500,
            "target" : 34963
        },
        {
            "buffer" : 0,
            "byteLength" : 7236,
            "byteOffset" : 125492,
            "target" : 34962
        },
        {
            "buffer" : 0,
            "byteLength" : 7236,
            "byteOffset" : 132728,
            "target" : 34962
        },
        {
            "buffer" : 0,
            "byteLength" : 4824,
            "byteOffset" : 139964,
            "target" : 34962
        },
        {
            "buffer" : 0,
            "byteLength" : 7128,
            "byteOffset" : 144788,
            "target" : 34963
        }
    ],
    "buffers" : [
        {
            "byteLength" : 151916,
            "uri" : "Plant_01_ranke_state00.bin"
        }
    ]
}
