{
    "asset" : {
        "generator" : "Khronos glTF Blender I/O v3.3.32",
        "version" : "2.0"
    },
    "scene" : 0,
    "scenes" : [
        {
            "name" : "Scene",
            "nodes" : [
                0,
                1,
                2,
                3,
                4
            ]
        }
    ],
    "nodes" : [
        {
            "name" : "Empty",
            "translation" : [
                -1.7188186645507812,
                2.6843390464782715,
                -0.06473827362060547
            ]
        },
        {
            "name" : "Empty.001",
            "translation" : [
                0.7452902793884277,
                2.237602710723877,
                0.7855992317199707
            ]
        },
        {
            "name" : "Empty.002",
            "translation" : [
                1.518695592880249,
                2.0324273109436035,
                -0.6152268648147583
            ]
        },
        {
            "mesh" : 0,
            "name" : "NurbsPath.002"
        },
        {
            "mesh" : 1,
            "name" : "Cylinder.003",
            "rotation" : [
                -0.8295214176177979,
                0.046623699367046356,
                -0.3480563461780548,
                0.43425479531288147
            ],
            "translation" : [
                0.13201025128364563,
                -1.706452488899231,
                0.05200260877609253
            ]
        }
    ],
    "materials" : [
        {
            "doubleSided" : true,
            "emissiveFactor" : [
                1,
                0.4914323687553406,
                0
            ],
            "name" : "Ranken_Stamm_Material",
            "pbrMetallicRoughness" : {
                "baseColorFactor" : [
                    0,
                    0,
                    0,
                    1
                ]
            }
        },
        {
            "doubleSided" : true,
            "emissiveFactor" : [
                0.12370995432138443,
                0.00020415592007339,
                0
            ],
            "name" : "plant_01_rank",
            "pbrMetallicRoughness" : {
                "baseColorFactor" : [
                    0,
                    0,
                    0,
                    1
                ]
            }
        },
        {
            "doubleSided" : true,
            "name" : "Material.003",
            "pbrMetallicRoughness" : {
                "baseColorFactor" : [
                    0.06997758895158768,
                    0.06997758895158768,
                    0.06997758895158768,
                    1
                ],
                "metallicFactor" : 0,
                "roughnessFactor" : 0.5
            }
        },
        {
            "doubleSided" : true,
            "emissiveFactor" : [
                1,
                0,
                0.25575751066207886
            ],
            "name" : "Material.004",
            "pbrMetallicRoughness" : {
                "baseColorFactor" : [
                    0,
                    0,
                    0,
                    1
                ]
            }
        },
        {
            "doubleSided" : true,
            "emissiveFactor" : [
                0.22547322511672974,
                1,
                0
            ],
            "name" : "Material.002",
            "pbrMetallicRoughness" : {
                "baseColorFactor" : [
                    0,
                    0,
                    0,
                    1
                ]
            }
        },
        {
            "doubleSided" : true,
            "emissiveFactor" : [
                0,
                0.0011540792183950543,
                1
            ],
            "name" : "Material",
            "pbrMetallicRoughness" : {
                "baseColorFactor" : [
                    0,
                    0,
                    0,
                    1
                ]
            }
        },
        {
            "doubleSided" : true,
            "emissiveFactor" : [
                1,
                0,
                0.38632676005363464
            ],
            "name" : "Ranke_stacheln _material",
            "pbrMetallicRoughness" : {
                "baseColorFactor" : [
                    0,
                    0,
                    0,
                    1
                ]
            }
        }
    ],
    "meshes" : [
        {
            "name" : "NurbsPath.002",
            "primitives" : [
                {
                    "attributes" : {
                        "POSITION" : 0,
                        "NORMAL" : 1,
                        "TEXCOORD_0" : 2
                    },
                    "indices" : 3,
                    "material" : 0
                },
                {
                    "attributes" : {
                        "POSITION" : 4,
                        "NORMAL" : 5,
                        "TEXCOORD_0" : 6
                    },
                    "indices" : 7,
                    "material" : 1
                },
                {
                    "attributes" : {
                        "POSITION" : 8,
                        "NORMAL" : 9,
                        "TEXCOORD_0" : 10
                    },
                    "indices" : 11,
                    "material" : 2
                },
                {
                    "attributes" : {
                        "POSITION" : 12,
                        "NORMAL" : 13,
                        "TEXCOORD_0" : 14
                    },
                    "indices" : 15,
                    "material" : 3
                },
                {
                    "attributes" : {
                        "POSITION" : 16,
                        "NORMAL" : 17,
                        "TEXCOORD_0" : 18
                    },
                    "indices" : 19,
                    "material" : 4
                },
                {
                    "attributes" : {
                        "POSITION" : 20,
                        "NORMAL" : 21,
                        "TEXCOORD_0" : 22
                    },
                    "indices" : 23,
                    "material" : 5
                }
            ]
        },
        {
            "name" : "Cylinder.003",
            "primitives" : [
                {
                    "attributes" : {
                        "POSITION" : 24,
                        "NORMAL" : 25,
                        "TEXCOORD_0" : 26
                    },
                    "indices" : 27,
                    "material" : 4
                },
                {
                    "attributes" : {
                        "POSITION" : 28,
                        "NORMAL" : 29,
                        "TEXCOORD_0" : 30
                    },
                    "indices" : 31,
                    "material" : 6
                }
            ]
        }
    ],
    "accessors" : [
        {
            "bufferView" : 0,
            "componentType" : 5126,
            "count" : 830,
            "max" : [
                0.4357762336730957,
                4.323503494262695,
                0.3919907212257385
            ],
            "min" : [
                -0.3609244227409363,
                0.6289357542991638,
                -0.4665548503398895
            ],
            "type" : "VEC3"
        },
        {
            "bufferView" : 1,
            "componentType" : 5126,
            "count" : 830,
            "type" : "VEC3"
        },
        {
            "bufferView" : 2,
            "componentType" : 5126,
            "count" : 830,
            "type" : "VEC2"
        },
        {
            "bufferView" : 3,
            "componentType" : 5123,
            "count" : 4392,
            "type" : "SCALAR"
        },
        {
            "bufferView" : 4,
            "componentType" : 5126,
            "count" : 559,
            "max" : [
                1.133727788925171,
                1.0407854318618774,
                1.0804543495178223
            ],
            "min" : [
                -1.1233735084533691,
                -1.1435922384262085,
                -1.087162733078003
            ],
            "type" : "VEC3"
        },
        {
            "bufferView" : 5,
            "componentType" : 5126,
            "count" : 559,
            "type" : "VEC3"
        },
        {
            "bufferView" : 6,
            "componentType" : 5126,
            "count" : 559,
            "type" : "VEC2"
        },
        {
            "bufferView" : 7,
            "componentType" : 5123,
            "count" : 2880,
            "type" : "SCALAR"
        },
        {
            "bufferView" : 8,
            "componentType" : 5126,
            "count" : 312,
            "max" : [
                1.527964472770691,
                2.7376556396484375,
                0.8285493850708008
            ],
            "min" : [
                -1.8016029596328735,
                0.6786201000213623,
                -0.6497179865837097
            ],
            "type" : "VEC3"
        },
        {
            "bufferView" : 9,
            "componentType" : 5126,
            "count" : 312,
            "type" : "VEC3"
        },
        {
            "bufferView" : 10,
            "componentType" : 5126,
            "count" : 312,
            "type" : "VEC2"
        },
        {
            "bufferView" : 11,
            "componentType" : 5123,
            "count" : 468,
            "type" : "SCALAR"
        },
        {
            "bufferView" : 12,
            "componentType" : 5126,
            "count" : 65,
            "max" : [
                0.2851337790489197,
                4.938601016998291,
                0.1740226298570633
            ],
            "min" : [
                -0.36581867933273315,
                4.547346115112305,
                -0.47692984342575073
            ],
            "type" : "VEC3"
        },
        {
            "bufferView" : 13,
            "componentType" : 5126,
            "count" : 65,
            "type" : "VEC3"
        },
        {
            "bufferView" : 14,
            "componentType" : 5126,
            "count" : 65,
            "type" : "VEC2"
        },
        {
            "bufferView" : 15,
            "componentType" : 5123,
            "count" : 186,
            "type" : "SCALAR"
        },
        {
            "bufferView" : 16,
            "componentType" : 5126,
            "count" : 260,
            "max" : [
                2.4708406925201416,
                4.7385759353637695,
                2.139158248901367
            ],
            "min" : [
                -2.5186960697174072,
                3.1197729110717773,
                -2.67256236076355
            ],
            "type" : "VEC3"
        },
        {
            "bufferView" : 17,
            "componentType" : 5126,
            "count" : 260,
            "type" : "VEC3"
        },
        {
            "bufferView" : 18,
            "componentType" : 5126,
            "count" : 260,
            "type" : "VEC2"
        },
        {
            "bufferView" : 19,
            "componentType" : 5123,
            "count" : 1440,
            "type" : "SCALAR"
        },
        {
            "bufferView" : 20,
            "componentType" : 5126,
            "count" : 2653,
            "max" : [
                0.7737504839897156,
                4.7456536293029785,
                0.6249548196792603
            ],
            "min" : [
                -0.8541380167007446,
                3.200167417526245,
                -0.921965479850769
            ],
            "type" : "VEC3"
        },
        {
            "bufferView" : 21,
            "componentType" : 5126,
            "count" : 2653,
            "type" : "VEC3"
        },
        {
            "bufferView" : 22,
            "componentType" : 5126,
            "count" : 2653,
            "type" : "VEC2"
        },
        {
            "bufferView" : 23,
            "componentType" : 5123,
            "count" : 15906,
            "type" : "SCALAR"
        },
        {
            "bufferView" : 24,
            "componentType" : 5126,
            "count" : 2269,
            "max" : [
                3.0015056133270264,
                4.837967872619629,
                2.451469898223877
            ],
            "min" : [
                -2.807690382003784,
                -2.50632905960083,
                -3.7943201065063477
            ],
            "type" : "VEC3"
        },
        {
            "bufferView" : 25,
            "componentType" : 5126,
            "count" : 2269,
            "type" : "VEC3"
        },
        {
            "bufferView" : 26,
            "componentType" : 5126,
            "count" : 2269,
            "type" : "VEC2"
        },
        {
            "bufferView" : 27,
            "componentType" : 5123,
            "count" : 11688,
            "type" : "SCALAR"
        },
        {
            "bufferView" : 28,
            "componentType" : 5126,
            "count" : 920,
            "max" : [
                2.670403242111206,
                2.3936383724212646,
                2.512279987335205
            ],
            "min" : [
                -2.4747323989868164,
                -2.6405107975006104,
                -2.1858420372009277
            ],
            "type" : "VEC3"
        },
        {
            "bufferView" : 29,
            "componentType" : 5126,
            "count" : 920,
            "type" : "VEC3"
        },
        {
            "bufferView" : 30,
            "componentType" : 5126,
            "count" : 920,
            "type" : "VEC2"
        },
        {
            "bufferView" : 31,
            "componentType" : 5123,
            "count" : 2070,
            "type" : "SCALAR"
        }
    ],
    "bufferViews" : [
        {
            "buffer" : 0,
            "byteLength" : 9960,
            "byteOffset" : 0,
            "target" : 34962
        },
        {
            "buffer" : 0,
            "byteLength" : 9960,
            "byteOffset" : 9960,
            "target" : 34962
        },
        {
            "buffer" : 0,
            "byteLength" : 6640,
            "byteOffset" : 19920,
            "target" : 34962
        },
        {
            "buffer" : 0,
            "byteLength" : 8784,
            "byteOffset" : 26560,
            "target" : 34963
        },
        {
            "buffer" : 0,
            "byteLength" : 6708,
            "byteOffset" : 35344,
            "target" : 34962
        },
        {
            "buffer" : 0,
            "byteLength" : 6708,
            "byteOffset" : 42052,
            "target" : 34962
        },
        {
            "buffer" : 0,
            "byteLength" : 4472,
            "byteOffset" : 48760,
            "target" : 34962
        },
        {
            "buffer" : 0,
            "byteLength" : 5760,
            "byteOffset" : 53232,
            "target" : 34963
        },
        {
            "buffer" : 0,
            "byteLength" : 3744,
            "byteOffset" : 58992,
            "target" : 34962
        },
        {
            "buffer" : 0,
            "byteLength" : 3744,
            "byteOffset" : 62736,
            "target" : 34962
        },
        {
            "buffer" : 0,
            "byteLength" : 2496,
            "byteOffset" : 66480,
            "target" : 34962
        },
        {
            "buffer" : 0,
            "byteLength" : 936,
            "byteOffset" : 68976,
            "target" : 34963
        },
        {
            "buffer" : 0,
            "byteLength" : 780,
            "byteOffset" : 69912,
            "target" : 34962
        },
        {
            "buffer" : 0,
            "byteLength" : 780,
            "byteOffset" : 70692,
            "target" : 34962
        },
        {
            "buffer" : 0,
            "byteLength" : 520,
            "byteOffset" : 71472,
            "target" : 34962
        },
        {
            "buffer" : 0,
            "byteLength" : 372,
            "byteOffset" : 71992,
            "target" : 34963
        },
        {
            "buffer" : 0,
            "byteLength" : 3120,
            "byteOffset" : 72364,
            "target" : 34962
        },
        {
            "buffer" : 0,
            "byteLength" : 3120,
            "byteOffset" : 75484,
            "target" : 34962
        },
        {
            "buffer" : 0,
            "byteLength" : 2080,
            "byteOffset" : 78604,
            "target" : 34962
        },
        {
            "buffer" : 0,
            "byteLength" : 2880,
            "byteOffset" : 80684,
            "target" : 34963
        },
        {
            "buffer" : 0,
            "byteLength" : 31836,
            "byteOffset" : 83564,
            "target" : 34962
        },
        {
            "buffer" : 0,
            "byteLength" : 31836,
            "byteOffset" : 115400,
            "target" : 34962
        },
        {
            "buffer" : 0,
            "byteLength" : 21224,
            "byteOffset" : 147236,
            "target" : 34962
        },
        {
            "buffer" : 0,
            "byteLength" : 31812,
            "byteOffset" : 168460,
            "target" : 34963
        },
        {
            "buffer" : 0,
            "byteLength" : 27228,
            "byteOffset" : 200272,
            "target" : 34962
        },
        {
            "buffer" : 0,
            "byteLength" : 27228,
            "byteOffset" : 227500,
            "target" : 34962
        },
        {
            "buffer" : 0,
            "byteLength" : 18152,
            "byteOffset" : 254728,
            "target" : 34962
        },
        {
            "buffer" : 0,
            "byteLength" : 23376,
            "byteOffset" : 272880,
            "target" : 34963
        },
        {
            "buffer" : 0,
            "byteLength" : 11040,
            "byteOffset" : 296256,
            "target" : 34962
        },
        {
            "buffer" : 0,
            "byteLength" : 11040,
            "byteOffset" : 307296,
            "target" : 34962
        },
        {
            "buffer" : 0,
            "byteLength" : 7360,
            "byteOffset" : 318336,
            "target" : 34962
        },
        {
            "buffer" : 0,
            "byteLength" : 4140,
            "byteOffset" : 325696,
            "target" : 34963
        }
    ],
    "buffers" : [
        {
            "byteLength" : 329836,
            "uri" : "plant_03_universsun_state03_lange.bin"
        }
    ]
}
